<svg xmlns="http://www.w3.org/2000/svg" width="1366" height="17.327" viewBox="0 0 1366 17.327">
  <path id="path2" d="M-180.716,10.627h.5v1.3A1.28,1.28,0,0,1-180.716,10.627Zm-34.577,1.5c-.142-.9,1.281-.6,1.494-.2.854,0,1.992-1.2,2.419,0C-212.518,11.827-214.083,12.427-215.293,12.127Zm-32.087,1.8c-.142-1.6,1.281-1.9,2.063-.9C-245.743,13.927-246.668,13.227-247.38,13.927Zm175.588-3.5a1.414,1.414,0,0,1,1.209.4c-.071.4-.356.6-.64.9-.427-.2-.569-.6-.569-1.3Zm-87.367,3a2.734,2.734,0,0,1-1.352.2C-161.791,12.327-158.874,11.527-159.159,13.427Zm123.153-2.9a.715.715,0,0,0,1.067-.4C-34.3,10.527-36.076,11.827-36.005,10.527Zm-67.589,1.9v-.7c.427-.1.5.2.5.7Zm-1.352.6h.64v-.4c1-.2-.071.8.711.7,0,.6-.854.3-1.352.4C-104.661,13.327-105.017,13.527-104.946,13.027Zm57.7-.5v-.7c.5.3.925-.5,1.209,0A.954.954,0,0,1-47.246,12.527Zm49.091,1.6a17.944,17.944,0,0,0-1.565-1.3,5.018,5.018,0,0,0,.285-.7c1.067-.1,1.352.8,1.281,2Zm-76.268-.2c.5.1.5-.4.854,0v.4C-74,14.427-74.5,14.727-74.424,13.927Zm159.865-1.4c-.285-.3-.213-1-.213-1.5a5.034,5.034,0,0,0,3.984.3c-.213.5-1.067.4-1.067,1.1C87.362,11.327,86.864,12.827,85.441,12.527Zm-161.43,2.1c-.142-.5.427-.3.5-.7a.881.881,0,0,1,.356,1.3.779.779,0,0,1-.854-.6Zm57.415-.7a3.941,3.941,0,0,0,.356-.8c.356,0,.5.2.711.2a1.05,1.05,0,0,1-1.067.6Zm-83.6,1c.285-.3.64-.1,1,0a1.377,1.377,0,0,0-.142.6C-101.815,15.627-102.242,15.627-102.171,14.927Zm89.075-.9c-.071-.4.071-.5.142-.8.285.1.356.4.356.8Zm-3.771,1.2c0-.5.427-.6.356-1.1.854.3.5-.7,1.138-.6A2.257,2.257,0,0,1-16.867,15.227Zm5.834.8c-.427.1-.5-.2-.5-.7-.5,0-.356.6-.854.6a1.16,1.16,0,0,0-.356-1.3,8.636,8.636,0,0,1,3.273-1.2c-.5.9-1.779.9-1.565,2.6Zm49.517-2.9c.071-.3.569-.1.569-.4.071.1.142.2.285.2v.4c-.427,0-.64,0-.854-.2Zm-45.178,2.6c-.64-1.4.213-2.6,1.494-1.9,0,.3-.285.4-.64.4,0,.7.854.5.854,1.3-.783-.1-1.067.3-1.707.2Zm12.806-2.1a2.158,2.158,0,0,0,2.063,0c.356.3.285,1.1.711,1.3a.854.854,0,0,1-1.352.2c.427,1.1,1.494,1.3,2.775,1.2-.569.6.285.8-.142,1.5-.925-.4-1.423,0-1.921-.7-.569.1-.213.7-.142,1.1-.285-.1-.285-.6-.854-.4.285-.5.569-1.2-.142-1.3.5-1.1-.5-1.5.356-2.1-.356.1-1.067.4-1.352,0,.356-.3.285-.4,0-.8Zm104.015-.8a1.851,1.851,0,0,1,1.352-.4C111.693,13.627,110.484,13.027,110.128,12.827Zm38.917,0c0-.2,1.423-.4,1.21.2C149.685,13.127,149.614,12.727,149.045,12.827Zm-164.489,5.2c-.854,0-.854-.9-1.209-1.5-.569,0-.569.7-1.352.6,0-1.4.783-.7,1.565-.8a37.88,37.88,0,0,0,3.913-.4c0,.3-.285.4-.213.7,0,.2.285.2.5.2a1.666,1.666,0,0,1-1,1.1c-.071-1.4-2.846-1.8-2.206.1Zm20.419-2.1c.64.2.427-.5,1-.4-.142,1.1.213,1.1.711,1.1-.142.5-.711.7-.711,1.3-.356-.1-.427-.4-1-.3C5.971,17.027,4.69,17.127,4.975,15.927Zm-14.087.4c.711.1.711.7,1.565.3a2.177,2.177,0,0,1-1.707.6c-.142-.4.285-.4.142-.9Zm24.4,3.3c-.783.1-1-.5-1.565-.7,0-.3.427-.2.285-.7a1.413,1.413,0,0,1,1.138.9c.356-.3,1.352-.3,1.138.3a1.96,1.96,0,0,0-1.067-.1C15.22,19.427,15.362,19.527,15.291,19.627Zm-66.023,3.6c.142-.6-.213-.6-.711-.5.142-.7,1.85.2,2.063-.8-.142-.5-1.067,0-1.209-.4-.711.6-1.067.5-2.063.6.711-1.4,2.134-1,3.13-1.3a2.668,2.668,0,0,1,.356,1.8c-.783-.2-.5.9-1.565.6Zm308.488-2.9c-.213.8-2.134,1.2-2.561.2C256.191,20.627,256.973,19.727,257.756,20.327Zm32.3-.2c.213-.5.711-.6,1.352-.6-.071.7-.64.8-.854,1.3C290.2,20.727,290.341,20.127,290.056,20.127Zm37.85,0c.213-.8,1.067-.1,1.708-.2C329.471,21.127,328.546,20.027,327.906,20.127Zm-334.314-1.1c-.356-.1-.783.5-1.494.6-.142-.8,1.067-.3,1.209-.9C-6.551,18.727-6.551,19.127-6.409,19.027Zm-19.352-.1h.213a.581.581,0,0,0-.142.3.47.47,0,0,0-.071-.3Zm0,0c-.142,0-.356.1-.427-.1C-25.974,18.827-25.831,18.827-25.76,18.927Zm2.846,1.5c-.285-.5-.783-.8-1.067-1.3a2.683,2.683,0,0,1-1.565-.2c.285-.2.925-.2.711-1,.711.6,1.138.4,2.206.3,0,.3-.071.6.142.6C-23.057,19.227-23.128,19.527-22.914,20.427Zm-10.672-5.1c1.707,0,4.624.2,5.478-2.1a3.91,3.91,0,0,0,2.561.7c.071.3-.071.4-.285.4.071.5.925.1,1.352.2.142-.1.142-.4.142-1.1.711.2.854-.3,1.352-.4.5.1,1,.3.854,1.1,1.352.1,1.209-1.4,2.561-.8-.427,1.1.356.7.5,1.5a2.6,2.6,0,0,0,1.565-.2c0,.5-.711.4-.711.9-3.2-2.1-3.2,2.8-4.98-.5a5.358,5.358,0,0,1-4.624-.1c-.427.1-.213.8-.64.8.213.7,1-.2,1.209.7a2.829,2.829,0,0,0-2.561.6c-.356-.1-.427-.5-.711-.7-1,.9-3.2.7-4.624.1.569-.2,1.281-.3,1.565-1.1Zm33.937-.1c1.281.8,2.846-.3,3.771,1.2-.356.3-1.209,0-.854,1.1-.569.1-.711.6-1.352.2a.789.789,0,0,0-.285.7c.711.7,1.921.4,3.273.5-.64.2-.5.6-.356,1.3a3.138,3.138,0,0,1-1.352-.9c-1.352.9-3.059,0-4.269.4.356-.9,1.779-.7,2.419-1.3.071-.6-.569-.4-.356-1.1H1.7c-.64-.5-.711-1.6-1.352-2.1Zm-19.707,4.5c-.213-.2-.711-.2-.711-.7-.285.3-.711.4-.854.8-.5.1-.356-.6-1-.4a5.454,5.454,0,0,0-.356-1.3c1,.5,1.494-.7,2.348-.2.64-.6.142-1,.356-1.9.64.2.5,1.3.711,2,.711-.5,1.565.2,1.423,1.3a6.73,6.73,0,0,1-1.423,0c-.213-.2-.071-.9-.5-.9-.711.2.142.6,0,1.3Zm121.446-9.1h.5v1.3A1.28,1.28,0,0,1,102.089,10.627Zm-34.648,1.5c-.142-.9,1.281-.6,1.494-.2.783,0,1.992-1.2,2.419,0C70.215,11.827,68.721,12.427,67.441,12.127Zm143.5-1.7a1.413,1.413,0,0,1,1.209.4c-.071.4-.356.6-.64.9C211.084,11.527,210.942,11.127,210.942,10.427Zm-87.3,3a2.734,2.734,0,0,1-1.352.2C121.014,12.327,123.931,11.527,123.646,13.427Zm123.153-2.9a.715.715,0,0,0,1.067-.4C248.507,10.527,246.728,11.827,246.8,10.527Zm-67.66,1.9v-.7c.427-.1.5.2.5.7Zm-1.352.6h.64v-.4c1-.2-.071.8.711.7,0,.6-.854.3-1.352.4C178.073,13.327,177.788,13.527,177.788,13.027Zm57.77-.5v-.7c.5.3.925-.5,1.21,0A1.024,1.024,0,0,1,235.558,12.527Zm49.091,1.6a17.943,17.943,0,0,0-1.565-1.3,5.025,5.025,0,0,0,.285-.7C284.436,12.027,284.649,12.927,284.649,14.127Zm-76.268-.2c.5.1.5-.4.854,0v.4c-.5.1-.925.4-.854-.4Zm159.865-1.4a3.289,3.289,0,0,1-.142-1.5,4.842,4.842,0,0,0,3.913.3c-.213.5-1.067.4-1.067,1.1C370.166,11.327,369.668,12.827,368.245,12.527Zm-161.43,2.1c-.142-.5.427-.3.5-.7a.881.881,0,0,1,.356,1.3c-.427,0-.783-.1-.854-.6Zm57.344-.7a3.939,3.939,0,0,0,.356-.8c.356,0,.5.2.711.2q-.213.6-1.067.6Zm-83.6,1c.285-.3.64-.1,1,0a1.378,1.378,0,0,0-.142.6C180.918,15.627,180.491,15.627,180.563,14.927Zm89.146-.9c-.071-.4.071-.5.142-.8.285.1.356.4.356.8Zm-3.771,1.2c0-.5.427-.6.356-1.1.854.3.5-.7,1.138-.6A2.4,2.4,0,0,1,265.938,15.227Zm5.763.8c-.427.1-.5-.2-.5-.7-.5,0-.356.6-.854.6a1.16,1.16,0,0,0-.356-1.3,8.636,8.636,0,0,1,3.273-1.2C272.839,14.327,271.487,14.327,271.7,16.027Zm58.624-2.8c0-1.4,1.636-.4,2.561-.6-.071.2-.925.4-.356.7C332.245,13.327,331.178,12.327,330.325,13.227Zm-9.178-.1c.071-.3.569-.1.569-.4.142.1.213.2.356.2v.4A1.457,1.457,0,0,1,321.147,13.127Zm-45.106,2.6c-.64-1.4.213-2.6,1.494-1.9,0,.3-.285.4-.64.4,0,.7.854.5.854,1.3-.783-.1-1.067.3-1.708.2Zm12.877-2.1a2.158,2.158,0,0,0,2.063,0c.356.3.285,1.1.711,1.3a.854.854,0,0,1-1.352.2c.427,1.1,1.494,1.3,2.775,1.2-.569.6.285.8-.142,1.5-.925-.4-1.423,0-1.921-.7-.569.1-.213.7-.142,1.1-.285-.1-.285-.6-.854-.4.285-.5.569-1.2-.142-1.3.5-1.1-.5-1.5.356-2.1-.356.1-1.067.4-1.352,0,.356-.3.285-.4,0-.8Zm22.055.3c0-.3.285-.4.213-.7a1.1,1.1,0,0,1,.64.2C311.684,13.827,311.542,14.127,310.973,13.927Zm5.549,2.2c-.285-.3-.854-.3-.854-.9.5.2,1.067,0,1.352.2.783-.4.285-1.1.142-1.9a2.6,2.6,0,0,1,1.708-.2,2.177,2.177,0,0,0-.5,2.6c-.569.2-.711.7-1.352.8-.071.5,1.138-.3.854.5-1.352-.5-1.281.7-2.206.6.427-.5-.285-.1-.213-.7.783.1.64-.8,1.067-1Zm-12.45-1.1c0-.6.569-.7.64-1.3.427.5.783-.2,1.067.2-.427,1.1.925,1,1.067,2-1,.7-1.352-.9-2.561-.5.071-.2,0-.3-.213-.4Zm88.861-2.2a1.85,1.85,0,0,1,1.352-.4C394.427,13.627,393.289,13.027,392.933,12.827Zm-96.118,3.2c.142-.3.427-.4.5-.8.427.1,1.067.3.783-.6,1.281.5,2.49,1,2.846,2.4.427-.7,2.561-1.3,3.059-.4,0,.6-.783.3-.711.9-.569.1-.071-.9-.711-.7-.569-.2-.213.6-.5.7-1.209-.4-3.415-.9-3.984-1.8A3.932,3.932,0,0,1,296.815,16.027Zm30.593-1c0-.7.711-.7,1.21-.8.285.6.427,1.2.213,1.5-.569,0-.142-.3-.356-.9-.569-.1-.5.4-1.067.2Zm97.826-1.9c.142-.7,1.494-.3,1.921-.2a1.952,1.952,0,0,1-1.565.6A.9.9,0,0,0,425.233,13.127Zm-157.873,4.9c-.854,0-.854-.9-1.21-1.5-.569,0-.569.7-1.352.6,0-1.4.783-.7,1.565-.8a37.878,37.878,0,0,0,3.913-.4c0,.3-.285.4-.213.7,0,.2.285.2.5.2a1.666,1.666,0,0,1-1,1.1c-.142-1.4-2.917-1.8-2.206.1Zm20.348-2.1c.64.2.427-.5,1-.4-.142,1.1.213,1.1.711,1.1-.142.5-.711.7-.711,1.3-.356-.1-.427-.4-1-.3C288.7,17.027,287.495,17.127,287.708,15.927Zm-14.087.4c.711.1.711.7,1.565.3a2.178,2.178,0,0,1-1.708.6C273.408,16.827,273.835,16.827,273.621,16.327Zm37.352-.3c-.356.2-.783,0-1.352.4,0-.3.285-.4.213-.7.64,0,.427.2,1,0,0,.2.071.3.142.3Zm47.454-.8c.142,0,.142.1.142.2v.5c-.285-.4-.783-.1-.783.4-.711.2-.783-.3-1.209-.5C356.791,15.027,358.143,15.527,358.427,15.227Zm-32.514,1.1c.213-.5.854-.2,1.352,0-.285.2-.213.8-.5,1.1C326.2,17.527,326.554,16.327,325.914,16.327Zm91.92-.6c-.213-.2-.711-.2-.711-.7.711,0,.925.3,1.352-.2.569.4-.64.6-.64.9Zm-5.905.1c.071,0,.071.1.142.1-.213-.1-.356,0-.569,0C411.644,15.927,411.787,15.827,411.929,15.827Zm1.565,0c-.427,1-.783.2-1.423.1C412.569,16.027,413.138,15.627,413.494,15.827Zm-1.992.1c-1.779.3-4.055,1.6-5.549.4C407.447,15.327,409.581,15.627,411.5,15.927Zm-91.778,1.3c.285,1-1.138,1.4-1,.2C319.226,17.527,319.226,17.127,319.724,17.227Zm-12.949,1.3c.071.9-.783.7-.711,1.5-.5-.8-.783.1-1.708,0a6.645,6.645,0,0,1,.711-1.3C305.779,18.927,306.064,18.527,306.775,18.527Zm-7.755.9c-.569-.2-.64-.4-1.352-.2-.071-.6,1.636-.5,1.352.2Zm119.6-1.5c-.711.2-1.209,0-1.85.6-.213-.3-.925-.2-.854-.9C416.909,17.727,418.4,16.427,418.617,17.927Zm2.775-.6c.142,1.3-2.134,1.2-2.063,0C419.968,16.927,420.537,17.427,421.391,17.327Zm1,.5c1.423-1.5,4.34-.2,6.19-.8.356,1-1.067,1.3-1.209.6-1.85.8-3.059.4-4.98.2Zm-20.632,1.3c-1.209-.4-3.842.6-4.98-.5,1-1.2,3.059-.4,4.767-.6C401.613,18.727,402.04,18.527,401.755,19.127Zm25.114-.1c-.071.2-.213.3-.142.6-.64-.1-1.494.6-1.708-.2-.142-.5.569-.2.5-.7C426.016,19.227,426.443,18.827,426.869,19.027Zm-95.9,1.3Zm-.071,0c-.071.2-.071.5-.427.4C330.4,20.327,330.609,20.427,330.894,20.327Zm-54.5-1.3c-.356-.1-.783.5-1.494.6-.142-.8,1.067-.3,1.21-.9.142,0,.071.4.285.3Zm113.193-3.9a1.187,1.187,0,0,1,0-1.5c2.561.7,5.478-.2,7.9.6a2.657,2.657,0,0,0,.356-.6c5.051,0,11.028-.7,16.435-.3,2.419-1,7.47-.4,10.245-.7-1.281,1.9-5.051.6-6.688,1a1.784,1.784,0,0,1-1.209-.5c-1.708.6-3.059.6-4.411,1.4-3.486-.7-6.332,1.4-8.893,0-.569,0-.071,1.1-.854.8-.213.5.356,1.1,0,1.1-.711-.4-1.138-.4-1.494.4-.783,0-1.138-.5-2.063-.3-.213-.5-.142-.6.142-1.1a2.39,2.39,0,0,1-1.352-.7c-.356.3-.5.8-1.138.8.356.7.925.3,1.85.3-.64.8.64.6.356,1.5-1.494-.6-2.419-.2-4.126.1-.142-1.2-1.209-1-1.921-1.1-.213-.6,0-.4,0-1.1-1.067-.3-1.423.2-3.13-.1Zm-132.616,3.8h.213a.581.581,0,0,0-.142.3C257.115,19.127,257.044,19.027,256.973,18.927Zm0,0c-.142,0-.356.1-.427-.1C256.76,18.827,256.9,18.827,256.973,18.927Zm2.917,1.5c-.285-.5-.783-.8-1.067-1.3a2.683,2.683,0,0,1-1.565-.2c.285-.2.925-.2.711-1,.711.6,1.138.4,2.206.3,0,.3-.071.6.142.6C259.748,19.227,259.677,19.527,259.89,20.427Zm131.477,2.1c-.213.7-.5-.1-.854-.2.5-1.8-1.423-.4-1.921-.9,0-.8.64-1,1.138-1.3a1.9,1.9,0,0,0,1.708.7C391.154,21.027,390.3,22.627,391.368,22.527Zm-142.221-7.2c1.708,0,4.625.2,5.478-2.1a3.91,3.91,0,0,0,2.561.7c.142.3-.071.4-.285.4.071.5.925.1,1.352.2.142-.1.142-.4.142-1.1.711.2.854-.3,1.352-.4.5.1,1,.3.854,1.1,1.352.1,1.209-1.4,2.561-.8-.427,1.1.356.7.5,1.5a2.6,2.6,0,0,0,1.565-.2c0,.5-.711.4-.711.9-3.2-2.1-3.2,2.8-4.98-.5a5.358,5.358,0,0,1-4.625-.1c-.427.1-.213.8-.64.8.213.7,1-.2,1.209.7a2.829,2.829,0,0,0-2.561.6c-.356-.1-.427-.5-.711-.7-1,.9-3.2.7-4.625.1.64-.2,1.352-.3,1.565-1.1Zm34.008-.1c1.281.8,2.846-.3,3.771,1.2-.356.3-1.21,0-.854,1.1-.569.1-.711.6-1.352.2a.789.789,0,0,0-.285.7c.711.7,1.921.4,3.273.5-.64.2-.5.6-.356,1.3a3.137,3.137,0,0,1-1.352-.9c-1.352.9-3.059,0-4.269.4.356-.9,1.779-.7,2.419-1.3.071-.6-.569-.4-.356-1.1h.711c-.711-.5-.783-1.6-1.352-2.1Zm101.525-.3c.711.4,1,0,.854-.9,1.636.4,1.992-.9,3.059.1-.285,1.6.64,1.9,1.067,2.6-.854.5-2.561-.2-3.771.3a.979.979,0,0,0-1.067-.9C384.965,15.527,384.68,15.427,384.68,14.927Zm-64.956.5a.9.9,0,0,0-.5-.6c.427-.4,1.494-.1,1.352-1,.285.5.142.6.854.4-1.067.9,1,1.8-.142,1.9.142.3,1,0,1.423.1.213-.2.213-.7.5-.9-.142-.4-.64-.4-.854-.6,0-.3.5-.2.356-.7a2.207,2.207,0,0,1,1.85.3c.356-.1.427-.4.356-.8h.64c0,.3.071.4.213.4-.711.9.142,1.6-.64,2.1.285.1.356.6.711.7-.142.4-.64.4-.854.6.427,1.7,1.352.6,2.419.9-.925,1.7-2.561.4-3.984.1-.213.1-.285.4-.356.7-.356-.3-1.067-.3-.64.4a.848.848,0,0,0-.854-.2c-.071.4.142.4.356.4-.142.2-.427.2-.356.6-1.067,0-1.138-1.1-1.779-1.6.569-.5,1.067-.9,1.708-.8-.071-1-1.779-.1-1.423-1.6h.64v-.4c-.427-.4-1.281.3-1.494.8a.61.61,0,0,1-.5-.7c.569.2.711-.2,1-.5Zm-56.347,4.3c-.213-.2-.711-.2-.711-.7-.285.3-.711.4-.854.8-.5.1-.356-.6-1-.4a3.385,3.385,0,0,0-.356-1.3c1,.5,1.494-.7,2.348-.2.64-.6.142-1,.356-1.9.64.2.5,1.3.711,2,.711-.5,1.565.2,1.423,1.3a6.73,6.73,0,0,1-1.423,0c-.213-.2-.071-.9-.5-.9-.711.2.142.6,0,1.3Zm-601.894-7.8v-1.3h.5A1.626,1.626,0,0,1-338.517,11.927Zm31.162,0c.427-1.2,1.565,0,2.419,0,.142-.4,1.636-.7,1.494.2C-304.723,12.427-306.288,11.827-307.355,11.927Zm33.865,1.1c.783-1.1,2.206-.8,2.063.9C-272.138,13.227-273.063,13.927-273.49,13.027Zm-174.805-2.2a1.178,1.178,0,0,1,1.209-.4c.071.7-.071,1.2-.5,1.3A2.559,2.559,0,0,1-448.3,10.827Zm88.648,2.6c-.285-1.9,2.632-1.1,1.352.2A4.751,4.751,0,0,1-359.648,13.427Zm-124.292-3.3c.213.6.569.6,1.067.4C-482.73,11.827-484.509,10.527-483.939,10.127Zm68.727,2.3h-.5c-.071-.5,0-.8.5-.7Zm.711.2v.4h.64c.071.5-.285.3,0,.7-.5-.1-1.352.2-1.352-.4C-414.43,13.427-415.426,12.527-414.5,12.627Zm-58.268-.8c.285-.6.711.2,1.209,0v.7A.954.954,0,0,1-472.77,11.827Zm-47.81,2.3c-.142-1.2.142-2.1,1.21-2,.071.3.213.4.285.7A10.729,10.729,0,0,0-520.58,14.127Zm75.343.2v-.4c.356-.4.356.1.854,0C-444.311,14.727-444.809,14.427-445.236,14.327Zm-162.782-3.1a5.012,5.012,0,0,0,3.984-.3c-.071.6.071,1.2-.213,1.5-1.423.4-1.921-1.1-2.7,0,0-.7-.854-.5-1.067-1.2Zm164.347,4.1a.84.84,0,0,1,.356-1.3c.071.3.64.1.5.7-.142.4-.5.5-.854.6Zm-57.628-2c.213-.1.356-.3.711-.2a3.939,3.939,0,0,0,.356.8,1.114,1.114,0,0,1-1.067-.6Zm83.667,1.6c.356-.1.711-.4,1,0,.071.6-.356.6-.854.6A1.377,1.377,0,0,0-417.632,14.927Zm-88.577-.9c-.071-.5.071-.7.356-.8.071.3.213.4.142.8Zm2.775-.5c.569-.1.285.9,1.138.6,0,.5.427.6.356,1.1A2.257,2.257,0,0,1-503.433,13.527Zm-5.905-.1a10.074,10.074,0,0,1,3.273,1.2,1.16,1.16,0,0,0-.356,1.3c-.5,0-.356-.6-.854-.6.071.5-.071.8-.5.7C-507.489,14.327-508.84,14.327-509.339,13.427Zm-59.62-.9c.925.2,2.561-.8,2.561.6-.854-.8-1.85.2-2.205.2.64-.3-.285-.6-.356-.8Zm10.885.8v-.4c.142,0,.142-.2.285-.2,0,.3.5.1.569.4A1.254,1.254,0,0,1-558.073,13.327Zm44.324,2.2c-.071-.8.783-.6.854-1.3-.356,0-.64-.1-.64-.4,1.281-.7,2.134.6,1.494,1.9C-512.753,15.827-513.038,15.427-513.75,15.527Zm-15.652.6c1.281.2,2.348-.1,2.775-1.2a.854.854,0,0,1-1.352-.2c.427-.3.356-1,.711-1.3a2.158,2.158,0,0,0,2.063,0c-.142.5-.213.6.142.9-.285.4-1,.1-1.352,0,.854.7-.071,1.1.356,2.1-.711.1-.356.8-.142,1.3-.5-.1-.569.3-.854.4.142-.4.427-1-.142-1.1-.5.7-1,.3-1.85.7-.5-.8.427-.9-.356-1.6Zm-18.427-2.6c.213-.1.285-.3.64-.2,0,.3.214.4.214.7C-547.544,14.127-547.686,13.827-547.828,13.527Zm-7.043-.1c.5-.3,1.138,0,1.708.2-.142.8-.569,1.5.142,1.9.285-.3.854,0,1.352-.2,0,.6-.569.6-.854.9.427.2.285,1,1.067.9.071.6-.64.2-.214.7-.925.1-.854-1.1-2.205-.6-.285-.7.854,0,.854-.5-.64-.1-.783-.6-1.352-.8A2.034,2.034,0,0,0-554.872,13.427Zm11.881,2.5c.142-1,1.494-.9,1.067-2,.285-.4.64.2,1.067-.2.071.6.64.7.64,1.3-.071.1-.213.2-.142.4-1.21-.3-1.565,1.3-2.632.5Zm-87.3-3.5a1.85,1.85,0,0,1,1.352.4C-629.29,13.027-630.429,13.627-630.286,12.427Zm90.284,4.1c.427-1,2.632-.3,3.059.4.356-1.5,1.636-1.9,2.846-2.4-.285,1,.356.8.783.6.071.4.285.5.5.8a2.734,2.734,0,0,1-1.352-.2c-.569,1-2.775,1.5-3.984,1.8-.285-.1.071-.9-.5-.7-.64-.2-.142.8-.711.7.142-.6-.711-.4-.64-1Zm-24.83-.8a1.985,1.985,0,0,1,.213-1.5c.5.2,1.209.1,1.209.8-.569.1-.5-.3-1.067-.2-.213.6.213.9-.356.9Zm61.47,2.2c.64-1.8-2.134-1.4-2.206,0a1.478,1.478,0,0,1-1-1.1c.213,0,.427,0,.5-.2,0-.3-.213-.4-.213-.7a35.894,35.894,0,0,0,3.913.4c.783.1,1.565-.5,1.565.8-.783.1-.783-.6-1.352-.6-.356.5-.285,1.5-1.21,1.4Zm-21.415-2.4c.569-.1.356.6,1,.4.213,1.2-1,1.1,0,1.7-.5-.2-.64.2-1,.3-.071-.6-.569-.8-.711-1.3C-524.919,16.627-524.564,16.627-524.777,15.527Zm15.225,1.7a2.177,2.177,0,0,1-1.707-.6c.854.4.854-.1,1.565-.3-.142.5.285.5.142.9Zm-37.352-1.4c.5.2.356,0,1,0,0,.3.213.4.213.7-.5-.3-1-.2-1.352-.4.142-.1.213-.2.142-.3Zm-16.435.5c.427-.2,1.138-.6,1.352,0-.64-.1-.213,1.1-.854,1.1-.285-.2-.142-.9-.5-1.1Zm8.537,1.1c.213,1.2-1.281.8-1-.2C-555.3,17.127-555.3,17.527-554.8,17.427Zm13.731,1.3a6.645,6.645,0,0,1,.711,1.3c-.925.1-1.209-.7-1.707,0,.071-.8-.783-.7-.711-1.5.711,0,.925.4,1.707.2Zm7.328.5c-.711-.2-.783,0-1.352.2C-535.307,18.727-533.6,18.627-533.742,19.227Zm64.174,2.7c.213,1,1.921.1,2.063.8-.5-.1-.854-.1-.711.5-.925.3-.64-.8-1.494-.6a2.667,2.667,0,0,1,.356-1.8c1.067.3,2.419-.1,3.13,1.3a3.4,3.4,0,0,1-2.063-.6c-.142.4-1.067-.1-1.281.4Zm-306.994-1.6c.783-.6,1.565.4,2.561.2C-774.5,21.527-776.349,21.127-776.562,20.327Zm209.667,0c.214,0,.5,0,.427.4C-566.824,20.827-566.9,20.627-566.9,20.327Zm0,0Zm55.992-.6c-.711-.1-1.138-.7-1.494-.6.142,0,.142-.3.285-.4C-511.971,19.327-510.761,18.727-510.9,19.727Zm17.929-.8c.071-.1.213-.1.427-.1A.266.266,0,0,1-492.975,18.927Zm-.285,0h.213a.47.47,0,0,0-.071.3A.581.581,0,0,0-493.26,18.927Zm-2.561,1.7c.142-1,.071-1.3-.5-1.7.142-.1.142-.3.142-.6,1.067.1,1.423.3,2.206-.3-.213.8.427.7.711,1a4.039,4.039,0,0,1-1.565.2A16.964,16.964,0,0,0-495.821,20.627Zm-5.407-5.9a2.6,2.6,0,0,0,1.565.2c.071-.8.925-.5.5-1.5,1.352-.6,1.209.9,2.561.8-.142-.8.356-1,.854-1.1.5.1.64.6,1.352.4,0,.6,0,1,.142,1.1.427-.1,1.21.2,1.352-.2-.142-.1-.356-.1-.285-.4a3.8,3.8,0,0,0,2.561-.6c.854,2.2,3.771,2,5.478,2.1.142.7.925.8,1.494,1-1.423.5-3.628.8-4.624-.1-.285.1-.356.6-.711.7a2.829,2.829,0,0,0-2.561-.6c.213-.9,1,0,1.21-.7-.427-.1-.213-.8-.64-.8a5.717,5.717,0,0,1-4.625.1c-1.779,3.3-1.779-1.6-4.98.5,0-.6-.711-.4-.64-.9Zm-19.352,3.6c0-.3-.071-.6-.285-.7-.64.4-.783-.1-1.352-.2.285-1-.5-.8-.854-1.1.925-1.5,2.49-.4,3.771-1.2-.569.6-.64,1.7-1.281,2.2h.711c.213.7-.427.5-.356,1.1.64.6,2.063.3,2.419,1.3-1.209-.4-2.846.5-4.269-.4a2.458,2.458,0,0,1-1.352.9c.071-.7.285-1.1-.356-1.3,1.352-.1,2.561.1,3.2-.6Zm21.059.1c-.427,0-.285.7-.5.9-.711.2-.569,0-1.423,0-.213-1.1.711-1.8,1.423-1.3.213-.7.071-1.8.711-2,.213.9-.213,1.4.356,1.9.854-.5,1.352.7,2.348.2a5.453,5.453,0,0,0-.356,1.3c-.569-.2-.427.5-1,.4-.142-.4-.569-.5-.854-.8.071.5-.427.4-.64.7C-499.592,19.027-498.738,18.627-499.52,18.427Zm-150.047-6.5v-1.3h.5A1.28,1.28,0,0,1-649.567,11.927Zm31.233,0c.427-1.2,1.565,0,2.419,0,.142-.4,1.636-.7,1.494.2C-615.7,12.427-617.267,11.827-618.334,11.927Zm-140.94-1.1a1.178,1.178,0,0,1,1.209-.4c.071.7-.071,1.2-.5,1.3A2.56,2.56,0,0,1-759.274,10.827Zm-35.644-.7c.213.6.569.6,1.067.4C-793.708,11.827-795.487,10.527-794.918,10.127Zm68.727,2.3h-.5c-.071-.5,0-.8.5-.7Zm.711.2v.4h.64c.071.5-.285.3,0,.7-.5-.1-1.352.2-1.352-.4C-725.408,13.427-726.476,12.527-725.479,12.627Zm-58.268-.8c.285-.6.711.2,1.209,0v.7A.954.954,0,0,1-783.748,11.827Zm-47.81,2.3c-.142-1.2.142-2.1,1.209-2,.071.3.213.4.285.7a10.725,10.725,0,0,0-1.494,1.3Zm75.343.2v-.4c.356-.4.356.1.854,0C-755.29,14.727-755.788,14.427-756.215,14.327ZM-919,11.227a5.011,5.011,0,0,0,3.984-.3c-.071.6.071,1.2-.213,1.5-1.423.4-1.921-1.1-2.7,0C-918,11.727-918.783,11.927-919,11.227Zm164.347,4.1a.84.84,0,0,1,.356-1.3c.071.3.64.1.5.7-.142.4-.5.5-.854.6Zm-57.628-2c.213-.1.356-.3.711-.2a3.939,3.939,0,0,0,.356.8,1.05,1.05,0,0,1-1.067-.6Zm83.667,1.6c.356-.1.711-.4,1,0,.071.6-.356.6-.854.6A1.377,1.377,0,0,0-728.61,14.927Zm-88.577-.9c-.071-.4,0-.7.356-.8.071.3.213.4.142.8Zm2.775-.5c.569-.1.285.9,1.138.6,0,.5.427.6.356,1.1A2.257,2.257,0,0,1-814.412,13.527Zm-5.905-.1a10.073,10.073,0,0,1,3.273,1.2,1.16,1.16,0,0,0-.356,1.3c-.5,0-.356-.6-.854-.6.071.5-.071.8-.5.7.213-1.7-1.067-1.7-1.565-2.6Zm-59.62-.9c.925.2,2.561-.8,2.561.6-.854-.8-1.85.2-2.206.2.569-.3-.285-.6-.356-.8Zm10.814.8v-.4c.142,0,.142-.2.285-.2,0,.3.5.1.569.4C-868.483,13.327-868.7,13.327-869.123,13.327Zm305.856,5.2c1.138-.3,2.063.8,2.419-.9-.213-.2-.711-.3-.854-.6.356-.1.427-.5.711-.7-.711-.5.142-1.2-.64-2.1.142-.1.285-.2.213-.4h.64c0,.5.071.8.356.8a2.566,2.566,0,0,1,1.85-.3c-.142.5.356.3.356.7-.213.3-.711.3-.854.6.285.2.285.7.5.9.427-.1,1.281.3,1.423-.1-1.138-.1.925-1.1-.142-1.9.711.1.569.1.854-.4-.142,1,.925.7,1.352,1a.9.9,0,0,0-.5.6c.285.2.427.5,1,.4.071.4-.213.5-.5.7-.142-.5-1-1.2-1.494-.8v.4h.64c.356,1.4-1.352.6-1.423,1.6.64-.1,1.138.3,1.707.8-.64.4-.711,1.6-1.779,1.6.071-.4-.213-.4-.356-.6.213-.1.427-.1.356-.4a1.98,1.98,0,0,0-.854.2c.427-.7-.285-.7-.64-.4-.071-.3-.142-.6-.356-.7a3.487,3.487,0,0,0-1.352.4v.1c-.64.1-.783.8-1.565.7a.637.637,0,0,1,.071-.8c-.427-.1-.925,0-1.138-.4Zm-261.532-3c-.071-.8.783-.6.854-1.3-.356,0-.64-.1-.64-.4,1.281-.7,2.134.6,1.494,1.9-.64.1-.925-.3-1.708-.2Zm-15.581.6c1.281.2,2.348-.1,2.775-1.2a.854.854,0,0,1-1.352-.2c.427-.3.356-1,.711-1.3a2.158,2.158,0,0,0,2.063,0c-.142.5-.213.6.142.9-.285.4-1,.1-1.352,0,.854.7-.071,1.1.356,2.1-.711.1-.356.8-.142,1.3-.5-.1-.569.3-.854.4.142-.4.427-1-.142-1.1-.5.7-1,.3-1.85.7-.5-.8.427-.9-.356-1.6Zm-18.427-2.6c.213-.1.285-.3.64-.2,0,.3.213.4.213.7C-858.522,14.127-858.665,13.827-858.807,13.527Zm-7.115-.1c.5-.3,1.138,0,1.708.2-.142.8-.569,1.5.142,1.9.285-.3.854,0,1.352-.2,0,.6-.569.6-.854.9.427.2.285,1,1.067.9.071.6-.64.2-.213.7-.925.1-.854-1.1-2.206-.6-.285-.7.854,0,.854-.5-.64-.1-.783-.6-1.352-.8C-864.783,14.827-865.281,14.127-865.921,13.427Zm11.952,2.5c.142-1,1.494-.9,1.067-2,.285-.4.64.2,1.067-.2.071.6.64.7.64,1.3-.071.1-.213.2-.142.4-1.209-.3-1.565,1.3-2.632.5Zm2.988.6c.427-1,2.632-.3,3.059.4.356-1.5,1.636-1.9,2.846-2.4-.285,1,.356.8.783.6.071.4.285.5.5.8a2.734,2.734,0,0,1-1.352-.2c-.569,1-2.775,1.5-3.984,1.8-.285-.1.071-.9-.5-.7-.64-.2-.142.8-.711.7.071-.6-.711-.4-.64-1Zm-24.9-.8a1.985,1.985,0,0,1,.213-1.5c.5.2,1.209.1,1.209.8-.569.1-.5-.3-1.067-.2-.142.6.285.9-.356.9Zm61.541,2.2c.64-1.8-2.134-1.4-2.206,0a1.478,1.478,0,0,1-1-1.1c.213,0,.427,0,.5-.2,0-.3-.213-.4-.213-.7a35.894,35.894,0,0,0,3.913.4c.783.1,1.565-.5,1.565.8-.783.1-.783-.6-1.352-.6-.356.5-.285,1.5-1.209,1.4Zm-21.415-2.4c.569-.1.356.6,1,.4.213,1.2-1,1.1,0,1.7-.5-.2-.64.2-1,.3-.071-.6-.569-.8-.711-1.3C-835.969,16.627-835.613,16.627-835.756,15.527Zm15.225,1.7a2.177,2.177,0,0,1-1.708-.6c.854.4.854-.1,1.565-.3C-820.815,16.827-820.459,16.827-820.53,17.227Zm-37.352-1.4c.5.2.356,0,1,0,0,.3.213.4.213.7-.5-.3-1-.2-1.352-.4.142-.1.213-.2.142-.3Zm-45.747,0c-.356.1-.5.7-1.209.5,0-.5-.5-.8-.783-.4v-.5c0-.1,0-.2.142-.2C-905.194,15.527-903.771,15.027-903.629,15.827Zm29.312.5c.427-.2,1.138-.6,1.352,0-.64-.1-.213,1.1-.854,1.1C-874.1,17.227-874.032,16.527-874.317,16.327Zm8.538,1.1c.213,1.2-1.281.8-1-.2C-866.277,17.127-866.277,17.527-865.779,17.427Zm13.731,1.3a6.644,6.644,0,0,1,.711,1.3c-.854.1-1.209-.7-1.708,0,.071-.8-.783-.7-.711-1.5.711,0,.925.4,1.708.2Zm7.328.5c-.711-.2-.783,0-1.352.2C-846.356,18.727-844.578,18.627-844.72,19.227Zm64.174,2.7c.213,1,1.921.1,2.063.8-.5-.1-.854-.1-.711.5-.925.3-.64-.8-1.494-.6a2.667,2.667,0,0,1,.356-1.8c1.067.3,2.419-.1,3.13,1.3a3.4,3.4,0,0,1-2.063-.6c-.142.4-1.067-.1-1.281.4ZM-877.945,20.327Zm.071,0c.213,0,.5,0,.427.4C-877.874,20.827-877.874,20.627-877.874,20.327Zm55.992-.6c-.711-.1-1.138-.7-1.494-.6.142,0,.142-.3.285-.4.142.6,1.281,0,1.209,1Zm15.083.9c.142-1,.071-1.3-.5-1.7.142-.1.142-.3.142-.6,1.067.1,1.423.3,2.206-.3-.213.8.427.7.711,1a4.039,4.039,0,0,1-1.565.2c-.285.5-.783.8-1,1.4Zm2.561-1.7h.213a.47.47,0,0,0-.071.3A.581.581,0,0,0-804.238,18.927Zm.213,0c.071-.1.213-.1.427-.1C-803.6,19.027-803.811,19.027-804.025,18.927ZM-936,21.427v-.5c.142.2.427.2.427.5C-935.644,21.527-935.858,21.427-936,21.427Zm123.794-6.6a2.6,2.6,0,0,0,1.565.2c.071-.8.925-.5.5-1.5,1.352-.6,1.209.9,2.561.8-.142-.8.356-1,.854-1.1.5.1.64.6,1.352.4,0,.6,0,1,.142,1.1.427-.1,1.209.2,1.352-.2-.142-.1-.356-.1-.285-.4a3.325,3.325,0,0,0,2.561-.7c.854,2.2,3.771,2,5.478,2.1.142.7.925.8,1.494,1-1.423.5-3.628.8-4.625-.1-.285.1-.356.6-.711.7a2.829,2.829,0,0,0-2.561-.6c.213-.9,1,0,1.209-.7-.427-.1-.213-.8-.64-.8a5.717,5.717,0,0,1-4.625.1c-1.779,3.3-1.779-1.6-4.98.5C-811.566,15.027-812.277,15.227-812.206,14.827Zm-19.352,3.5c0-.3-.071-.6-.285-.7-.64.4-.783-.1-1.352-.2.285-1-.5-.8-.854-1.1.925-1.5,2.49-.4,3.771-1.2-.569.6-.64,1.7-1.281,2.2h.711c.213.7-.427.5-.356,1.1.64.6,2.063.3,2.419,1.3-1.21-.4-2.846.5-4.269-.4a2.457,2.457,0,0,1-1.352.9c.071-.7.285-1.1-.356-1.3,1.352-.1,2.561.1,3.2-.6ZM-936,16.827v-1.7c.142-.3.5-.4.356-.9,1.067-1.1,1.423.2,3.13-.2-.213,1,.142,1.3.783,1,0,.4-.285.5-.142,1.1a.979.979,0,0,0-1.067.9c-1-.4-2.134-.1-3.059-.2Zm61.612,1.6c1.138-.3,2.063.8,2.419-.9-.213-.2-.711-.3-.854-.6.356-.1.427-.5.711-.7-.711-.5.142-1.2-.64-2.1.142-.1.285-.2.213-.4h.64c0,.5.071.8.356.8a2.566,2.566,0,0,1,1.85-.3c-.142.5.356.3.356.7-.213.3-.711.3-.854.6.285.2.285.7.5.9.427-.1,1.281.3,1.423-.1-1.138-.1.925-1.1-.142-1.9.711.1.569.1.854-.4-.142,1,.925.7,1.352,1a.9.9,0,0,0-.5.6c.285.2.427.5,1,.4.071.4-.213.5-.5.7-.142-.5-1-1.2-1.494-.8v.4h.64c.356,1.4-1.352.6-1.423,1.6.64-.1,1.138.3,1.708.8-.64.4-.711,1.6-1.779,1.6.071-.4-.213-.4-.356-.6.213-.1.427-.1.356-.4a1.979,1.979,0,0,0-.854.2c.427-.7-.285-.7-.64-.4-.071-.3-.142-.6-.356-.7-1.423.3-2.988,1.7-3.984,0Zm64.245.9c.64.1,1.138.1,1.352.6-.356.1-.142.7-.5.8-.213-.5-.854-.6-.854-1.3-.142.1-.213.1-.285.2-.142-.7.711-1.1,0-1.3-.427,0-.285.7-.5.9-.711.2-.569,0-1.423,0-.213-1.1.711-1.8,1.423-1.3.213-.7.071-1.8.711-2,.213.9-.213,1.4.356,1.9.854-.5,1.352.7,2.348.2a5.454,5.454,0,0,0-.356,1.3c-.569-.2-.427.5-1,.4-.142-.4-.569-.5-.854-.8,0,.4-.213.5-.427.4ZM430,20.227v5.8H-936v-4c1.423.1,2.917-.7,4.2.1a1.17,1.17,0,0,0,.142-.9c-1.209,0-2.49.3-2.49-1.7.213,0,.569.1.64-.2-.142-.9-1.423-.9-2.49-.5v-1a7.218,7.218,0,0,0,2.917-.1c.64.8,1.921,1.9,3.059,1.3-.213-.7-1.352-.4-1.352-1.3,1.708.7,4.269-.6,6.688.1-.427,0,.64,1.4.64,1.4.569.2,1.708.3,1.708-1.1a3.062,3.062,0,0,1-1.708-.4c2.134.1,5.194-.9,7.328.1a.675.675,0,0,0,.427-.1c.213-.4.783-.4,1.138-.7-2.348-.5-6.332,0-8.537-.1a2.942,2.942,0,0,0-1.138-1.3c-.142.7.427.5.356,1.1-.925.6-1.423-.1-2.775.3-.356-.1,0-.8-.356-.9-.5.2-1.138,1.2-1.708.7.427,0,0-.8-.142-.9-.64.1-.854-.2-1.209-.4,0,.6-.356.8-.213,1.5h-.854a11.642,11.642,0,0,1,1.067-2.2c-.142-.2-.569-.2-1-.2.213-1.2,1.352,0,1.85-.4.5-1.1,2.063-1,3.13-.5,3.344-1.1,7.257-.1,9.747-.4-.142.5-.783.5-.711,1.3.5.4,1,0,1.423-.2.285.5.142,1.4.783,1.5.071-.7,1.281-.3,1.708-.7.071-.4,0-.6-.285-.7-.64.7-1.565,0-2.419-.2-.213-.4.142-.7-.356-1.1,2.632-.7,5.122,0,8.039-.6.213-.6-.071-.7-.285-.9.427.2.925-.6,1.209,0-.5,0-.569.3-.569.8.711,1,1.423.7,2.561.4.142.7.925.8,1,1.5-.5.1-.213-.7-.64-.6a1.74,1.74,0,0,1-2.561.3c0,.9-1.423.1-1.352,1.1.925.1,2.206-.2,2.063,1-.569.2-1-.2-1.565.3,0,.3-.071.7.142.7a4.556,4.556,0,0,1,3.273.6c1.281-.9,4.34.2,5.122-1.2-.783-.3-2.134-.1-2.917-.4v-.9c.213-.5.569.2.64-.2-.213-.5-1.209-.3-1.138-1.1.5.1.356-.4.569-.7a84.282,84.282,0,0,1,10.387.6c-.213.8-.142,1.4-.711,1.3.356.8,1,1.9.142,2.4,1.565.1,2.134.6,3.771.3-.285-.8-1.067-1-1.708-1.3.356-.8-.285-.9,0-1.3.071.6,1.138.3,1.494.6.213-.1.071-.7.356-.7,0,.6.5.5.711.8.071-.1.356-1,0-1.1-1.21.8-1.565-.7-2.7-.2.5-1.9,2.917.2,4.482-.5.285.3-.142,1,0,1.7.285-.1.854.2.854-.2a2.272,2.272,0,0,1,.213-2.4c-.427,0-.569-.3-.711-.6a3.55,3.55,0,0,0,2.063-.2c.569,4,6.19.7,7.9,1.6-.854.1.142.3.285.4.142.5-.427.3-.071.7.213,0,.427,0,.5.2-.285.1-.64.1-.5.7.783.1.854.5,1.708.2-.142.9.5,1,.285,2-.5.1-.711.6-1.209.7-.356-.3-.071-.7,0-1.1-.854.2-.285-.8-.854-.8.142,1.3-1.138-.2-1.352.5-.285,1.1,1.067.5,1.352,1.1-.427,0,.213.3,0,.7-.427.3-.925-.1-1.209.5,0-.1-.142-.2-.356-.3a1.14,1.14,0,0,1-1.138-.2c.142.3.569.5,0,.7l-1.708-.6a.856.856,0,0,1,.5-.9c-.071.4,0,.7.285.7,1.423.1.64-1.1.711-1.8-1,.2-2.063-.8-2.561.1.356.3-1.209,2.6.854,2.6-1.209,1.8,1.281,1.8,2.561,2.3,0-.9.569-1.6,1.21-1.3a1.65,1.65,0,0,1,.854-1.3c.213.3.64.5.64,1.1-.783-.2-1.138,1.6-.213,1.5a6.125,6.125,0,0,1,.711-1.5c3.059-.1,6.118-1.1,8.609.1-.285-.6.5-.1.5-.5a1.624,1.624,0,0,1-.711-1.5c.285-.1.711.5.854,0,.285-.6-.783,0-.5-.7.071-.1.213-.2.142-.4a4.806,4.806,0,0,0,2.917-.1c-.142,1.1,1.067.8,1.352,1.5.356-.4.569-1.3,1.352-.7-.925-.8.64-1.3.213-1.9-.427,0-1.138.5-1.352-.2.64.1,1.067-.1,1.209-.5.071-.6-.711-.3-.64-.9.285-.5.854.4,1.494.2v-.7c.64-.3,1,.2,1.565.4a1.637,1.637,0,0,0-.427,1.8q.107,0,.213-.3c1.138-.1,1.494.7,2.7.4-.071.7.427,1.3,1.352.9-.142,1-1.565.2-1.067,1.1-.64-.6-1,0-1.352.7,2.419,1.2,5.834.5,8.893,0-.071-.1-.213,0-.213-.2.356.1.569.2.854.1a12.5,12.5,0,0,1,1.779-.3c-.213.5-.142.9.356,1.1,0-1,1-.9,1.565-1.3.142.4.285.8.854.8,0-1.5-.356-1.7-.5-3.3a1.984,1.984,0,0,1,2.206-.3c.427-.3-.285-.6.356-.6.213.1.5,0,.5.2-.427.1.285.3.213.6-.783.6-1.779.5-2.419.9a2.257,2.257,0,0,0,2.561,1.2c.071,4,4.269.6,5.976,2.5,1.209-.9,5.051-.6,6.972-.3.071-.3.356-.4.356-.9l-1.494-.6c-.142-1.2,1.281-.7,1.067-2a27.246,27.246,0,0,1-2.917-.2c1.067-1.2,1.85-2.7,2.988-3.8-.213.8,0,1-.213,1.7,0,.3,1.423.1.854.4-.5.1-1.352-.2-1.565.2v.7a1.809,1.809,0,0,0,2.206-.2,2.571,2.571,0,0,1,.5,1.9c1.067.4,1.85.9,2.063,2.1.071.6-.64.2-.5.8a1.345,1.345,0,0,0,1.85-.2.94.94,0,0,1-.142-.6c-.071,0-.071.1-.285,0,.142-.6-.285-.5-.356-.9.356.2.711.2.854.4a.639.639,0,0,0-.071-.9,5.35,5.35,0,0,0,2.775-.7c-.427-.1-1-.1-1-.6.213-1,1.423-.7,2.063-1.1a14.726,14.726,0,0,0,1.138,2.8c.213-1,1.067-.1,1.352-.2-.427,0-.285.8-.356,1.3-.356,0-.569.1-.64.4-.569,1.3,1.281,1.5,1.494.8-.142-.6,0-.8-.5-1.3,1.423.4,1.992,1.7,2.7,2.8.5-.3.427-1.3,1.209-1.3.213.6.142,1.3.711,1.5,1,.3,2.917.7,2.775-1.6-.427,0-.711-.1-.711-.4.925-.2.925.5,1.565.6.071.3-.213.3-.356.5.783,1.3,1.494,2.8,3.557,2.8a1.507,1.507,0,0,1,1.565-1.3c-1.067-1.2,1.636-1.3,1.067-2.2,1.423.2,3.842.1,4.482-1.6a1,1,0,0,0-.356-.6c-.925-.2-1.067.4-1.352.9-.64-.5-1.992,0-2.846-.5,0,.3.213.4.213.7-.356-.1-.213.5-.711.3-.071-.2-.213-.4-.356-.7.356-.1.356-.5.783-.4a1.523,1.523,0,0,1-.64-1.3c.711-.3,1.209-.5,1.85,0,.142-.8.427-.3,1.209-.5.5.1.427.9,1,.9a14.777,14.777,0,0,1,7.186-1.7,6.548,6.548,0,0,1,.356-1.8c-.142-.4-.285-.7-.854-.6a3.015,3.015,0,0,1-1.423,2.4c-.213-.6-.854-.7-1.352-1,.285-.1.64-.4.356-.7-.569-.3-.142.5-.711.3.427-1-.569-.6-.142-1.6-.356-.1-1.281-.6-1.352,0-.071.5.783,0,.5.6-.213.2-1.352.4-1.565,0,.64.1.569-.7.711-1.1-.427.1-.569.3-.854-.2a.668.668,0,0,0,.5-.7c-.5-.3-1.209-.5-1.494-1.1.569-.6,1,.5,1.494.6.142,0,.569-.4.711-.4.356.1.5.6.64.6.213,0,.64-.6.854-.6,1.423,0,3.2,1.9,4.482.5v.7c.569,0,.925.4,1.209-.2.285.3.142,1,.142,1.5.64-.3.356.2.854.4.142-.5-.213-.5-.142-.9.64,0,.711.5.5,1.1,1.779.6,1.138,2.6,2.561,3.7.711.3.854-.3,1.352-.3-.213.8.356,1.3,0,1.7.711.8,1.992,1,2.348,2.1-.285.1-.711-.5-.854,0a8.592,8.592,0,0,0,.711,1.5c.285-.1.214-.7.854-.5.356,1.3,3.771.9,3.913-.1.071,0,.285,0,.356.1a1.837,1.837,0,0,1,1.779-.1c.142.5-.142.5-.285.6a.218.218,0,0,0,.213.1c.427,0,.854,0,.783-.5a1.569,1.569,0,0,0,1-.2c0,.3-.071.6.142.6v-.5c.356-.1.5.1.711.1.071-.2,0-.3.142-.4a2.309,2.309,0,0,1,1.494.6c.071.5-.5.9.142,1.1.711-.3.142-.9.5-1.5.569.4,1.494.5,1.423-.7-.5-.2-.783.6-.711-.2a2.553,2.553,0,0,1,1.708.2,1.421,1.421,0,0,0,.142,1.5c.64.2.64-.3,1.209-.3.071.9,1,1,1.423,1.6.142,0,.142.1.285.1.285-.3.213-1,.142-1.7-.071-.1,0-.3-.213-.4a4.439,4.439,0,0,1-.64.7,2.673,2.673,0,0,0-2.206-1.3c.285-.9-.427-.8-.427-1.5-.071-.1-.142-.1-.285-.1.071.1.071.2.142.3-.285,0-.285-.2-.5-.3-.142,1.3-1.281.9-2.206,1,.142-.6-.64-.2-.5-.9a6.519,6.519,0,0,1,2.419-.3c-.427-.3-1-.5-1.281-1-.142.3-.569.3-.854.4,0-.8.285-1-.356-1.3-.783.4-1.708-.6-3.059-.2a6.111,6.111,0,0,0-.142,1.3c-1.138,0-1.352-1-2.348-1.1-.356,1.3-1.209-.2-2.063,0-.5.1-.427.8-.854,1.1a1.346,1.346,0,0,0-1.494-1.1c.5-1.6-1.636-.9-1-2.1a2.042,2.042,0,0,1-1.138-.6c.5-1.7-1.138-1.3-1.138-2.6,2.206-.1,3.273,1.7,5.336.1-.285-.6.213-1.1.213-1.5.356.7,1.209.2,1.708,0-.071,1,.925.8,1.352.4-.142.9.783-.1.711.4-.213,0-.356.2-.356.5,1.494.6.64,3-.711,3-.356-.3-.427-.7-1.067-.6-1,1-2.277,1.7-3.415.7-.356,2.4,2.7,1.6,3.771.6,1.636,1.5,3.7.8,4.98,1-.356-1-1.352-1.2-1.708-2.1a4.091,4.091,0,0,1,2.063-.3c-.142-1.1-1.921-.5-2.561-1.1.5-.1.711-.6,1.21-.7.071.8.711-.5,1.707.4-.64,2.2,2.134,1.5,3.913,1.5a1.169,1.169,0,0,1,.142-.9,1.807,1.807,0,0,1-2.063-1.7c1.209-1,2.49-.3,4.126-.5.214.2,0,.8.285.8,1.209-.5,2.063.3,3.059.2.356-.4-.142-.6.142-.9a4.548,4.548,0,0,1,3.273.8c.071.6-.285.6,0,.9a8.638,8.638,0,0,1,1.565-.3c-.5.7.427,1.9-.569,2,0-.4.356-.5.213-1.1-1.352-.7-1.992.1-3.059.1.427.8.142,1-.356,1.6.427.3.783.8,1.494.8a2.159,2.159,0,0,1,1.708-.5c-.071,1.1,1.21-.2,1.21.9.427-.1,1.209.2,1.352-.2.071-.7-.711-.4-.711-1.1a2.045,2.045,0,0,1,1.921-.9c.142.4-.711.5-.214.7.214,0,.214.2.356.2.854-.3.285-1.2,1.209-1.6-.711-.7-1.067-1-.5-1.9.569.1.925.3,1.494,0,.569.6.925,1.3,1.708,1.7-.5,2,2.063,2.8,2.348,1a1.378,1.378,0,0,0,1.921-.9,2.3,2.3,0,0,0-1.21-.2c-.071-1,1.352-.4,1.565-1.1,0-.3-.213-.4-.142-.8-.427,0-.854,0-.854-.4,1.85,1,4.482,0,3.984-2.5,1.281.3,2.917,1.1,3.913.8a1.89,1.89,0,0,0,1.138,1.1c.5,0,.285-.7.711-.7.5,1.2,1.85,1.4,2.917,1.9.5-.8,0-1.7-.142-2.4,1.209.5,1.352.2,2.419-.1.071.3-.213.3-.356.5,1.281.2,1.209,2.9,2.846,2.1a.811.811,0,0,1-1,.9c-.783-1.2-2.205.4-2.632,1.3a2.16,2.16,0,0,0,1.708.4c-.427-.6.569-.9,1.209-.9-.783.7-.5,1.5-1.423,2.2,2.206,1.4,2.632-1.8,4.482-.3.783-1,2.134-.3,2.419-2h1a1.966,1.966,0,0,1,1.921-1.4c.427-1.1,0-1.6.356-2.6.64.3.285-.1.854-.2a36.227,36.227,0,0,0,1,4.8c2.775.2,7.115,1.6,9.107-.8-.711-1.5-3.771-.7-5.336-.8.142-1.4-1.352-1.2-1.992-1.3.427-1.8,3.059-.8,4.126-2.2.285.2,0,1.1.5,1.1.711-.5,1.281.2,1.85.4,0-.5.569-.4,1-.5.64.7,2.134.6,2.419,1.7-.071-.6.427.1.854-.3.569.9.071,1.9,1.209,2.2.356-.2.854-.3.854-.9,1.067.5,1.352-.5,1.921-1.1-2.277-1.2,1.21-2.7,2.277-1.4-.356,1.2,0,1.7,1,1.9v-1.1c.64.1,1.352-1,1.708,0-.356.3-.5.7-1.352.5,0,.9-.5,1.3-.569,2,.427-.1.285.4.64.4.213-.4.285-.9.854-.9.64.2.569,1.2,1.352,1.3,1.209-.7,1.779-.1,2.277-1.8a1.739,1.739,0,0,1,.213-2.2c-1.138-.2-.5-.4-.285-.8-.711.2-1.138,0-1.067-1h.5c-.213.7.5.6.569,1,.071-.1.285-.2.071-.4.711.1.711-.5,1.352-.4,0,.9-.142.9.356,1.3,2.49-1,4.055-.2,6.19-.3-.427-1,.427-1.3-.356-1.9a2.177,2.177,0,0,1,1.209.2c.142.9-.427.9-.356,1.7.64-.1.64-.9,1.352-.9.569.5,0,1.4,1.067.8-.213.8-1.352.8-1.067,1.8a7.041,7.041,0,0,1,4.482-2.3,1.893,1.893,0,0,0,.854,1.1c.925-.3,2.134-1.3,3.273-.5.285-.2.356-.7.711-.9,1.067,0,.925.4,2.134.4-.142,1.4.427,2,.285,3.3-1.281.1-.213,1.6-.569,1.7.783-.2,0-1.1.711-1.1.213-.4.711.5,1,.6a2.11,2.11,0,0,1,1.21-.7c.213.6,1.708,1.1,1.85.2-.213-.2-.64-.2-.64-.6a1.754,1.754,0,0,0,.711-.7c-.5-.1-.64.3-1.138.2a.789.789,0,0,1-.285.5,2.734,2.734,0,0,1-1.352-.2.872.872,0,0,1,1.636-.6c.142-.4,1.067-.2,1.138,0,.711-.8,1.138-1.7,2.206-2,.569.1.285.6.5.7,1.494-1.2,1.636,1.1,2.988,1.4h.285c-.213-.1-.5-.1-.285-.6.925-1,1.921.8,2.7-.1.213.1.285.3.427.4,1.281,0,2.632.1,4.126.1a4.146,4.146,0,0,0,.569-.3c.213.4.569.3.854.4a14.269,14.269,0,0,1,3.2.4,73.375,73.375,0,0,1,8.111.1,2.358,2.358,0,0,0,.213-1.1,4.786,4.786,0,0,1,2.063,0c0,.8.783.8,1.209,1.1,1.209-.7,2.419-.9,3.415.1h1.281a1.424,1.424,0,0,0,.569-.8c.783.1.925.7,1.209,1.2,1.921-.3,4.055-.1,6.047-.5,1-.1,1.565-.5,2.7-.6a3.144,3.144,0,0,0,.854-1.8,30.122,30.122,0,0,0,2.846,2.7c.356.1.711.3.925.1.356-.8,1.281-.5,2.134-.4a2.267,2.267,0,0,0,1.707-.9,8.52,8.52,0,0,0,3.557.3,49.671,49.671,0,0,0,5.478,0c-.142.4-.569.6-.64,1.1.213,0,.427.1.64.1.214-.1.427,0,.64-.1l.071.1a.581.581,0,0,0,.142-.3h-.427c-.213-.4.142-.7-.356-1.1,2.632-.7,5.123,0,8.039-.6.213-.6-.071-.7-.285-.9.427.2.925-.6,1.209,0-.5,0-.569.3-.569.8.5.7,1.138.4,1.779.3v-.1a2.85,2.85,0,0,1,2.7.6c.142.6-.427.3-.5.7.213.3.142.8.64.8a2.2,2.2,0,0,0,0-.7c0-.1-.071-.1-.071-.1.071,0,0-.1.071-.1,0-.1.071-.1,0-.3h.285c0-.1.071-.1.142-.2a77.868,77.868,0,0,1,9.818.5c-.711-.6-1.636,0-1.992-.9.783-1.1,2.206-.8,2.063.9a1.148,1.148,0,0,0,.569.1,1.694,1.694,0,0,1-.5.9,4.842,4.842,0,0,1,2.632.2,3.949,3.949,0,0,1,1.21-.3c-.569-.1-1.067-.6-1.921-.2.427-1.6,2.277-.4,3.771-.5,0-.1-.071-.3-.071-.5a2.308,2.308,0,0,0,1.85-.2v-.1c-.427,0-.569-.3-.711-.6a3.55,3.55,0,0,0,2.063-.2c.569,4,6.119.7,7.9,1.6-.854.1.142.3.285.4.142.5-.5.3-.356.9.214,0,.427,0,.5.2a.579.579,0,0,0-.427.6v.1c.64.2.783.5,1.565.2-.142.9.5,1,.285,2-.427.1-.64.6-1.138.7a1.2,1.2,0,0,0-.854.3c0,.1.071.1,0,.2-.427.3-.925-.1-1.21.5,0-.1-.142-.1-.213-.2a1.014,1.014,0,0,0-1.138-.3h-.142c.5.6,1,.6.854,1.5.64-.2.64.3.783.6.142,0,.142-.2.213-.2a2.371,2.371,0,0,1,.64-.9,5.466,5.466,0,0,1,.5-1.1c2.206-.1,4.2,1.1,6.474.9,1.352-.2,1.708.3,1.992,1,.356,0,.783-.1,1.067.1-.285-.6.5-.1.5-.5a1.624,1.624,0,0,1-.711-1.5c.285-.1.711.5.854,0,.285-.6-.783,0-.5-.7.071-.1.213-.2.142-.4a4.806,4.806,0,0,0,2.917-.1c-.142,1.1,1.067.8,1.352,1.5.356-.4.569-1.3,1.352-.7-.925-.8.64-1.3.213-1.9-.427,0-1.138.5-1.352-.2.64.1,1.067-.1,1.209-.5.071-.6-.711-.3-.64-.9.285-.5.854.4,1.494.2v-.7c.64-.3,1,.2,1.565.4a1.638,1.638,0,0,0-.427,1.8q.107,0,.214-.3c1.138-.1,1.494.7,2.7.4-.071.7.427,1.3,1.352.9-.142,1-1.565.2-1.067,1.1-.64-.6-1,0-1.352.7,3.13,1.4,7.968-.2,11.312-.4-.213.5-.142.9.356,1.1,0-1,1-.9,1.565-1.3.142.4.285.8.854.8,0-1.5-.356-1.7-.5-3.3a1.984,1.984,0,0,1,2.206-.3c.427-.3-.285-.6.356-.6.214.1.5,0,.5.2-.427.1.285.3.213.6-.783.6-1.779.5-2.419.9a2.257,2.257,0,0,0,2.561,1.2c.071,4,4.269.6,5.976,2.5,1.209-.9,5.051-.6,6.972-.3.071-.3.356-.4.356-.9l-1.494-.6c-.142-1.2,1.281-.7,1.067-2a27.245,27.245,0,0,1-2.917-.2c1.067-1.2,1.85-2.7,2.988-3.8-.213.8,0,1-.213,1.7,0,.3,1.423.1.854.4-.5.1-1.352-.2-1.565.2v.7a1.809,1.809,0,0,0,2.206-.2,2.571,2.571,0,0,1,.5,1.9c1.067.4,1.85.9,2.063,2.1.071.6-.64.2-.5.8a1.345,1.345,0,0,0,1.85-.2c-.569-.9.783-1.1,0-2a5.351,5.351,0,0,0,2.775-.7c-.427-.1-1-.1-1-.6.213-1,1.423-.7,2.063-1.1a14.724,14.724,0,0,0,1.138,2.8c.213-1,1.067-.1,1.352-.2-.427,0-.285.8-.356,1.3-.356,0-.569.1-.64.4-.569,1.3,1.281,1.5,1.494.8-.142-.6,0-.8-.5-1.3,1.423.4,1.992,1.7,2.7,2.8.5-.3.427-1.3,1.209-1.3.213.6.142,1.3.711,1.5,1,.3,2.917.7,2.775-1.6-.427,0-.711-.1-.711-.4.925-.2.925.5,1.565.6.071.3-.213.3-.356.5.783,1.3,1.494,2.8,3.557,2.8a1.507,1.507,0,0,1,1.565-1.3c-1.067-1.2,1.636-1.3,1.067-2.2,1.423.2,3.842.1,4.482-1.6a1,1,0,0,0-.356-.6c-.925-.2-1.067.4-1.352.9-.854-.7-3.344.6-3.557-1.9.711-.3,1.21-.5,1.85,0,.142-.8.427-.3,1.209-.5.5.1.427.9,1,.9a14.777,14.777,0,0,1,7.186-1.7,6.549,6.549,0,0,1,.356-1.8c-.142-.4-.285-.7-.854-.6a3.015,3.015,0,0,1-1.423,2.4c-.213-.6-.854-.7-1.352-1,.285-.1.64-.4.356-.7-.569-.3-.142.5-.711.3.427-1-.569-.6-.142-1.6-.356-.1-1.281-.6-1.352,0-.071.5.783,0,.5.6-.213.2-1.352.4-1.565,0,.64.1.569-.7.711-1.1-.427.1-.569.3-.854-.2a.668.668,0,0,0,.5-.7c-.5-.3-1.209-.5-1.494-1.1.569-.6,1,.5,1.494.6.142,0,.569-.4.711-.4.356.1.5.6.64.6.213,0,.64-.6.854-.6,1.423,0,3.2,1.9,4.482.5v.7c.569,0,.925.4,1.209-.2.285.3.142,1,.142,1.5.64-.3.356.2.854.4.142-.5-.213-.5-.142-.9.64,0,.711.5.5,1.1,1.779.6,1.138,2.6,2.561,3.7.711.3.854-.3,1.352-.3-.213.8.356,1.3,0,1.7.711.8,1.992,1,2.348,2.1-.285.1-.711-.5-.854,0a8.588,8.588,0,0,0,.711,1.5c.285-.1.213-.7.854-.5.427,1.3,3.842.9,3.984-.1,1.138.8,2.846,1,4.269,1.5.569-.5,0-1.1.569-1.7a2.309,2.309,0,0,1,1.494.6c.071.5-.5.9.142,1.1.711-.3.142-.9.5-1.5.569.4,1.494.5,1.423-.7-.5-.2-.783.6-.711-.2a2.553,2.553,0,0,1,1.707.2,1.421,1.421,0,0,0,.142,1.5c.64.2.64-.3,1.209-.3.142,1.1,1.423.9,1.708,1.9a2.959,2.959,0,0,0,.213-2.6c-.071.5-.569.6-.854.9a2.673,2.673,0,0,0-2.206-1.3c.285-1.1-.64-.8-.5-1.7.854.1,1.707.1,1.921-.5a2.272,2.272,0,0,0-2.846-1.4,18.117,18.117,0,0,1,.854,2.2c-1.209,0-1.636-.8-2.063-1.5-.142.3-.569.3-.854.4,0-.8.285-1-.356-1.3-.783.4-1.707-.6-3.059-.2a6.107,6.107,0,0,0-.142,1.3c-1.138,0-1.352-1-2.348-1.1-.356,1.3-1.209-.2-2.063,0-.5.1-.427.8-.854,1.1a1.346,1.346,0,0,0-1.494-1.1c.5-1.6-1.636-.9-1-2.1a2.042,2.042,0,0,1-1.138-.6c.5-1.7-1.138-1.3-1.138-2.6,2.206-.1,3.273,1.7,5.336.1-.285-.6.213-1.1.213-1.5.356.7,1.21.2,1.708,0-.071,1,.925.8,1.352.4-.142.9.783-.1.711.4-.213,0-.356.2-.356.5,1.494.6.64,3-.711,3-.356-.3-.427-.7-1.067-.6-1,1-2.277,1.7-3.415.7-.356,2.4,2.7,1.6,3.771.6,1.636,1.5,3.7.8,4.98,1-.356-1-1.352-1.2-1.707-2.1a4.091,4.091,0,0,1,2.063-.3c-.142-1.1-1.921-.5-2.561-1.1.5-.1.711-.6,1.209-.7.071.8.711-.5,1.708.4-.64,2.2,2.134,1.5,3.913,1.5a1.169,1.169,0,0,1,.142-.9,1.807,1.807,0,0,1-2.063-1.7c1.21-1,2.49-.3,4.126-.5.213.2,0,.8.285.8,1.21-.5,2.063.3,3.059.2.356-.4-.142-.6.142-.9a4.548,4.548,0,0,1,3.273.8c.071.6-.285.6,0,.9a3.512,3.512,0,0,1,1.85-.1c-.5.7.427,1.9-.569,2,0-.4.356-.5.213-1.1-1.352-.7-1.992.1-3.059.1.427.8.142,1-.356,1.6.427.3.783.8,1.494.8a2.159,2.159,0,0,1,1.708-.5c-.071,1.1,1.209-.2,1.209.9.427-.1,1.209.2,1.352-.2.071-.7-.711-.4-.711-1.1a2.044,2.044,0,0,1,1.921-.9c.213.4-.711.5-.213.7.213,0,.213.2.356.2.854-.3.285-1.2,1.21-1.6-.711-.7-1.067-1-.5-1.9.569.1.925.3,1.494,0,.569.6.925,1.3,1.707,1.7-.5,2,2.063,2.8,2.348,1a1.378,1.378,0,0,0,1.921-.9,2.3,2.3,0,0,0-1.209-.2c-.071-1,1.352-.4,1.565-1.1,0-.3-.213-.4-.142-.8-.427,0-.854,0-.854-.4,1.85,1,4.482,0,3.984-2.5,1.281.3,2.917,1.1,3.913.8a1.89,1.89,0,0,0,1.138,1.1c.5,0,.285-.7.711-.7.5,1.2,1.85,1.4,2.917,1.9.5-.8,0-1.7-.142-2.4,1.209.5,1.352.2,2.419-.1.071.3-.213.3-.356.5,1.281.2,1.209,2.9,2.846,2.1a.811.811,0,0,1-1,.9c-.783-1.2-2.206.4-2.632,1.3a2.16,2.16,0,0,0,1.707.4c-.427-.6.569-.9,1.209-.9-.783.7-.5,1.5-1.423,2.2,2.206,1.4,2.632-1.8,4.482-.3.783-1,2.134-.3,2.419-2h1a1.966,1.966,0,0,1,1.921-1.4c.427-1.1,0-1.6.356-2.6.64.3.285-.1.854-.2a36.242,36.242,0,0,0,1,4.8c2.775.2,7.115,1.6,9.107-.8-.711-1.5-3.771-.7-5.336-.8.142-1.4-1.352-1.2-1.992-1.3.427-1.8,3.059-.8,4.126-2.2.285.2,0,1.1.5,1.1.711-.5,1.281.2,1.85.4,0-.5.569-.4,1-.5.64.7,2.134.6,2.419,1.7-.071-.6.427.1.854-.3.569.9.071,1.9,1.209,2.2.356-.2.854-.3.854-.9,1.067.5,1.352-.5,1.921-1.1-2.277-1.2,1.209-2.7,2.277-1.4-.356,1.2,0,1.7,1,1.9v-1.1c.64.1,1.352-1,1.707,0-.356.3-.569.7-1.352.5,0,.9-.5,1.3-.569,2,.427-.1.285.4.64.4.213-.4.285-.9.854-.9.64.2.569,1.2,1.352,1.3,1.209-.7,1.779-.1,2.277-1.8a1.739,1.739,0,0,1,.213-2.2c-1.138-.2-.5-.4-.285-.8-.711.2-1.138,0-1.067-1h.5c-.213.7.5.6.569,1,.071-.1.285-.2.071-.4.711.1.711-.5,1.352-.4,0,.9-.142.9.356,1.3,2.49-1,4.055-.2,6.19-.3-.427-1,.427-1.3-.356-1.9a2.177,2.177,0,0,1,1.209.2c.142.9-.427.9-.356,1.7.64-.1.64-.9,1.352-.9.569.5,0,1.4,1.067.8-.213.8-1.352.8-1.067,1.8a7.041,7.041,0,0,1,4.482-2.3,1.894,1.894,0,0,0,.854,1.1c.925-.3,2.134-1.3,3.273-.5.285-.2.356-.7.711-.9,1.067,0,.925.4,2.063.2-.142,1.4.427,2,.285,3.3-1.281.1-.213,1.6-.569,1.7.783-.2,0-1.1.711-1.1.213-.4.711.5,1,.6a2.109,2.109,0,0,1,1.209-.7c.213.6,1.707,1.1,1.85.2-.213-.2-.64-.2-.64-.6,1.281-.5,1.494-2.3,2.917-2.7.569.1.285.6.5.7,1.707-1.3,1.494,2.1,3.415,1.7.071-.5-.64-.2-.5-.8.925-1,1.921.8,2.7-.1,1.067.3,1.209,1.3,1.85,1.7.569-.9,2.348-.8,3.273-1.4.925,1.9,2.632.3,4.269,1.2,0,.9.711,1,2.348,2.4a4.265,4.265,0,0,1,3.486-1.4c-.213.5-.142.7.356.9,1.138,0,1.636-.3,2.561,0a4.8,4.8,0,0,0,.356-2.2,4.786,4.786,0,0,1,2.063,0c0,.8.783.8,1.209,1.1,1.423-.8,2.7-1.2,3.771.2.142-.6.5-.1.854,0a1.3,1.3,0,0,0,.711-.9,1.989,1.989,0,0,1,1.921,1.9c1.921-1.5,4.767-1.5,8.111-1.7a3.144,3.144,0,0,0,.854-1.8c1.067,1.1,2.277,2.1,3.415,3.2,1-.8,3.344,0,4.269-1.6,2.134,1.1,4.126.8,7.043.7.142,1.1,1.779.7,2.7,1,.285-.2,0-1.1.5-1.1a2.95,2.95,0,0,0,2.775.4,9.731,9.731,0,0,0,.5,1.3c-.356.4-.64.3-.356.9,1.138-.1,3.2.3,3.7,1.4.64-.1,1.636.3,1.708-.4a4.65,4.65,0,0,0-1.992-1.5c-.142-1,1-.7.854-1.8a4.553,4.553,0,0,0,1.707-.3,1.554,1.554,0,0,1,.213-.9,2.85,2.85,0,0,1,2.7.6c.142.6-.427.3-.5.7.213.3.142.8.64.8a1.471,1.471,0,0,0,0-1.1c1.138-.2,1.21-.4,1.85,0,.142,1.1.64,2,.285,2.6,1.209.3,1-1,2.063-.9.569.6-.356.9-.356,1.6a1.559,1.559,0,0,0,1.352,1,.9.9,0,0,0,.5-.6c-.285-.7-.925-1-1-1.9,3.557-.2,5.407-1.6,8.253-.4.854-.5,2.561-.1,3.059-.9.071-.3-.142-.4-.142-.7a3.733,3.733,0,0,0,2.561-.3c.569.5-.071,1.3-.213,2,.142,0,.427.1.64.1.427-.4.711-1,1.636-.9.213.7,1,.8,1.707.9.711-.1,1.494-.2,1.707-.9.925-.1,1.209.5,1.636.9.213,0,.5-.1.64-.1-.142-.7-.854-1.5-.213-2a3.682,3.682,0,0,0,2.561.3c0,.3-.213.4-.142.7.5.9,2.206.4,3.059.9,2.846-1.2,4.767.2,8.253.4-.142.9-.711,1.2-1,1.9a.9.9,0,0,0,.5.6,1.559,1.559,0,0,0,1.352-1c.071-.7-.925-.9-.356-1.6,1.067-.1.854,1.2,2.063.9-.356-.7.071-1.5.285-2.6.64-.4.711-.2,1.85,0a1.471,1.471,0,0,0,0,1.1c.427,0,.427-.6.64-.8,0-.3-.64-.1-.5-.7a2.806,2.806,0,0,1,2.7-.6,1.554,1.554,0,0,1,.213.9,4.3,4.3,0,0,0,1.707.3c-.142,1.1,1,.7.854,1.8a5.7,5.7,0,0,0-1.992,1.5c.071.7,1.067.3,1.708.4.427-1.2,2.49-1.6,3.7-1.4.285-.6,0-.5-.356-.9a9.731,9.731,0,0,0,.5-1.3c.854.3,2.348.3,2.775-.4.5,0,.213.9.5,1.1.854-.4,2.561.1,2.7-1,2.917.1,4.909.3,7.043-.7.925,1.6,3.273.8,4.269,1.6,1.138-1.1,2.348-2.1,3.415-3.2a2.761,2.761,0,0,0,.854,1.8c3.344.2,6.19.1,8.111,1.7a2.042,2.042,0,0,1,1.921-1.9,1.9,1.9,0,0,0,.711.9c.356-.1.711-.6.854,0,1.067-1.4,2.419-1,3.771-.2.5-.3,1.209-.3,1.209-1.1a7.128,7.128,0,0,1,2.063,0,4.017,4.017,0,0,0,.356,2.2,21.8,21.8,0,0,1,2.561,0c.5-.2.569-.4.356-.9a3.985,3.985,0,0,1,3.486,1.4c.569-.3,1.352-.4,1.352-1.3,1.707-.9,3.344.7,4.269-1.2.925.6,2.632.4,3.273,1.4.64-.4.783-1.4,1.85-1.7.783.8,1.707-.9,2.7.1.142.6-.569.3-.5.8,1.921.4,1.707-3,3.415-1.7.213-.1-.071-.6.5-.7,1.423.4,1.636,2.2,2.917,2.7,0,.4-.427.4-.64.6.142.9,1.636.4,1.85-.2a1.69,1.69,0,0,1,1.209.7c.285-.1.783-1,1-.6.711,0-.071.9.711,1.1-.356-.1.711-1.6-.5-1.7-.142-1.2.5-1.9.285-3.3,1.138.2,1-.2,2.063-.2.356.2.427.7.711.9,1.138-.8,2.348.2,3.273.5a1.894,1.894,0,0,0,.854-1.1,6.607,6.607,0,0,1,4.482,2.3c.285-1-.854-.9-1.067-1.8,1.138.5.5-.3,1.067-.8.711,0,.711.8,1.352.9.071-.8-.5-.9-.356-1.7a2.3,2.3,0,0,1,1.209-.2c-.854.7,0,.9-.356,1.9,2.134.1,3.7-.6,6.19.3.5-.4.427-.4.356-1.3.64-.1.64.5,1.352.4-.213.2,0,.3.071.4.071-.4.783-.3.569-1h.5c.071,1-.356,1.2-1.067,1,.213.4.783.5-.285.8a1.739,1.739,0,0,1,.213,2.2c.5,1.7,1.067,1.1,2.277,1.8.783-.1.711-1.1,1.352-1.3.569,0,.64.5.854.9.356,0,.142-.5.64-.4-.142-.7-.64-1.1-.569-2-.783.3-1-.2-1.352-.5.356-.9,1.067.1,1.708,0v1.1c1-.2,1.352-.7,1-1.9,1.138-1.3,4.624.2,2.277,1.4.569.6.854,1.6,1.921,1.1,0,.6.5.7.854.9,1.138-.3.64-1.2,1.209-2.2.427.3.854-.4.854.3.285-1.1,1.779-.9,2.419-1.7.356.1,1-.1,1,.5.5-.2,1.138-1,1.85-.4.5,0,.213-.8.5-1.1,1.067,1.4,3.7.4,4.126,2.2-.64.1-2.063-.1-1.992,1.3-1.565.1-4.624-.7-5.336.8,1.992,2.4,6.4,1,9.107.8a27.573,27.573,0,0,0,1-4.8c.64.1.213.5.854.2.285,1-.071,1.5.356,2.6a1.966,1.966,0,0,1,1.921,1.4h1c.285,1.7,1.636,1,2.419,2,1.85-1.5,2.277,1.7,4.482.3-.925-.6-.64-1.5-1.423-2.2.64,0,1.565.3,1.209.9a2.16,2.16,0,0,0,1.708-.4c-.5-.9-1.85-2.5-2.632-1.3-.64.1-.925-.3-1-.9,1.636.7,1.494-1.9,2.846-2.1-.142-.1-.356-.1-.356-.5,1.067.2,1.209.5,2.419.1-.071.7-.64,1.6-.142,2.4,1.067-.5,2.49-.8,2.917-1.9.427,0,.213.7.711.7a1.6,1.6,0,0,0,1.138-1.1c1,.3,2.561-.5,3.913-.8-.5,2.5,2.134,3.5,3.984,2.5,0,.4-.427.4-.854.4.071.4-.142.5-.142.8.213.7,1.636.1,1.565,1.1a2.3,2.3,0,0,0-1.209.2,1.359,1.359,0,0,0,1.921.9c.213,1.7,2.775,1,2.348-1,.783-.4,1.138-1.1,1.707-1.7.5.3.925.1,1.494,0,.569.9.213,1.3-.5,1.9.925.3.285,1.2,1.209,1.6.142,0,.142-.2.356-.2.427-.1-.427-.2-.213-.7a2.121,2.121,0,0,1,1.921.9c0,.6-.854.4-.711,1.1.071.5.925.1,1.352.2,0-1.1,1.281.3,1.209-.9a2.352,2.352,0,0,1,1.707.5c.711,0,1-.5,1.494-.8-.427-.6-.783-.7-.356-1.6-1.067.1-1.636-.8-3.059-.1-.142.6.213.7.213,1.1-1.067-.1-.071-1.3-.569-2a6.925,6.925,0,0,1,1.494.3c.285-.3-.071-.3,0-.9,1-.4,1.921-1.1,3.273-.8.285.3-.285.5.142.9,1,.1,1.85-.7,3.059-.2.285-.1.071-.7.285-.8,1.565.2,2.846-.5,4.126.5a1.807,1.807,0,0,1-2.063,1.7,1.17,1.17,0,0,1,.142.9c1.779,0,4.553.7,3.913-1.5,1-.9,1.636.4,1.707-.4.5.1.711.6,1.209.7-.64.6-2.419,0-2.561,1.1.711-.2,1.067,0,2.063.3-.356,1-1.352,1.1-1.707,2.1,1.352-.2,3.344.5,4.98-1,1.067,1,4.126,1.9,3.771-.6-1.138,1-2.419.3-3.415-.7-.64-.1-.783.3-1.067.6-1.352-.1-2.206-2.4-.711-3a.487.487,0,0,0-.356-.5c-.071-.5.854.5.711-.4.356.4,1.423.6,1.352-.4.5.2,1.352.7,1.707,0,.071.4.569.9.213,1.5,2.134,1.6,3.2-.2,5.336-.1.071,1.3-1.565.8-1.138,2.6a2.042,2.042,0,0,1-1.138.6c.64,1.2-1.494.5-1,2.1a1.312,1.312,0,0,0-1.494,1.1c-.356-.3-.356-1-.854-1.1-.854-.2-1.707,1.2-2.063,0-1,.1-1.209,1.1-2.348,1.1a3.485,3.485,0,0,0-.142-1.3c-1.281-.4-2.277.6-3.059.2-.711.3-.356.5-.356,1.3-.285-.1-.711-.1-.854-.4-.5.7-.854,1.5-2.063,1.5.356-.6.427-1.6.854-2.2a2.4,2.4,0,0,0-2.846,1.4c.213.5,1.067.5,1.85.5.142.9-.854.6-.5,1.7a2.673,2.673,0,0,0-2.206,1.3c-.285-.3-.783-.4-.854-.9a1.355,1.355,0,0,0,.285,1.7c.285-1,1.565.1,1.636-1,.569-.1.569.4,1.209.3a1.421,1.421,0,0,0,.142-1.5,2.553,2.553,0,0,1,1.707-.2c.071.8-.213,0-.711.2-.071,1.2.854,1.1,1.423.7.285.6-.213,1.2.5,1.5.64-.2.071-.5.142-1.1a2.309,2.309,0,0,1,1.494-.6c.569.6,0,1.2.569,1.7,1.423-.5,3.13-.7,4.269-1.5.142,1,3.486,1.4,3.913.1.64-.2.569.3.854.5a5.39,5.39,0,0,0,.711-1.5c-.142-.6-.569.1-.854,0,.356-1.2,1.636-1.3,2.348-2.1-.356-.4.213-.9,0-1.7.5,0,.64.5,1.352.3,1.423-1,.783-3,2.561-3.7-.213-.5-.142-1,.5-1.1.071.4-.285.4-.142.9.5-.2.213-.8.854-.4,0-.5-.142-1.2.142-1.5.285.6.64.2,1.209.2v-.7c1.352,1.4,3.059-.6,4.482-.5.213.1.64.6.854.6.142,0,.285-.6.64-.6.142,0,.569.4.711.4.427-.2.925-1.2,1.494-.6-.285.6-1,.8-1.494,1.1-.071.4.285.6.5.7-.285.4-.427.3-.854.2.142.4.071,1.2.711,1.1-.213.3-1.352.2-1.565,0-.285-.7.569-.2.5-.6,0-.6-1-.1-1.352,0,.427,1-.569.5-.142,1.6-.569.3-.142-.5-.711-.3-.285.3.071.5.356.7-.5.4-1.138.4-1.352,1a3.015,3.015,0,0,1-1.423-2.4.822.822,0,0,0-.854.6,6.548,6.548,0,0,1,.356,1.8,15.163,15.163,0,0,1,7.186,1.7c.569,0,.5-.8,1-.9.783.1,1.067-.3,1.209.5.569-.5,1.138-.3,1.85,0-.213,2.5-2.7,1.1-3.557,1.9-.213-.5-.427-1.1-1.352-.9a2.658,2.658,0,0,0-.356.6c.64,1.8,3.059,1.8,4.482,1.6-.569.9,2.134,1,1.067,2.2.64,0,1.636-.4,1.85.5,2.063,0,2.49-.6,3.273-2-.142-.1-.356-.1-.356-.5.64-.1.64-.9,1.565-.6-.071.3-.285.4-.711.4-.142,2.3,1.779,1.9,2.775,1.6.64-.2.569-.9.711-1.5.783.1.711,1,1.209,1.3.711-1.1,1.281-2.4,2.7-2.8-.5.5-.356.7-.5,1.3.213.7,1.992.5,1.494-.8,0-.3-.213-.4-.64-.4,0-.5.142-1.3-.356-1.3.285.1,1.067-.7,1.352.2a21.553,21.553,0,0,0,1.138-2.8c.711.4,1.921.2,2.063,1.1,0,.6-.569.5-1,.6a5.716,5.716,0,0,0,2.775.7c-.783.8.569,1,0,2a1.248,1.248,0,0,0,1.85.2c.142-.7-.5-.3-.5-.8.213-1.2,1.067-1.7,2.063-2.1a2.935,2.935,0,0,1,.5-1.9,1.809,1.809,0,0,0,2.206.2v-.7c-.213-.5-1.067-.1-1.565-.2-.569-.3.854-.1.854-.4-.213-.7,0-.9-.213-1.7,1.138,1.1,1.921,2.6,2.988,3.8a27.246,27.246,0,0,1-2.917.2c-.213,1.3,1.209.8,1.067,2a3.663,3.663,0,0,1-1.494.6c-.071.4.285.6.356.9,1.85-.3,5.692-.6,6.972.3,1.707-1.9,5.905,1.6,5.976-2.5a2.387,2.387,0,0,0,2.561-1.2c-.64-.4-1.565-.3-2.419-.9-.071-.3.711-.5.213-.6,0-.2.285-.2.5-.2.64,0-.071.3.356.6.925-.5,1.352-.2,2.206.3-.142,1.6-.5,1.9-.5,3.3h.071a.883.883,0,0,0,.783-.7c.285.2.356.4.64.5.427-.1.854-.1,1.281-.2,0-.1.071-.1.071-.2.142,0,.427.1.569.1a6.412,6.412,0,0,1,1.921-.3c.142.3.213.4.285.6.783.1,1.494.2,2.277.3.213-.1.213-.4.427-.7a1.084,1.084,0,0,0-1.352.4c-1.067,0-1.281-.9-2.277-.9a7.752,7.752,0,0,1,.5-2c-1.209-.4-2.561-.8-2.988-1.5a4.751,4.751,0,0,1-1.352.2c.142-.3.427-.4.5-.8.427.1,1.067.3.783-.6,1.281.5,2.49,1,2.846,2.4,0-.1.213-.1.285-.2a6.068,6.068,0,0,0,.213-.7c1.138-.4,1.352-1.8,3.059-1.7a.715.715,0,0,0,.285-.6c.427.5.783-.2,1.067.2-.356.9.285,1.1.711,1.6a19.564,19.564,0,0,0,3.557-.3c-.142-.7-.854-1.5-.213-2,.427.1.854,0,1.209.1.213,0,.285.1.356.1.285,0,.569.2,1,.1,0,.3-.213.4-.142.7.5.9,2.206.4,3.059.9a9.8,9.8,0,0,1,1.636-.1,2.26,2.26,0,0,0,.071-1.4,2.87,2.87,0,0,1,1.281-.2c.285-1,1.138-1.2,1.779-.4-.285.6-.854.5-1.423.6a3.56,3.56,0,0,0-.213,1.2c.285.1.64-.1.925,0,.427-.2,1.138-.1,1.067-.8.285.5.142.6.854.4-.356.2-.142.5-.071.7.5.1,1,.2,1.636.3-.142-.2-.5-.3-.711-.5,0-.3.5-.2.356-.7a2.207,2.207,0,0,1,1.85.3c.356-.1.427-.4.356-.8h.64c0,.3.071.4.213.4-.569.6-.356,1.2-.5,1.6.285.2.5.5,1.067.4-.356-.7.071-1.5.285-2.6.64-.4.711-.2,1.85,0a1.007,1.007,0,0,0,0,.8c.071,0,.071-.1.142-.1v.2a1.394,1.394,0,0,0,.5-.5c0-.3-.64-.1-.5-.7a2.374,2.374,0,0,1,2.206-.5c.5-.3,1.352-.1,2.063-.2-.071.2-.925.4-.356.7a5.019,5.019,0,0,0-1.138-.4,1.378,1.378,0,0,1,.142.6,4.3,4.3,0,0,0,1.707.3c-.071.3.142.4.213.5,1.921.3,3.771.4,4.055-1.9.854.2,1.067.5,2.063.2-.142.3-.285.6-.711.6.142.2,0,.4.071.6.569,0,1.281.2,1.494-.2.213,0,.213.3.213.5.925,0,1.707.1,2.49.1.213-.1.569-.1.569-.4,2.917.1,4.909.3,7.043-.7.213.4.64.3.925.5,1.565-.1,3.13-.1,4.553-.1a23.469,23.469,0,0,0,2.134-2,2.9,2.9,0,0,0,.64,1.4c.925.2,1.636.5,2.277-.4,0-.5-.071-.8-.569-.8.285-.5.783.2,1.209,0-.142.2-.427.3-.285.9,2.7.6,5.051.1,7.47.6.071,0,0-.1.071-.1,0,.1.071.1.071.1H87.5c-.213.1-.142.3-.142.4.142.1.142.3.285.4.142,0,.213.1.356,0-.213-.1-.285-.4-.356-.6a14.17,14.17,0,0,0,2.063,0,2.771,2.771,0,0,1,1.281,0H92.7c.356-.1.783-.2.783-.7a7.128,7.128,0,0,1,2.063,0,3.858,3.858,0,0,0,.213,1,9.938,9.938,0,0,1,1.708.2c.427-.2.783.2,1.281.2,0-.1.142-.1.071-.2.356,0,.5.2.783.3.356.2.854-.1,1,.2.427.3,1.636-.9,1.85.3a1.468,1.468,0,0,0-1,.2c.071,0,.071.1.071.1.213.1.64.1.783.3.142-.1.142-.2.213-.2v-.1c.64.4,1,0,.854-.9h.213c0-.1.142,0,.142-.1,1.708-.9,3.344.7,4.269-1.2.854.6,2.206.6,2.988,1.3h.427c.5-.5.711-1.3,1.708-1.6.783.8,1.708-.9,2.7.1.142.6-.569.3-.5.8,1.921.4,1.708-3,3.415-1.7.213-.1-.071-.6.5-.7,1.423.4,1.636,2.2,2.917,2.7,0,.1-.071,0-.142.1,1.352-.1,2.561-.1,3.913-.1-.071,0,0-.1-.071-.1-.142-1.2.5-1.9.285-3.3,1.138.2,1-.2,2.063-.2.356.2.427.7.711.9,1.138-.8,2.348.2,3.273.5a1.894,1.894,0,0,0,.854-1.1,6.607,6.607,0,0,1,4.482,2.3c.285-1-.854-.9-1.067-1.8,1.138.5.5-.3,1.067-.8.711,0,.711.8,1.352.9.071-.8-.5-.9-.356-1.7a2.177,2.177,0,0,1,1.21-.2c-.854.7,0,.9-.356,1.9,2.134.1,3.7-.6,6.19.3.5-.4.427-.4.356-1.3.64-.1.64.5,1.352.4-.213.2,0,.3.071.4.071-.4.783-.3.569-1h.5c.071,1-.356,1.2-1.067,1,.213.4.783.5-.285.8a1.739,1.739,0,0,1,.213,2.2c.5,1.7,1.067,1.1,2.277,1.8.783-.1.711-1.1,1.352-1.3.569,0,.64.5.854.9.356,0,.142-.5.64-.4-.142-.7-.64-1.1-.569-2-.783.3-1-.2-1.352-.5.356-.9,1.067.1,1.708,0v1.1c1-.2,1.352-.7,1-1.9,1.138-1.3,4.624.2,2.277,1.4.569.6.854,1.6,1.921,1.1,0,.6.5.7.854.9,1.138-.3.64-1.2,1.21-2.2.427.3.854-.4.854.3.285-1.1,1.779-.9,2.419-1.7.356.1,1-.1,1,.5.5-.2,1.138-1,1.85-.4.5,0,.213-.8.5-1.1,1.067,1.4,3.7.4,4.126,2.2-.64.1-2.063-.1-1.992,1.3-1.565.1-4.624-.7-5.336.8,1.992,2.4,6.4,1,9.107.8a36.251,36.251,0,0,0,1-4.8c.64.1.213.5.854.2.285,1-.071,1.5.356,2.6a1.966,1.966,0,0,1,1.921,1.4h1c.285,1.7,1.636,1,2.419,2,1.85-1.5,2.277,1.7,4.482.3-.925-.6-.64-1.5-1.423-2.2.64,0,1.565.3,1.21.9a2.16,2.16,0,0,0,1.708-.4c-.5-.9-1.85-2.5-2.632-1.3-.64.1-.925-.3-1-.9,1.636.7,1.494-1.9,2.846-2.1-.142-.1-.356-.1-.356-.5,1.067.2,1.21.5,2.419.1-.071.7-.64,1.6-.142,2.4,1.138-.5,2.49-.8,2.917-1.9.427,0,.213.7.711.7a1.6,1.6,0,0,0,1.138-1.1c1,.3,2.561-.5,3.913-.8-.5,2.5,2.134,3.5,3.984,2.5,0,.4-.427.4-.854.4.071.4-.142.5-.142.8.213.7,1.636.1,1.565,1.1a2.3,2.3,0,0,0-1.209.2,1.359,1.359,0,0,0,1.921.9c.213,1.7,2.775,1,2.348-1,.783-.4,1.138-1.1,1.708-1.7.5.3.925.1,1.494,0,.569.9.213,1.3-.5,1.9.925.3.285,1.2,1.21,1.6.142,0,.142-.2.356-.2.427-.1-.427-.2-.213-.7a2.121,2.121,0,0,1,1.921.9c0,.6-.854.4-.711,1.1.071.5.925.1,1.352.2,0-1.1,1.281.3,1.209-.9a2.352,2.352,0,0,1,1.708.5c.711,0,1-.5,1.494-.8-.427-.6-.783-.7-.356-1.6-1.067.1-1.636-.8-3.059-.1-.142.6.213.7.213,1.1-1.067-.1-.071-1.3-.569-2a6.925,6.925,0,0,1,1.494.3c.356-.3-.071-.3,0-.9,1-.4,1.921-1.1,3.273-.8.285.3-.285.5.142.9,1,.1,1.85-.7,3.059-.2.285-.1.071-.7.285-.8,1.565.2,2.846-.5,4.126.5a1.807,1.807,0,0,1-2.063,1.7,1.169,1.169,0,0,1,.142.9c1.779,0,4.553.7,3.913-1.5,1-.9,1.636.4,1.708-.4.5.1.711.6,1.209.7-.64.6-2.419,0-2.561,1.1.711-.2,1.067,0,2.063.3-.356,1-1.352,1.1-1.708,2.1,1.352-.2,3.344.5,4.98-1,1.067,1,4.126,1.9,3.771-.6-1.138,1-2.419.3-3.415-.7-.64-.1-.783.3-1.067.6-1.352-.1-2.206-2.4-.711-3a.487.487,0,0,0-.356-.5c-.071-.5.854.5.711-.4.356.4,1.423.6,1.352-.4.5.2,1.352.7,1.707,0,0,.4.5.9.142,1.5,2.134,1.6,3.2-.2,5.336-.1.071,1.3-1.565.8-1.138,2.6a2.043,2.043,0,0,1-1.138.6c.64,1.2-1.494.5-1,2.1a1.312,1.312,0,0,0-1.494,1.1c-.356-.3-.356-1-.854-1.1-.854-.2-1.708,1.2-2.063,0-1,.1-1.21,1.1-2.348,1.1a3.486,3.486,0,0,0-.142-1.3c-1.281-.4-2.277.6-3.059.2-.711.3-.356.5-.356,1.3-.285-.1-.711-.1-.854-.4-.5.7-.925,1.5-2.063,1.5.071-.1.071-.2.142-.3a3.125,3.125,0,0,1-.427.6.771.771,0,0,0-.285,1,2.673,2.673,0,0,0-2.206,1.3c-.285-.3-.783-.4-.854-.9a2.959,2.959,0,0,0,.213,2.6c.285-1,1.636-.8,1.707-1.9.569-.1.569.4,1.21.3a1.421,1.421,0,0,0,.142-1.5,2.553,2.553,0,0,1,1.708-.2c.071.8-.213,0-.711.2-.071,1.2.854,1.1,1.423.7.285.5.071.9.427,1.2h.142c.213-.2.071-.5.142-.9a2.309,2.309,0,0,1,1.494-.6c.569.6,0,1.2.569,1.7a39.083,39.083,0,0,0,3.842-1.4c-.285,0-.5-.2-.783-.2.5-1.6,3.273-.1,3.913-.8,0,0,0,.1.071.1.427,0,.854-.1.925-.5-.142-.4-.854-.1-1.138-.3h-.142a3.326,3.326,0,0,1-1.992.6c.213-.5.569-.5.925-.7-1.21-.1-2.419-.3-3.771-.4-.142-.7,1.281-.8,1.352-.2,1.423-1.2,4.055-.6,5.336-.5.071.6-.356.6-.64.8a2.348,2.348,0,0,1,.285,1.5c-.427,0-.569.1-.711.3a.82.82,0,0,1,.356.4c.071,0,.285,0,.356-.1.64-.2.569.3.854.5a5.391,5.391,0,0,0,.711-1.5c-.142-.6-.569.1-.854,0,.356-1.2,1.636-1.3,2.348-2.1-.356-.4.213-.9,0-1.7.5,0,.64.5,1.352.3,1.423-1,.783-3,2.561-3.7-.213-.5-.142-1,.5-1.1.071.4-.285.4-.142.9.5-.2.213-.8.854-.4,0-.5-.142-1.2.142-1.5.285.6.64.2,1.209.2v-.7c1.352,1.4,3.059-.6,4.482-.5.213.1.64.6.854.6.142,0,.285-.6.64-.6.142,0,.569.4.711.4.427-.2.925-1.2,1.494-.6-.285.6-1,.8-1.494,1.1-.071.4.285.6.5.7-.285.4-.427.3-.854.2.142.4.071,1.2.711,1.1-.213.3-1.352.2-1.565,0-.285-.7.569-.2.5-.6,0-.6-1-.1-1.352,0,.427,1-.569.5-.142,1.6-.569.3-.142-.5-.711-.3-.285.3.071.5.356.7-.5.4-1.138.4-1.352,1a3.015,3.015,0,0,1-1.423-2.4.822.822,0,0,0-.854.6,6.548,6.548,0,0,1,.356,1.8,15.163,15.163,0,0,1,7.186,1.7c.569,0,.5-.8,1-.9.783.1,1.067-.3,1.209.5.569-.5,1.138-.3,1.85,0-.213,2.5-2.7,1.1-3.557,1.9-.213-.5-.427-1.1-1.352-.9a2.657,2.657,0,0,0-.356.6c.071.3.427.3.569.5a7.659,7.659,0,0,1,1.494.2c.142.5-.213.5-.356.7a8.963,8.963,0,0,0,2.775.2c-.427.7.783,1,.925,1.7.142.2.285.5.64.5.142-.6-.569-.2-.356-.9,1.352-.5,2.063.4,3.273.8.5-.6,1.352-.7,1.708-1.4-.142-.1-.356-.1-.356-.5.64-.1.64-.9,1.565-.6-.071.3-.285.4-.711.4-.142,1.9,1.138,1.9,2.134,1.7.071-.3.427-.1.427-.5a.248.248,0,0,0,.356,0,4.6,4.6,0,0,0,.5-1.1c.783.1.711,1,1.209,1.3.711-1.1,1.281-2.4,2.7-2.8-.5.5-.356.7-.5,1.3.213.7,1.992.5,1.494-.8,0-.3-.213-.4-.64-.4,0-.5.142-1.3-.356-1.3.285.1,1.067-.7,1.352.2a21.561,21.561,0,0,0,1.138-2.8c.711.4,1.921.2,2.063,1.1,0,.6-.569.5-1,.6a5.715,5.715,0,0,0,2.775.7c-.783.8.569,1,0,2a1.248,1.248,0,0,0,1.85.2c.142-.7-.5-.3-.5-.8.213-1.2,1.067-1.7,2.063-2.1a2.935,2.935,0,0,1,.5-1.9,1.809,1.809,0,0,0,2.206.2v-.7c-.213-.5-1.067-.1-1.565-.2-.569-.3.854-.1.854-.4-.213-.7,0-.9-.213-1.7,1.138,1.1,1.921,2.6,2.988,3.8a27.248,27.248,0,0,1-2.917.2c-.213,1.3,1.209.8,1.067,2a3.664,3.664,0,0,1-1.494.6c-.071.4.285.6.356.9a13.2,13.2,0,0,1,2.988-.3c-.142-.1-.213-.2-.427-.2,0-.3.285-.4.213-.7.5-.2.5.2.854.3a2.3,2.3,0,0,0-.285.6,6.386,6.386,0,0,1,3.628.5c1.707-1.9,5.905,1.6,5.976-2.5a2.386,2.386,0,0,0,2.561-1.2c-.64-.4-1.565-.3-2.419-.9-.071-.3.711-.5.213-.6,0-.2.285-.2.5-.2.64,0-.071.3.356.6.925-.5,1.352-.2,2.206.3a26.417,26.417,0,0,0-.5,3.3.986.986,0,0,0,.854-.8c.569.4,1.494.4,1.565,1.3.5-.2.569-.6.356-1.1a44.741,44.741,0,0,1,4.625.6c-.285,0,0-.7-.356-.6.142-.3.569-.3.854-.4-.071.3-.5.3-.356.9-.071.1-.071.1-.142.1,2.419.4,4.838.6,6.688-.3-.285-.7-.64-1.3-1.352-.7.569-.9-.854-.1-1-1.1.925.5,1.423-.1,1.352-.9,1.209.3,1.565-.5,2.7-.4,0,.1.142.2.213.3a1.638,1.638,0,0,0-.427-1.8c.569-.2.925-.7,1.565-.4v.7c.64.2,1.138-.7,1.494-.2.071.6-.711.3-.64.9.142.4.569.6,1.209.5-.142.7-.854.2-1.352.2-.427.6,1.209,1.2.213,1.9.783-.6.925.3,1.352.7.285-.7,1.494-.4,1.352-1.5a5.717,5.717,0,0,0,2.917.1c-.071.3,0,.4.142.4.285.7-.783,0-.5.7.142.6.569-.1.854,0a1.744,1.744,0,0,1-.711,1.5c-.071.4.783-.2.5.5,2.561-1.1,5.549-.2,8.609-.1a3.345,3.345,0,0,1,.711,1.5c.854,0,.5-1.7-.213-1.5,0-.5.427-.7.64-1.1.5.2.711.8.854,1.3.569-.3,1.138.4,1.21,1.3,1.281-.5,3.771-.6,2.561-2.3,2.063,0,.5-2.3.854-2.6-.5-.8-1.565.2-2.561-.1.071.7-.711,1.8.711,1.8.285,0,.356-.3.285-.7.356.1.427.5.5.9l-1.708.6c-.569-.1-.142-.4,0-.7-.427.3-.5.3-1.138.2a.4.4,0,0,0-.356.3c-.356-.6-.783-.2-1.209-.5-.213-.4.5-.7,0-.7.285-.5,1.636,0,1.352-1.1-.213-.6-1.494.8-1.352-.5-.569,0,0,1.1-.854.8.071.4.356.7,0,1.1-.569-.1-.711-.6-1.209-.7-.213-1,.427-1.1.285-2,.854.3,1-.1,1.708-.2.142-.6-.213-.5-.5-.7,0-.2.285-.2.5-.2.142-.6-.5-.3-.356-.9.071-.2,1.138-.4.285-.4,1.779-.9,7.328,2.5,7.9-1.6.854.2,1.067.5,2.063.2-.142.3-.285.6-.711.6a2.272,2.272,0,0,1,.213,2.4c0,.4.64.1.854.2.142-.8-.213-1.4,0-1.7,1.565.7,3.984-1.4,4.482.5-1.138-.6-1.494.9-2.7.2-.427.1-.142,1,0,1.1.213-.3.783-.3.711-.8.285,0,.142.6.356.7.356-.4,1.352,0,1.494-.6.285.4-.427.5,0,1.3-.64.3-1.423.5-1.708,1.3,1.565.3,2.206-.2,3.771-.3-.854-.5-.142-1.6.142-2.4-.569,0-.569-.5-.711-1.3a57.54,57.54,0,0,1,10.387-.6c.142.2,0,.7.5.6.071.8-.925.6-1.138,1.1,0,.4.427-.2.64.2v.9c-.783.3-2.206,0-2.917.4.783,1.4,3.842.3,5.123,1.2a5.121,5.121,0,0,1,3.273-.6c.213,0,.071-.4.142-.7-.569-.4-1-.1-1.565-.3-.142-1.3,1.138-.9,2.063-1,.071-1-1.352-.2-1.352-1.1a1.74,1.74,0,0,1-2.561-.3c-.427,0-.071.8-.64.6.142-.7.854-.8,1-1.5,1.138.3,1.85.6,2.561-.4,0-.5-.071-.8-.569-.8.285-.5.783.2,1.209,0-.142.2-.427.3-.285.9,2.917.6,5.407-.1,8.039.6-.5.4-.142.7-.356,1.1-.854.2-1.779.9-2.419.2-.285,0-.356.3-.285.7.427.4,1.565-.1,1.708.7.64-.1.5-1,.783-1.5.427.2,1,.7,1.423.2.071-.8-.569-.8-.711-1.3,2.419.3,6.4-.7,9.747.4,1.067-.5,2.632-.6,3.13.5.427.3,1.565-.9,1.85.3a1.468,1.468,0,0,0-1,.2,11.638,11.638,0,0,1,1.067,2.2h-.854c.142-.7-.213-.9-.213-1.5-.427.2-.569.5-1.21.4-.213.1-.569.8-.142.9-.5.5-1.209-.5-1.708-.7-.356,0-.071.8-.356.9-1.352-.4-1.921.3-2.775-.3-.071-.6.5-.4.356-1.1a2.623,2.623,0,0,0-1.209,1.3c-2.206.1-6.19-.5-8.537.1.356.2.925.3,1.138.7a.675.675,0,0,0,.427.1c2.134-1,5.194,0,7.328-.1a3.062,3.062,0,0,1-1.708.4c0,1.4,1.138,1.3,1.708,1.1.071-.1,1.067-1.4.64-1.4,2.419-.8,4.98.6,6.688-.1,0,.8-1.138.6-1.352,1.3,1.138.3,2.419-.8,3.059-1.6,2.419.6,4.624,0,6.688.3,0,1-.64,1.3-1,1.9-.783-.2,0-1.1-.854-1.3-.356.3-.213,1.1-.711,1.3.213-1.5-3.486-1.9-3.771-.5,0,.3.427.2.64.2,0,2-1.281,1.7-2.49,1.7a1.169,1.169,0,0,0,.142.9c1.565-.9,3.344.7,4.98-.1,0,.6.64.4.5,1.1.854,0,2.063-.4,2.419.5.285-.6,1.423-.4,1.708-1-.071-.2-1,.1-1.352-.2,0-1.1.711-1.4,1-2.2,1.138-.2,2.134-.4,2.917.3,1.423-1.4,4.909-.3,6.688-1-.356.6-.142.7-.356,1.3a38.489,38.489,0,0,1-4.838.1,2.654,2.654,0,0,0-.356.6c.569.3,2.063,0,2.7,0,.783,1.1,2.49,1.4,3.486,2.3.213-.2.427-.3.5-.6-.427-.6-1.281-.7-1.708-1.3a10.378,10.378,0,0,0,3.771-.8c-.854-.8-.925.2-2.419-.3a.929.929,0,0,0-.711-.9c.711-.6,2.49.6,3.059-.4-1.281-1-3.13.2-4.7-.8,0-.4.285-.5.356-.9.64-.2.64.4,1.067.5a45.781,45.781,0,0,1,12.166-.6c.142.7-.854.2-.711.9.427.4,1.494-.2,2.206.7.64-.7,3.415-.7,3.984.3.925,0,2.063-.6,2.917-.2.142.6-.569.3-.711.6-.142.5.5.3.356.9,1.636-.7,4.2-.2,6.119-.8Z" transform="translate(936 -9)" fill="#fff"/>
</svg>
