<svg xmlns="http://www.w3.org/2000/svg" width="62.46" height="59.861" viewBox="0 0 62.46 59.861">
  <g id="checkmark" transform="translate(-0.001 -0.014)">
    <path id="Path_8487" data-name="Path 8487" d="M53.875,30.215l-1.4-3.971L37.4,41.32a7.8,7.8,0,0,1-11.039,0L15.3,30.259A7.806,7.806,0,1,1,26.342,19.22l5.54,5.538L46.727,9.914l-1-2.837-.46-2.753A5.147,5.147,0,0,0,37.194.98L29.962,6.216,22.649.967a5.145,5.145,0,0,0-8.057,3.352l-1.416,8.814L4.31,14.606A5.147,5.147,0,0,0,.969,22.681L6.2,29.913.953,37.226a5.146,5.146,0,0,0,3.352,8.057L13.119,46.7l1.473,8.864a5.144,5.144,0,0,0,8.075,3.344L29.9,53.673l7.294,5.236a5.148,5.148,0,0,0,8.073-3.339l1.418-8.814,8.864-1.473a5.145,5.145,0,0,0,3.344-8.075Zm0,0" transform="translate(0 0)" fill="#14d76f"/>
    <path id="Path_8488" data-name="Path 8488" d="M163.013,75.887a2.6,2.6,0,0,1-1.84-.762l-11.06-11.06a2.6,2.6,0,0,1,3.68-3.68l9.22,9.22,26.136-26.136a2.6,2.6,0,0,1,3.68,3.68L164.853,75.124A2.6,2.6,0,0,1,163.013,75.887Zm0,0" transform="translate(-131.131 -37.484)" fill="#111310"/>
  </g>
</svg>
