<svg xmlns="http://www.w3.org/2000/svg" width="392" height="69.936" viewBox="0 0 392 69.936">
  <g id="g4" transform="translate(0 0.036)">
    <path id="path2" d="M17.4,7.4c-.9.2-.7-1.9-1.5-2.1-.3,0-.1.8-.5.6C13.6,4,10.3,7,7.6,6.5c.2,1-.5.3-.3,1.2,2.3-.9,6.5.6,10.1-.3ZM54,5.4c-1.7.2-2,.5-3.6-.2V6.4c1.2.2,3,.7,3.6-1ZM6.4,7.5c-1.1.2-2-.8-2.4,1A1.89,1.89,0,0,0,6.4,7.5ZM69.7,5.6c.8,1.1,1-1.1,1.4-.1,0-.5.4-.3.3-.9-.5.2-1.5-.3-1.7.4.2.1.1.4,0,.6ZM1.8,8.9c-.5-.1-.7.6-.9,1h.8a1.553,1.553,0,0,1,.1-1Zm21.8-.2c0-1-2.1-.9-2.1.1C22.2,8.1,22.7,9,23.6,8.7Zm110.9-.2c.3-.3.3-1.1.6-1.5.4,1.3.4.5.9,0,.3,1.1-.4.6-.3,1.5.1.6.9-.1.9.6a7.587,7.587,0,0,0,.1,3c2.7-.5,5.3-.2,8.5-.3a9.388,9.388,0,0,1,.8-3.3,2.367,2.367,0,0,1,2,.2c-.1-1.6,1.4-.3,1.3-1.8-1.5-.2-3.7-2.6-5.4-.4a5.064,5.064,0,0,1-2.2-1.7c-1.3,2.1-2.9-.2-4,1.4-.6.3-.3-1.4-.9-1.2-1.4,2.4-2.8.7-4.9,1.1A8.73,8.73,0,0,1,133.1,9c.7-.6.7-1.5,1.4-.5Zm3.1-.2c.5-.2.9,1.2.5,1.8A1.886,1.886,0,0,1,137.6,8.3Zm-110.8,3c0-1-.9-.5-1-1.5,0,1.7-1,.5-1.6.7C24.7,12.7,25.7,11.5,26.8,11.3Zm198.6-5c0-1.5,1.3-.7,2.1-1-.7-1.9,1.3-.8,1.7-1.5-.8-2.6-4.3,1.1-5.3-1.6.1,1.3-1,.5-1,1.5.3-.1.5.2.5.9-.3,1-1.5-1-1.5,1C223.1,6.6,224.2,4.5,225.4,6.3ZM180.9,9.6c.4-2.7,2.8-.5,4.1-1.4.1,1.2.9,1.1,1.4,1.4-.3-1.2-.1-2.9.8-2.7-1.6-2.6-4.7-2.9-7.2-1.2a7.115,7.115,0,0,0-.2,3.3c.6-.2.7.6,1.1.6Zm31.3-2.8c-.2-1.6.9-1.2,1.1-2.7-.8-.5-1.9-1.5-2.3.4-.4-.7-1.1-1.1-1.7-.5,0,1.6.7,1.7.9,2.9a13.4,13.4,0,0,1,2-.1ZM208,4.9c-.4-.3.2-.8-.2-1.2a1.092,1.092,0,0,0-.7,1.2C207.4,4.8,207.9,5.7,208,4.9Zm31.7.8c.3-.8,1,.6,1-.6a1.44,1.44,0,0,1-.8-1.4c-.5-.1-.5.6-1,.3.3-.6-.1-.6-.2-1.2h-.5c0,.4-.2.6-.1,1.2a2.482,2.482,0,0,1,1.6,1.7Zm-51,.6c-.2-1.5-.8-.2-1.3-1.1,0,.7.1,1.2.4,1.4,0-.7.7-.1.9-.3Zm10.8.4c.9,0,1.1,1.7,1.9,2,1.2.5,2.6-1.3,4-1.4a24.246,24.246,0,0,1,0-2.7c-.6.2-.7-.5-1.4-.2-.3.2.1,1.4-.2,1.5-1.2-.1-3.3-1.9-3.9-.1.2,0,.4-.1.4.3-.3.7-.5,0-.6-.6-.6,0,.2.9-.2,1.2Zm34.8-3.2c-.2-.4-.9-.5-.9.3C233.7,4.5,234.2,4.4,234.3,3.5ZM243,5.8c.8,0,1.4.3,2.1-.4-.5-.3-.3-2.3-1-2.3-.1.8.4,1.7.1,1.8-.1-.6-.6-.2-.5-1.2-.4.8-1-.5-1.3.3.6,0,1,.9.6,1.8Zm17.3-2.7c-.7-.4-1.8-.8-2.2.7C258.7,4.4,260.1,4.7,260.3,3.1Zm59.6-1c.6-.9,1.7,0,2.3-.4-.1-.9-.5-1-.7-1.7-.9-.3-1.1,1.4-1.9.6.2.5,0,1.6.3,1.5ZM256.3,3.2c-.5-.2-.3-.2-.7,0v.9C256,4.3,256.2,3.8,256.3,3.2Zm15.2-.6a2.091,2.091,0,0,0-2.3,1.6C270.3,3.5,270.7,4.1,271.5,2.6Zm-9.2,3.1c.6-.1,1.6-2.8,1.7-1,.6-1,2.3.7,2-1.6-1.4.9-3.7-.9-5,.2a5.273,5.273,0,0,1,1.5,1.1c-.1.6-.6.6-.2,1.3Zm16-3.4c-.6-.1-1,1-.7,1.8.7.1.5-1.2.7-1.8Zm7.3,3.9c0-1.6,2-1.7,2.1-.1.9.1,3.5-.2,1.8-2.4-.3.5-.5,1.1-1,1.2a1.5,1.5,0,0,1-.5-1.2c0-.6.4-.4.2-1.2-.6.3-.5.1-1.2,0,.2.8.5,1.3.2,1.8-.7.3-1.2-1.5-.7-2-.5-.4-.4.1-1,0a5.276,5.276,0,0,1-1,3C285,5.3,284.9,6.7,285.6,6.2Zm16.3-3.3c-.5-.3-.4-1.7-1.1-1.4C300.3,2.6,301.6,3.8,301.9,2.9Zm2.5-1.3c-.9-.3-1.9-.4-2.3.4a2.24,2.24,0,0,0,2.3-.4ZM248.5,3.8a2.428,2.428,0,0,0,0,1.2c-.4.8-1,.2-1.6.9A17.178,17.178,0,0,1,249.8,7c.2-1.7-.9-2.1-1.3-3.2Zm27,1.9c0-1.1.5-1.1.5-2.1-.2-.6-.4-1-.9-.9.1.7-.6,1.4-.2,1.8,0-.3.2-.4.3,0-.4,1.1-.8-.7-1.3-.2C273.8,6.6,275,5.1,275.5,5.7Zm22-2.9c.1-.5.4-.5.6-.9-.6.4-1.1-.1-1.5.3C296.9,2.4,297.1,2.9,297.5,2.8ZM217,6.3c-.6.1-.5-1.2-1.1-.9C215.9,6.5,216.9,7.5,217,6.3Zm19.4,1c.1-.5-.5-1.2-.1-1.5a3.651,3.651,0,0,0,2.6-.7c-1.1-.7-3.1,0-4.1.7C235.1,7.1,235.8,7.1,236.4,7.3Zm15.5-1.2c3.5,1.5,6.9.5,10-.1-2.2-1.9-5.7.9-7.8-.6-.2.2,0,1.1-.2,1.2.1-1.5-.8-.7-1.2-.8,0-.7.3-.9-.1-1.4-.1-.3-1-.6-1,0C252.4,4.2,252,5.2,251.9,6.1ZM326,1.3c-.4.4-1.2.2-1.1,1.5C325.4,2.5,326,2.4,326,1.3Zm1.5,1.1c-.1-1-.7-.5-.9-1.1C326.6,2.5,327,2.5,327.5,2.4ZM187.9,7.8c.4.9,1.1,1,1.6,1.7,0-.6-.2-.6-.3-.9,0-.4.2-.4.1-.9-.7.7-1.1-.3-1.4.1ZM292,4.7c.5.1.5-1.4.1-1.5C292.3,4.1,291.9,4,292,4.7Zm24.7.2c-.2-.9.2-.9.4-1.2,0-1.3-1.4-2.3-1.2-.2.4.3.7-.9.9,0-.3.9-1.1,0-1.4,1.2.5-.2.7.4,1.3.2Zm19.2-3.4c-.8-.5-1,1.2-1.3.1.1.7-.4.3-.4.9.7-.2,1.7.2,1.7-1Zm-67,4.8c.5.1.5-.5,1-.3-.1-.8-.4-1.3-.8-1.4.2,1-.5.5-.2,1.7Zm15.2-.7c-.2,0-.1-.4.1-.3-.1-.8-.3-1.3-.8-1.2-.2.8.4,2.4.7,1.5Zm15.4-.9a1.952,1.952,0,0,0,.7-.1C300,4.6,299.8,4.7,299.5,4.7Zm4.2.1c-.7-2.1-2.1-.5-3.5-.2C301.4,4.7,302.3,5.7,303.7,4.8Zm7.6,0c0-.8-.1-1.5-.4-1.7.3,2.1-1,.4-.9,1.5.3.2.7-.1,1.3.2Zm33.1-1c.3-.4,1.1,0,.9-1.2-.8.3-1.4-1.6-2.1-.5C343.5,3.3,344.4,1.4,344.4,3.8Zm-40.6,1c.6.1.9-.2,1-.9C304.4,3.3,303.7,3.7,303.8,4.8Zm-4.9-.4a26.224,26.224,0,0,0-2.9.1C296.3,6.7,298.4,5.2,298.9,4.4Zm61-.7c0-.3-.1-.8.1-.9,1,1,1.5,1,2.4,2,0-1.2.6-1.3,1.1-.9a3.4,3.4,0,0,1,.1-1.5c-1.3-2.3-2.4,2.2-3.8-.1-.1.4-.6.1-.6.6.3,0,.3.7.7.8ZM312.5,4.8c0-.8-.4-.7-.6-.8C311.8,4.9,312.3,5.2,312.5,4.8Zm34-1.1a4.868,4.868,0,0,0-.1-1.2h-.7c0,1.1.3,1.3.8,1.2Zm3,1.6c.3-.4-.2-.7.1-.9.6.1,1.2,1.9,1.6.5a15.545,15.545,0,0,1-.8-2.3c-.1.3,0,1.1-.4.9,0-.7-.1-1.1-.4-1.2-.1.7-1.1-.1-1.3.6a12.915,12.915,0,0,1,.3,2.3,2.769,2.769,0,0,0,.9.1ZM146.7,11.2c.4.1,1.1,1.2,1.2,0C147.5,11.4,147,10.4,146.7,11.2Zm13.4.4c.6.7,2.9,1.2,3.2-.4C162,11.3,160.6,9.6,160.1,11.6ZM353.7,2.8c-.2,0-.2-.4-.5-.3,0,.4-.2.6-.1,1.2C353.6,3.8,353.8,3.6,353.7,2.8Zm5.3-.5c-.4,0-.9-.1-.8.6C358.6,2.9,359.1,3,359,2.3Zm7.7.2c-.4.3-.5-.4-.8-.5a4.245,4.245,0,0,0-.6,1.5C365.8,3.2,366.6,3.4,366.7,2.5ZM163.8,11.8c1.1.3,2.4,1.2,3.4-.1C166.1,10.2,164.6,10.3,163.8,11.8ZM329.1,4.7h.9C330,3.5,329.1,4.2,329.1,4.7ZM14.3,18.2c.7,0,1.3.1,1.4-1C15.5,17.9,14.3,17,14.3,18.2ZM172.8,12c.3-.1.7-.2.6-1.2h-.6Zm.9-.4a.584.584,0,0,0,1.1-.3c-.1-.1-.2-.2-.2-.6q-.75,0-.9.9Zm3.2.2c0-1.6-1.2-.6-1.9-.8C175.3,12.8,176.3,11.7,176.9,11.8Zm3.5-1a1.606,1.606,0,0,0,2.8.5C182.3,10.8,181.3,11,180.4,10.8Zm5.3.1a1.4,1.4,0,0,0-1.2.9C185.2,11.5,185.8,12.7,185.7,10.9Zm2.9.1c.2.4,1.1.5,1-.3C189.1,11.1,188.8,10.6,188.6,11ZM381.8,4.5h.3c.2-.6,0-.4-.1-1.2h-.3C381.8,4.2,381.5,4,381.8,4.5ZM239,11.3c.4.5,1.2,0,1.5-.6C239.9,9.9,239.3,10.3,239,11.3Zm-63.7,2.4c.3,0,.2.8.6.6,0-.4.2-.6.1-1.2-.4-.1-.7-.1-.7.6Zm6-.6c0,.8.3,1,.7.9C182.1,13,181.7,13,181.3,13.1Zm-12,1.1c.1,1.3.3.6.8.6C170.1,13.9,169.5,13.7,169.3,14.2Zm14.7-.3c.5-.1.6-.4,1.1,0C185.2,12.9,183.7,13,184,13.9Zm74.2-3.4c-.2,1.3.8,1.1.8.3A.63.63,0,0,0,258.2,10.5Zm-53.7,4c.5-.1,1.2,0,1.2-1C205.2,13.8,204.5,13.6,204.5,14.5Zm115.6-2.7c-.3-1.3-1-1.8-1.5-2.9-.1,1,.3,4.6,1.5,2.9Zm62.3-4.1c.1-1.3-1.3-1.1-1.3-.2C381.6,7.5,382.2,7.2,382.4,7.7ZM280.3,12.9a.856.856,0,0,0-1.7-.2C279.2,12.7,279.9,13.5,280.3,12.9Zm9.3.7c-.1-1.3.9-.5,1-1.5-.1,0-.2-.2-.2-.6-.7.3-.8.4-1.3.6A3.706,3.706,0,0,0,289.6,13.6Zm17.6-2.5c-.5-.8-1.4.5-1.9.1C305.6,12.7,307,12.5,307.2,11.1Zm2.1.5c-.3-.2-.6-1.2-.9-.6C308.2,12.1,309.2,12.2,309.3,11.6Zm7.6-.3c.2.4,1,.5,1-.4C317.5,11.1,317,10.2,316.9,11.3Zm17.8,2.5c.5.2.1-1.2.7-.9.1.9.6.8.8,1.4a4.757,4.757,0,0,1,.5-1.8c.6.2.8-.3,1.3-.4a2.514,2.514,0,0,0,2.6,2.2c0-1.1.1-2,.8-2.1-.1-1.9-1.3-.9-1.9-.8-1.3-1.9-3.4-.5-4.9.2a17.732,17.732,0,0,0,.1,2.2ZM361,9.5c-.3.5-1.2,0-1.4.6C360.2,10,360.9,10.8,361,9.5Zm-35.3,2.6c.1-.8-.8-1.2-.9-.5C325.1,11.8,325.2,12.4,325.7,12.1ZM366.2,11c-.2-1.3-.8-1.4-1.5-1.4C364.8,11.6,365.4,10.5,366.2,11Zm1.1,4c.2.2.4.4.7.3.1-2.4,1.8-.7,2.2-2.7-.3-.5-.6.1-.9.4-.2-.7-.6-.8-.5-2-.3-.1-.4-.6-.8-.5-.2.7,0,1.9-.5,2a4.6,4.6,0,0,0-4.6.5c-.8-1.8-3.2-1.3-2.6,2.2,1.1-.1,1.3.7,2.3-.1,0-.7-.3-.6-.2-1.4.6.1,1.3-.2,1.1,1.4.5-.9.3.2,1.2,0a2.107,2.107,0,0,1,.6-1.5c.2.4.7.4.9.8-.2,0-.3.2-.4.6a1.093,1.093,0,0,0,1.3.5,1.981,1.981,0,0,0-.5-1.7c.4,0,1-.3,1,.5-.3-.2-.4.1-.3.7Zm-102.1.8c.8-.4,1.2.1,1.7-.7C266.2,15.1,265.4,14.6,265.2,15.8Zm115-.2c-.3.1-.2-.8-.5-.9,0,.4-.2.5-.2.9C379.5,15.8,380.1,16.3,380.2,15.6ZM294,24.3a3.253,3.253,0,0,0,.1-1.5c-.7-.4-1.1.9-.7,1.5C293.5,23.5,293.7,24.6,294,24.3ZM387.7,22c.4-.7,1.1-.8,1.3-1.8-.2,0-.2-.5-.2-.9-.5-.3-.4.7-.8.6-.1-1.1-.6-1-1.1-1.1a3.171,3.171,0,0,0,0,1.7c.3.4.9.2.8,1.5Zm2.8-1.6c.5-.2,1.5.4,1.5-.7C391.3,19.7,390.6,18.5,390.5,20.4Zm-163.4,8c-.5.1-1,.2-1.2,1C226.3,30,227,29.2,227.1,28.4Zm162.4-4.5c0,2.4-1.6.6-2.2,2.1a11.155,11.155,0,0,1,0,2.6,1.823,1.823,0,0,1,1.3,2.3c.6.1,1-.3,1.4-.6a4.868,4.868,0,0,0-.1-1.2c-.2-.6-.9.1-1-.5.7-1.4,2.1.2,2.1-2.4-.6-.3-.9-1.5-1.5-2.3Zm-3.5.7c.1.4-.1,1.5.2,1.4,0-.9.4-.4.7-.3a4.868,4.868,0,0,0-.1-1.2,1.949,1.949,0,0,1-.8.1ZM272.8,37.7c-.6-.6-.9.2-1.3.6C272.1,38.3,272.7,38.4,272.8,37.7ZM16.2,50.6c-.3,2.5,2.5,1.9,2.9,1.4-.6-1.6-.3-.5.1-1.8-.5-.3-1-.2-1.9-.2C17.6,51.4,16.4,50.9,16.2,50.6Zm210.3-9c.6.2.7-.4.7-1.2C226.8,40.4,226.7,41.1,226.5,41.6Zm-37.1,1.1c-.4,0-.5.5-.6.9.5-.2.3.8.8.6C189.6,43.4,189.3,43.5,189.4,42.7Zm-14.9,1.8c0-.5-.3-.7-.6-.6a3.536,3.536,0,0,1-.1,2.1c.5-.1,1,1.1,1.1,0C174.3,45.6,174.2,45.5,174.5,44.5Zm.9-.3c0,1.3,1,.3.9-.3C175.9,43.9,175.5,43.9,175.4,44.2Zm91.1-4.5c-.9.3-1.2,1.8-1.8,2.8.8.8,2.3-.1,3-.7C267.4,40.9,266.4,41.5,266.5,39.7ZM10.6,53.3a3.36,3.36,0,0,0,.5-1.6c-1.8-.2-1.9,3.5-3.9,2-.3.3-.3,1-.6,1.3-1.4-.9-2,1.3-2.7,2,3.3-1.6,5.8-.3,8.3-2.5A1.934,1.934,0,0,1,10.6,53.3Zm379-18.6a1.5,1.5,0,0,0-.8,1.5C389.4,36.3,389.7,35.8,389.6,34.7ZM269.2,42.9c-.2-.9-.2-2.3-.9-2.3a4.151,4.151,0,0,0,0,2.7C268.8,43.4,268.8,42.9,269.2,42.9Zm.7-.6c.6.1.3-1.4,1-.9C270.7,39.7,269.8,41,269.9,42.3Zm63.3-1.8c.3-1.5,1.3-.3,1.8-1a3.153,3.153,0,0,0-1-2c-.2,1.3-.8.6-1.7.9,0,1.5.3,2,.9,2.1Zm-43.1-.7a4.868,4.868,0,0,0,.1,1.2c.5.1,1.1,1,1.4.5a4.868,4.868,0,0,0-.1-1.2C290.9,40.7,290.8,39.7,290.1,39.8Zm100.2-3.7c.4,0,.8,0,.7-.9C390.7,35.5,390.2,35.2,390.3,36.1ZM287.1,40.9c.4.1.6,1.2.9.6v-.9c-.5.1-.8-.8-.9.3Zm-64.2,4.4c-.2-.6-.3-1.5-.7-1.8-.5.6-.9,1.9-1.6,1.3.1,1.1.2,2,.7,2.4.3-.9-.3-1.1-.1-1.5.4.8,1.1,1.7,1.5,1.4-.1,1.1,0,3.5.8,3.5.3-1.3-.3-1.9-.4-3.6a1.778,1.778,0,0,0,.3-2.4c.3,1-.2.6-.5.7Zm71.3-4.8a.984.984,0,0,0-.8-.3C293.4,41.2,294.2,41.5,294.2,40.5Zm44.2-.3a1.99,1.99,0,0,0-1.3-2c-.4,1.5-.4,4.8,1.4,4.4,0-1.2-.9-.4-.8-1.7,0-.7.4-.7.7-.7ZM228.1,43.6a8.613,8.613,0,0,0,.2,2.7c.4.2.4-.4.7-.3C229,44.6,228.8,43.6,228.1,43.6Zm96-3.8c-.2-.1-.3-.5-.4-.6-.1,1.2-.8-.3-1,.6.6.1.7,1.3,1.2,1.7-.3-1.1.3-.8.2-1.7Zm3.5.4a1.326,1.326,0,0,1,1.4,1.7c.5-.4.3.8.8.5.5-.6,2.9-.5,1.7-3C330.9,40.5,328.2,37.5,327.6,40.2ZM16.2,53.7c.2,1-.5.3-.3,1.3.7-.4,1.4.5,1.8-.1C17.8,53.4,16.6,54.4,16.2,53.7Zm140.2-6.2c-.7-.3-.8.5-.9,1.2.2.4.7.3,1.1.3.1-.9-.2-.8-.2-1.5ZM339,40.2c.2,2.3,2.4,1.9,1.5.8.2-.3.2-.8.6-.9.1.7.6,1.2.9.6,0-1.1-.6-.7-.5-1.7a3.7,3.7,0,0,0-2.5,1.2ZM187.6,47.6c-.1-.6.4-1.3-.2-1.2-.1,1.5-.3,1-1,.9a4.931,4.931,0,0,0,.1,2.4c1.6-.6,2.6,1.1,3-1.6-.5-.4-1.4.3-1.9-.5ZM238.2,44c-.2.2,0,1.1-.2,1.2-.7.3-.6-1.3-1.4-.8-.3.1-.3.8-.6.9.2,1,.4,2.1,1.3,1.7-.8.8-.1,2.7-.8,3.3.5.1.7.8,1.4.5.2-.8.3-1.6,1-1.5.1-1.5-.5-2.6,0-3.3h1c-.2-1.2-.7-2.3-1.7-2Zm81.4-3.2c.1,1.6,1.4,1.7,2,1.1C321.3,40.7,320.2,40.2,319.6,40.8ZM19.5,54.7c-.3,0-.3.4-.6.3-.2.9.8.8.8.3-.2,0-.3-.2-.2-.6Zm153.4-6.8c.1,1.8,1.9,1.1,1.2-.3C174,48.3,173.3,47.8,172.9,47.9Zm10.9,1.6c.6-.3,1.7-1.7,1-2.5A14.466,14.466,0,0,0,183.8,49.5Zm47.1-3.6a5.419,5.419,0,0,0,.2,1.5c.6-.1,1-.4.8-1.8C231.5,45.5,231.1,45.4,230.9,45.9Zm11.7-.9c-.2.2-.2.9-.6.9,0,.7.3,1.1.6,1.2.2-.6.6-1.9,0-2.1Zm148.1-6.9a.55.55,0,0,0-.5.3c-.1.9.7,1.2.8.5C390.7,38.9,390.7,38.5,390.7,38.1ZM266,44.8c0,1.1.6.7.5,1.8-.2.1-.6-.1-.6.3.2.4.7.3,1.1.2-.1-1.2.4-1.5.3-2.7C266.9,43.8,266.4,44.5,266,44.8Zm86.2-1.1c0,.4,0,1,.3.9,0-1.5.4-3-.1-4.1-.4.1-.9.2-1,.9a5.28,5.28,0,0,1,.3,2.4c-.4.2-.4-.5-.9-.2.2,2-1.6.5-1.7,2.1.5.2.5.6.4,1.5a7.569,7.569,0,0,0,1.5-.1,2.5,2.5,0,0,0-.4-1.7c.8-.8,1.3-.2,1.6-1.7Zm5.1-3.1c-.4.1-.7.4-.5,1.5C357.1,41.9,357.2,41.3,357.3,40.6ZM268.2,45c.2,1.5-.8.9-.5,2.7,1.1.6,1.7-.2,3-.4C270.1,46.1,269.1,46.3,268.2,45Zm55.5-.8c.3,0,.2.8.6.6-.2-1.5.9-.5,1.1-1.2a2.785,2.785,0,0,0-.4-1.2c0,.7-.6.2-.9.3.2,1.5-.3.5-.4,1.5ZM355.8,43c.6-1.4-.8-3-1.1-1.4C355.2,41.8,355.5,42.5,355.8,43Zm-25.5,3.2c.2-1.1-.1-1.8,0-3.2-.5.2-.6-.6-1-.6-.1,1.5-.9,1.7-1.8,1.9a4.121,4.121,0,0,1-.1,1.2c1.1,1.7,1.9-1.1,2.9.7ZM219.8,47.9a4.121,4.121,0,0,1-.1,1.2c.4.7.7,1.7,1.4,1.7a4.074,4.074,0,0,0,.5-2.7c-.7.7-1-.3-1.8-.2Zm10-.5c-.1.5-.2,1-.7.9,0,1.5,1.3,1.7,1.7,1.4a2.219,2.219,0,0,1,.1-.9C230.3,48.7,230.3,47.6,229.8,47.4Zm1.1,1.1c.3-.2,1,.5.9-.6C231.3,47.9,230.9,47.8,230.9,48.5Zm59.7-2.2c.2,0,.3.5.5.6-.3-.9.5-.2.2-1.2-.2.2-.6.2-.7.6Zm16.3-.1c.4-.4,1.3,0,1.4-1C307.7,44.6,307,45.1,306.9,46.2Zm35.3-2v-.9h-.4a2.219,2.219,0,0,1-.1.9Zm-3.4,1.9c0-1.1-1.4-1.3-1.2.1C338,46.9,338.2,45.9,338.8,46.1Zm-63.1,2.4c-.1.9-.2,1.6-.3,2.4.9,0,.9-1.4,2.1-1-.2-2-.8-1.2-1.8-1.4Zm82.1.8c-.1,0-.2-.2-.2-.6-.3-.2-1,.4-1.2-.2.2-1.3,1.2-.2,1.2-1.2-.2,0-.2-.5-.2-.9-.9.3-1-1.1-1.8-1.1,0,.3.1.8-.1.9-.3-.1-.7-1.3-.9-.5.3.4-.4,1.1-.3,2.1.5-.2.9-.4,1.2.5-.5,1.4.4,2-.1,3.2.6.8,1.1.1,1.7-.1-.3-.1-.4-.5-.4-1.2.3-.3,1,.4,1.1-.9Zm4.8-1.4c0-.7-.3-.6-.2-1.5-1,.5-1.2-.6-1.8-1.4-.3.6.4,1.6,0,2.3.9.3,1.4,0,2,.6Zm-4-1.5H358c0,.4,0,1.1.2,1.1C358.3,46.9,358.6,46.9,358.6,46.4Zm-21.3,2.1c.3.9.8-.2,1-.6C338,48.1,337.1,47.4,337.3,48.5Zm31.2,0c.3-.2,1,.3,1-.3-.4.1-.5-.4-.5-1.2C368.4,46.8,368.7,48.1,368.5,48.5Zm13-.3a2.314,2.314,0,0,0-.7-1.4A1.074,1.074,0,0,0,381.5,48.2Zm4.4-1.4c-.1.8-.7.6-1,.9,0,.9.2,1.4.2,2C385.9,49.8,386.2,47.8,385.9,46.8ZM57.5,63.1c1.5.6,4.5,1.2,5.9,0A14.652,14.652,0,0,0,57.5,63.1ZM380.4,47.4c-.7.1-.7,1.6-1,2.4C380.3,50.2,380.3,48.7,380.4,47.4ZM94.2,63.8c.4.7,2.1,1.9,2.5.5-.6-.8-1.6-.5-2.5-.5Zm17.1.7a40.733,40.733,0,0,1-10.2-.7c0,.5,0,1,.3.9,1.9.8,4.2,1.4,6,.3.9.4,3.6,1.6,3.9-.5Zm1.6.2v.9a1.277,1.277,0,0,0,1.2.2C114.2,64.4,113.3,64.1,112.9,64.7Zm98.9-3.6c.6.3,1.4-.4.8-1.3C212.8,61.1,211.6,59.9,211.8,61.1Zm-97,4.4c.7-.1.6-.3,1.2-.1C116.1,64.5,114.5,64.6,114.8,65.5Zm2.4.2c1.1-.6,2.5,1.2,2.8-.7C119.2,65.8,117.7,63.8,117.2,65.7Zm5.2-.5c-.8.3-1.1-.5-1.9-.2v1.2C121.2,66,122.4,66.6,122.4,65.2Zm1.5.2c.1.2,1,.7.8-.3C124.6,64.4,123.8,64.8,123.9,65.4Zm1.3-.4a2,2,0,0,0,.2.9c1.3-.6,1.4.5,2.5.8,0-2.7-2-2-2.7-1.7Zm3.9-.5c.3,1.1-.1.5-.1,1.5,1-.2,2.3.3,3.3-.2C131.6,64.3,130.6,64.6,129.1,64.5Zm5.7,1c1.5-.2,3.1,1.1,4.5-1.1C138.1,64.9,135.3,63.1,134.8,65.5Zm228.1-12h-.6C362.3,54.7,363.1,54.6,362.9,53.5ZM97.7,66.7c0,.8.4.8.7.9C98.5,66.5,98.1,66.6,97.7,66.7Zm1.1.5q.15,1.05.6,1.2a3.253,3.253,0,0,1,.1-1.5C99.2,66.8,99,67,98.8,67.2Zm-2.5.1h-.4a3.778,3.778,0,0,1-.1,1.2c.4,0,.5-.6.8,0,0-.6-.2-.6-.3-.9-.1,0,0,0,0-.3Zm10.8.4c.7,0,2.1,1,2.4-.1C108.5,67.7,107.6,66.5,107.1,67.7Zm35.7-1.1c.5-.2,1.5.4,1.4-1C143.7,65.9,142.9,65.6,142.8,66.6Zm-32.1,1c-.1,1.2,1,1.2.8,0A2.152,2.152,0,0,0,110.7,67.6Zm36.3-.9c.4-.2.3.5.8.3v-.9C147.4,66.2,147.1,66.3,147,66.7ZM388.8,55.2c.4,0,1,.1.8-.9C389.2,54.3,388.9,54.6,388.8,55.2ZM155.6,66c-.3.4-.9.1-1.1.7.3.2,1.1,1.1,1.2-.1-.1-.1-.1-.3-.1-.6ZM387,55.8c.5-.4.4.9.8.9,0-1.2.8-1,.9-2.1-.8,0-1.1.9-1.7,1.2ZM123.2,67.9c-.4,1.2-1.1,0-1.7,1,.4.4,1.1.1,1.9-.1,0-.4,0-.9-.2-.9Zm2.5.8c.6-.1.8.5,1.2-.4C126.6,68.1,125.8,67.6,125.7,68.7Zm2.8.1c.9.4,2.5.8,3.1-.7C130.4,67.5,129.7,69,128.5,68.8ZM153.2,67c.5-.1,1.3,1.2,1.2-.4C154,66.9,153.3,66.3,153.2,67Zm8.5-.1c.2.4.7.3,1.1.2C162.8,65.7,161.9,66.5,161.7,66.9Zm3-.4c.3,1.5,1.1.4,1.7.8C166.4,66,165.1,67.2,164.7,66.5Zm-32.3,1.8c0,1,1.2,1.5,1.3.5A1.231,1.231,0,0,0,132.4,68.3Zm1.9.2v.6c-.1,0-.2,0-.2.3.7-.4.8.5,1.3.5A1.806,1.806,0,0,0,134.3,68.5Zm92.1-3.9c.5,0,1.9.8,2.2-.7C227.9,64.8,226.9,63.5,226.4,64.6Zm5.1.1c.2.4.9.5.9-.3C232,64.1,231.7,63.9,231.5,64.7Zm-51.6,3.1c.5-.3.8.6,1.1-.1C181,66.4,179.8,66.8,179.9,67.8Zm21.6-.8c1,.3,1.3.1,1.8-1C202.9,66.2,201.9,66.4,201.5,67Zm9.3-1c.4-.3.4.4.8.3C211.7,65.1,210.8,65.1,210.8,66Zm-24.7,1.5c.6.2,2.3.8,2.6-.4C187.8,68.2,186.7,65.8,186.1,67.5Zm3.2-.4c0,1,1.9.9,1.8-.1C190.8,66.7,189.7,66.9,189.3,67.1Zm80.6-4.3c-.4.3-.4.3-.9,0a8.159,8.159,0,0,0,.2,1.8c.4.1.3-.6.7-.3,0-.8-.2-.9,0-1.5Zm-78.4,4.4c0,1.2.9.4.9,0A.746.746,0,0,0,191.5,67.2Zm2.1.2c.3.4,1.6.5,1.9-.1C195.2,66.7,193.8,66.3,193.6,67.4Zm116.8-5.7c0,2.1,2.3,1.2,2.4.2A9.345,9.345,0,0,1,310.4,61.7Zm17.9.9a.54.54,0,0,0,1-.4C328.9,62.3,328.4,61.4,328.3,62.6Zm6.4.3c.4,0,.8,0,.7-.9C334.9,61.8,334.8,62.3,334.7,62.9ZM345.3,65c0-1.1.9-.5,1-1.5C345.7,62.9,344.8,63.8,345.3,65Zm40.6-2.7c.1.7-.4.3-.4.9.2.4.6.4.7,0a.847.847,0,0,0-.3-.9Zm-8.4,4.9c.7-.5.7.9,1.1,1.1-.1-1.4-.7-1.8-1-2.6C377.7,66.4,377.3,66.4,377.5,67.2Zm4.1-.2c.2,0,.2.5.3.6,0-.5.3-.2.4,0a2.768,2.768,0,0,0-.1-.9c-.4.1-.6-.7-.6.3Zm-1.9.1c.3.1.3.8.6.8a2.483,2.483,0,0,1,.1-.9C380.3,66.9,379.7,66.4,379.7,67.1ZM60.6,6.6c.8-1.7,3.5,1,4.1-1.4,0,.7.7.3.8.9.8-1.9,2.4.8,3-1.3-3.4.2-7.6-.1-11.4-.2,0,1.1-1.9.2-1.4,1.3,1.2-.1,3.3-.4,4.9.7Zm92.2,1.1c.6.6.9,1.9,1.6,2.3.4-.1.7-1.2,1.1-.7,0,1.1-.7,1.1-.4,2.7,1.5-.7,3.6.8,4.7-.8-.9.1-1.1-1.2-1.5-2.3a8.447,8.447,0,0,0,1.7.5c.7-3.8,1.7.6,3.2-.1.3-1.8,2.6-1.1,2.6.8a10.414,10.414,0,0,0,4.6-.8c1.2,1.4,2.4.1,3.2-1,.5,1.7,1.4,1.9,2.5,1.1-.2-1.5,1-1.9.2-2.7.6-.3.4,1.3.7,1.8,1.1,0,2.3,1.3,2.5-1.3-1.4.6-.8-2.7-2.1-2.3.1.5.1,1.9-.7,2.1-.4-.9-1.2-.7-1.3-2.3-.3.5-.6,1.2-.9,1.8a8.955,8.955,0,0,0-2.3-.8c-.2.5,0,1.8-.4,2.1a5.3,5.3,0,0,1-1.9-3.2c-.8,2.4-2,.8-2.8,2.5h-.6V5.9c-2.6,1.8-5.7-3.2-6.8,1.2-.3-1-.7-1.4-1.4-1.4-.4.6-.2,1-.9.6-.4.7.3.6.2,1.8-.5,0-.7-.9-.8-1.8-.6-.9-.8,1.1-1.2.3,0-.5.5-.3.3-1.2-2.1.7-3.9-2.2-4.9.8-.2-1.1-.9-.2-.9.7.8,1.3,1.9,1.5,2.7.8ZM387.1,31.9c-.2.8-.3.3-.8.3-.1.7,0,1.6-.3,1.8-.9-.5-2.2,0-2.8-1.3.5-.4-.1-2.5.6-2.7.2.3.5.5.6.9,0,.8-.4.8-.5,1.5.9-.6,2.2,2,2-1-.4-.3-.8.6-.8,0-.1-1.8-1.1-1.6-1.1-3.7.9.5.6-1,1.2-.9.4.1.2,1.3.7,1.1a6.893,6.893,0,0,1-.3-2.6c-.4,0-.6-.1-.8-.6.7-.2-.4-.2-.2-1.1,1.1.3-.1-1.7.6-2.1.4.4.6,1,1.2.8-.1-1.2.5-1,.5-2-.3-.8-.9.7-1.2-.3a3.936,3.936,0,0,0,.1-3.2.462.462,0,0,0,.5-.3c.1-1.1-.5-.8-.4-2,.1-.5.7,0,.5-.9a2.8,2.8,0,0,0-2-1.7c.2,1.3-.3,1.3-.6,1.5.4,2.1-.5,2-.7,2.9.8,1.3,1.8-.5,2.3-.4a13.1,13.1,0,0,1-.6,4.7c-.9-.2-2.3-.3-2.7-2.5-.5.2-.4,1.4-1.1,1.2a4.26,4.26,0,0,0-.1-2c-.4.1-1.1-.2-1.3.3,0,.6.3,1.9,0,2-1.1.6-1.5-2-1-3.1-.7-.3-.2-2.3,0-2.6-.5-.4-1.4-1.2-1.9-.5-.2-1-.3-2.3-1-2a2.946,2.946,0,0,1-1.1,3c.3-1.4-.7-1.2-.5-3.2-.4-.1-.3.5-.7.3,0,1.1.5-.3.5,1.1-.4,0-.9-.1-1.1.3.2,1.1.7,1.6.5,2.9,1.7.4,2.7-2.5,4.4-.5,0,1.4-.9,2.4-.8,2.9,0-.7.6,0,.5.6-.7.4-.9-.6-1.2-1.1-.9,0-1.2,1-1.8,1.5a1.072,1.072,0,0,0-.2-.6c0-.4.3-.2.2-.9-.2-.5-.8-.2-.8-1.1-.5.6-1,.6-2.1.7a3.744,3.744,0,0,0,.9,2.6,3.667,3.667,0,0,1-3.6-.4c-.2-1.9.5-.7,1.1-.9.1-1.3-.7-1.6-.1-2.3-.7-.9-1.2.3-1.5.9-1-.8-2.1-.3-3.1-.1a10.58,10.58,0,0,1,.3,2c-.6-.3-.2,1.1-.7.9a6.444,6.444,0,0,1-.7-2.9c-1.2-1.1-2.1,0-3.2.4a1.459,1.459,0,0,0-2.4-.5c.2.3.3.6.5.9-.7.3-2.3.4-2.8-.8a11.965,11.965,0,0,1,1.7-.6,7.017,7.017,0,0,1,1.1-2.7,14.6,14.6,0,0,0-1.8-1.1c-.1-.5.1-.7.1-1.1-.6.1-1.1.2-1.2.9-.7-1-1.6-.2-2.4-.5.2-.6,0-.4-.1-1.2-.6.5-1.2,1.7-1.6,1.8.7.6.9,2.1,1.2,3.4-1.1-.9-2.6.7-3.4-1.3.3.7.5-.1,1,0-.6-1.7,1.1-.6,1-2.1-.5.6-.3-.2-.6-.8a.91.91,0,0,1-1.2,0,3.126,3.126,0,0,1-.7,2.3c.6,4.5-3.2,1.4-3.9,3.7-.1-3.8,1.6-3.2,1.7-6.2-.8-.3-1.8.3-2.5-.2a12.187,12.187,0,0,1-.2,5c-.8-.4-1.9-.8-2.3.4-.7-1.7-2-.2-2.7-1.6a84.724,84.724,0,0,1-9,1.3c-.4-1-1.2-1.2-1.7-2a1.885,1.885,0,0,1,.4-.9c.2,1.1,2,.9,1.1,0,.8.9,2.6,1.4,2.9-.1-1-.1-1.8-.8-2-2.8-.7-.4-1.3.2-2.3.1,0-.6-.2-.6-.2-1.2a20.624,20.624,0,0,0,2.1.2C330.2,8.1,329,9,328,9c.2,1.6-.6,1.3-.8,2.1-.1.9.3.8.2,1.7-2.4.9-4.8-.6-6.6,2a3.762,3.762,0,0,0-.1-2.1c-.3-.1-.3.6-.7.3-.1,1.4.4,1.3.7,1.7-.3-.1-.1.8-.4.9-1.1-.8-3,1.1-2.8-2.8a1.644,1.644,0,0,1-1.2-.8c.2-.2.2-.6.2-1.2-1.2-.9-3.1.3-4.3-1-.2-1.1.5-.5.3-1.5a4.49,4.49,0,0,1-1.9.4c0,1.5,1.1.4,1.2,1.7-.5-.1-.5.7-.6,1.2-.1-1.7-1.1-.5-1.5-.2a6.214,6.214,0,0,1-.3,3.5c-1.6-.3-1.2,3-2,4.2-.3.1-.3-.5-.8-.3-.4.6-.2,1.4-.3,2.1-.4.1-.5-.4-.6-.8,1.3-.7.4-5.2,2.3-4.8a7.3,7.3,0,0,0,0-2.1c-1.4,0-2.2-1.1-3.2-.4a3.747,3.747,0,0,1-.6,2.1c-.6-.3-1.1,1-1.5.1.1-.7.7-1.3.3-2.1-1.3.7-2.3,1.9-1.7,4.8-.8.7-1.2-.7-2-1.1-.1.5-.1,1.3-.5,1.2-1.1.4-.8-2.2-1-2.9.4-.2.6.3.9.2.3-1,.5-.9.5-2.1,2-.4,2.9-.5,4-1.9a2.248,2.248,0,0,0-2.7.1c-1.6-2.3-2.6,2.2-3.7.8.1-.5.6-.5.3-1.2-1.6,0-2.2.7-3.5,1.6-.1-.9-.3-1.4-.8-1.4-.2.1-.1.9-.6.6.2,4.2-2.1,4.4-3.4,2.5-.2.2.1,1.4-.2,1.5-.2-.8-.8-.5-.7-2a27.014,27.014,0,0,0-5.1-2.1,12.913,12.913,0,0,1-.5,2.1c-1.6-.1-1.9.8-3.1,1-.1,1.1.5.6.6,1.2-.2.6.1.5.1,1.5-.6-.3-.8.4-1.2.6,0-.9-.5-.7-.5-1.7.8.5.5-2.1.2-2.9-.7.5-1.1-.1-2.1.1a4.868,4.868,0,0,0-.1-1.2c-1.1.6-1.7-.1-2.7.4.1,1,.8.6,1,1.4a8.684,8.684,0,0,0,.1,2.3.836.836,0,0,0-.9.6c1.2-.5,3.8-2,4.4,1.3-1.3.9-1.2-.3-2.1-.8-.6-.3-1.5.7-2.2.4a7.057,7.057,0,0,1-2.1-1.7,1.448,1.448,0,0,1,1.2-.3c.3-.6.1-2.2.6-2.7-1-1.4-2.3-.8-2.8,1-.3-1.9-1-.9-1.9-1.7,0-.7-.3-.9-.2-1.8-.5.1-1.1.8-1.3-.2-.2.6,0,.4.1,1.2-.4,1-1.1.2-1.5.7.1,1.8,1.5.6,1.6,2.6a2.528,2.528,0,0,1-1.3,2.1c.1.7.3.9-.1,1.2h-1c-.4.4.2,1.1-.1,1.2a1.282,1.282,0,0,0-1.5-.5c.3-1.3-.6-1.5-1.2-1.1.4-.8-.3-.2-.2-1.2.1-.1.2-.2.1-.6.9.1,2.8-.5,3.1-3.1-.7,0-2.3-1-2.8,1-.3-.8-1-.9-1.5-1.1-.4.5-.4,1.6-1,1.8-.5-.5-.4-1.5-.5-2-.6.7-.8-.8-1.3.3a36.782,36.782,0,0,0,1.2,6.7,9.474,9.474,0,0,0-.5,3.6c-.6-1.2-1.6-1.5-1.8-3.5,0-.6.3-.7.7-.6-.3-.8-.5-1.9-1.1-2-.3,2.2-.7,1.7-2.3,1.9,0-.6-.2-.6-.2-1.2-.7-.3-1.1.7-1.4-.3.1-2.4,1.4-.9,2.1-1,0,.4-.2.5-.3.9.4.1.6.5,1.1.3-.1-2.5-1-2-1.3-3.5a5.6,5.6,0,0,1,1-1.5c-1.7-.4-3.9,1.1-4.8-.4-.6,1.1-1.9.8-2.8.4.4-.8-.2-1-.2-1.8-.7.2-.5,3.3-1.5,2.2-.2.9-.3,2-1.1,1.8-.3-.2-.4-.8-.5-1.5-3.4-1-8.1-.4-12.3-.7-.4-1-.7-2.4-1.6-2.3.7,1.6-.1,2.5.5,3.8-.5.3-.7-.5-.9,0,.1,1.5.4,2.2-.3,2.7.4-1.8-.4-2.1-.5-3.9a2.635,2.635,0,0,0-2-.5c-.2.5-.1,1.4-.4,1.8a3.287,3.287,0,0,0-1.7.4,2.95,2.95,0,0,0-.5-1.5q.3-.15.3-.9a18.089,18.089,0,0,0-5.7.2,3.756,3.756,0,0,0-1.1-2c-.2,1.8-1.1,0-1.5.6-.4.2.7,1.2.2,1.5-1.5-.4-4.8.2-6.2.5a37.451,37.451,0,0,0-1,6c-.3-1.6-.6-1.4-1.3-2.3-.3.6-.3,1.8-.8,1.8-.4-.1-.3-1.3-.7-1.5-.7.9-1.2.3-1.8-.5,1.7-.2,2.8-.6,4.2-.2-.8-2-.3-2.7-1.6-3.2,0,.8.1,1.8-.2,1.8-1.5.2-2.8,1-3.7-1-.2.5,0,1.7-.6,1.5-.2-.1-.3-.3-.5-.6a4.234,4.234,0,0,0,.4-1.2,4.869,4.869,0,0,0-1.2.1c0,.5.2,1.5-.1,1.5h-1.1c-.4-.4.1-1.1-.2-1.2-.9,1.1-.3,4.8-1.3,5.7.1-1.5-.6-1.5-1-2.1.3-1,0-.5-.2-.9,0-1.2,1-.7,1.3-1.3V14.3c-.7-.3-.5,1.2-1.2,1.2,0-.9-.4-1-.4-2.1-1,.1-2.3,2.1-3.3,1,0,.8.1,1.7-.3,1.8-.1-1,.3-1.3-.1-1.8-.7-.1-1-.9-1.7-.8-.4.8-.9,1.4-1.3,2.1.2.1.6,1.5.2,1.8-.3-1.3-.4-.3-.9,0,.1-1.1-.4-.9-.5-1.4a2.749,2.749,0,0,0,.1-1.8c-1.8,1.1-3.4.3-4.9.2q.15,1.05-.3,1.2c-.2-1.6-1.2.3-1.3-1.4a2.8,2.8,0,0,0-1.3,2.2c-.7-1.9-2.4-1-3-2.3.1-.5.5-1,.2-1.5a5.49,5.49,0,0,0-4.6,3.2c-.5-.7-1.3-.8-1.4-2.3h-.8c-.2.3.1,1.5-.4,1.2-.5-.8-.9-2.1-1.9-2a3.73,3.73,0,0,0,.2,1.2c.1.3.7-.8.8.8-1,.2-3.2-.1-4.1.5,0-.9.4-1.1.2-2.4-1,.9-2-.6-3.1.1-.5.3-.3,1.1-.6,1.5-.8,1.3-1.7.2-2.2-1.4-2-.3-3.2.6-4.4-.1-.5,1.2.1,1.6.4,2.7-.2.1-.3.4-.6.3.2-3.3-1.4-3.3-2.2-2a11.491,11.491,0,0,0,.2,2.1c-.6-.1-.4,1.2-1,.9.1-1.9.2-1.3-.2-2.7.5,0,1,.1.9-.9-2.6-.6-6,.1-9.2-.2-1.3-.2-3-1.4-4.1.5,0-.9-.5-.6-.8-.9-1.7.9-3.2-.6-4.9.2.1,1-.9,3-1.6,2.5.4.1.7-.1.6-.9-.6-.6-.9-1.7-1.9-1.4-.1.5.2.8,0,.9-1.5,1-3,.3-4.1-1.6a.756.756,0,0,1-.8.3c-.2.2.1,1.4-.3,1.5-3.1-3.7-9-.4-13.2-1.9l-.6,1.2c-.1-.5-.7.1-.6-.9-1.8-.8-3.4.5-4.7.5-.4,0-.7-.9-1.1-.9s-.8.7-1.2.7c-6.3-.1-13.1-1.6-20.5-1-.1,1.1,0,2-1.1,1.9a2.165,2.165,0,0,0-.2-1.2c-4-.2-9.9-1.2-13.8-.1.3-.1.3,1.6,0,1.5H70c0-.6.2-.7.1-1.2-4.5-2-11.8-1-16.7-.8-3.4-.7-7,1.7-9.7-.8.2-.1.5,0,.5-.3-1.2-.1-1.6.5-3,.4-.2,1.2-.4,1-.9,1.3-.4-.4.3-.9-.2-1.2-.4-.1-2.6.9-1.6-.8-4.1,1.1-6.8-1.4-10.7-.8-.3,1.5,0,.8,0,2.7A26.1,26.1,0,0,0,37.4,15c.2-.3,0-1.1.4-.9,1.6,1.3,3.2.2,4.3.7-4.8,3.7-12.6-2.5-17.3,1.6-1.2-2.3-4-1.4-5.2.2,1.2,0,2.6-.4,3.2.8.5-.4.7-1.4,1.4-1.6v1.8c.9-.3,1.7,0,2.5-.7,0,.8.3.6,0,1.2,1.9-.7,3.4.6,4.6,1.3-1.3.7-2-.1-3.2.1a3.73,3.73,0,0,0-.2-1.2c-.6.1-.7,1.1-1.1,1.6-.1-.9-.7-.5-.8,0,.1.6.9-.1,1,.6-1.5.6-1.8,0-3,1.4.2-.3,0-2-1-1.9-.1.5.5,1.3,0,1.5a4.2,4.2,0,0,0-5.1-.1c-1.7-1.4-4-.7-5.7-.1-2.3-1.8-4.5,1.1-6.4,1.2.1.6-.2.6-.3.9,1.1,1.5,3.1.1,4.3.7-.2.6-.8.5-.8,1.3,1.5-.7,3.9-1.5,5.6.1a7.569,7.569,0,0,0-1.5.1c-.3.5-.3,1.4-.6,1.9-2.3-3-4.6.5-7.5,1.6-.1,1,.6.4.4,1.5C3.3,31.9,1.2,33.4,0,36.3c.7-.4.2-.1.5.3a7.8,7.8,0,0,1,5.1-2.7C5.5,32,7.3,32.7,7,31.4c.7,1.1,1.6,1.1,2.1,1.8-2.3,1.6-4.8,1.3-5.9,6.1,1.3.8,2.6.2,4.2.1.4.6.2,2.5.8,2.7a4.046,4.046,0,0,0-1.9.7c0,.9.6.8.7,1.8a23.141,23.141,0,0,0-3.5,3.5c2.5-.2,5-2.9,7.9-1.6-.5.2-1.1,0-1,1.3,1.9-1.6,6.4,1.1,7.4-.9.6,2.2,3.2.4,4.1,2.9-.6,1.1-1.8-.7-1.9,1,.6-.1,1.3.8,2.4.5.8,3.7,4.2,2,5.8,4.1-.8.7-2.1-.2-3-.2s-2.1,0-2.2,1c4.6.6,10.7,2.4,15.2,1.7,1.6,2.2,3.8.4,6.1,0,.3,1.7,1.5,0,1.6,1.8a12.754,12.754,0,0,1,6.4-.3c.4-.4-.3-1.2.1-1.5.9.4,1.7,1.2,2.6,1.7.1-1.5.9.3,1,.3.3,0,.2-1,.8-.9,1.9,0,4.2-.4,5.8,1.2-.3.7.2,1.6.8,1.5.3-.4.2-1.7.9-1.3a1.846,1.846,0,0,1-.1,1.5c1.3.7,2-1.1,2.6-2.6.5,1.4,2,.7,2.6,2,.1-1.4.4-2.6,1.4-2.5.4.2.4,1.4.8,1.5.2-.6.7-.7,1.1-1,.4,1.3,1.9.8,1.7-.4,1.3.8,2.4-.8,3.3,1.4,1.1-3.2,3.6,1.9,5-.2.7,1.9-.6,2.3-1,3.1,2.4.9,4.8-.4,6.8,1.5.4-.2,1-.2,1.3-.7-.2-.4-.8-.1-.8-.9a17.2,17.2,0,0,1,2-6.5c-.2,1.5.4,1.7-.2,2.8.7,1.1,1.3.3,2.1,1.1.3.4-.2,2.3.2,3.1.5-.5.8,0,1.3-.4.5-.9.2-3.3.8-4,.3.2.3.9.7.9.4-.9,1.1-1.1,1.7-1.6,0,.6-.6.3-.4,1.2q.3.15.3.9c1.5-1.3,2.3.7,3.3,1.4a2.068,2.068,0,0,1,2-1.3c2.5,1.8,5.1,0,7.7.9a1.413,1.413,0,0,1,1.2-1.6c-.1,1,.3,1.2.4,1.8,1.1-.9,1.7.2,2.6-.4.4-.3,1.2-2.5,1.5-2.5.9.1-.1,1,0,1.5.4,1.4,1.6,1.8,2.5.8.8,1.3,2.9.7,3.7-.8a1.424,1.424,0,0,0,.5,1.5c.3-.6.6-1.3.9-1.9-.1,1.6.3.4.8.6a1.95,1.95,0,0,0,0,1.5,31.984,31.984,0,0,1,10.3.7c1.8-1.6,3.7.9,5.1-1.8,1.6.2,3.5,1.9,5.3,1q-.15-1.2.3-1.5a1.818,1.818,0,0,1,.8,1.5c2.1-.4,3.4.6,5.1-.9a1.544,1.544,0,0,0,.8,1.5c.5-1,1.3-4.3,2.1-3.1-.1.5-.6.5-.6,1.2,1.4,3.3,3.9.7,5.7,1.8.2-.2.2-1,.6-.9a1.383,1.383,0,0,0,2.3-.4c.5.5.8,1.1,1.3,1.5.5-.3-.2-2.8.7-2.5a4.977,4.977,0,0,0-.1,1.8c.3.1.4.6.8.6.2-1.7,2.2-.2,2.4-1.9,0,2.2,1.5-.1,1.6,2.3,1.1-.3,2.5-.2,3.4-2.6a2.546,2.546,0,0,0,.4,2.1c.3-.6.1-1.9.7-1.8.1,1.6.9.1,1.3,1.5.4-1.9,1,.1,1.8-.4V63c.9.2,1.7-2.1,2.1-.1.8-.8,1.8-.2,2.4-1.6.4.1.4,1.3.8,1.5.6-1.6,3.2.2,4.1-.5,0,.8.3,1.1.6,1.2,2.4-.2,4.2-2.2,6.6,0,0-1.5.8-1.6,1.6-1.6,0,.4-.2.4-.1.9,2.8-1.3,5.6,1.2,7.7-1.3.5.1.4,1.6,1,1.5,1.6-1.3,3.8-1.5,5.9-1.8.1-.7-.8-1.1-.4-1.5,1.1.8,3.3-1,4.6.4.3,0,.1-1,.4-.9.2.6.3,1.3.5,1.8.9-.6,2.1-2.5,2.7-.7,1.6.1,3.9-2.2,4,.1.6-.1.1-2.2,1.1-1.6-.1-1.6.5-1.9.8-2.7,0,.8-.3,1.1.2.6,0,.7-.4.7-.5,1.2.9-.3,1.1.9,1.3,2.1,1.1-2.1,2.5.7,4.1-.5.3.3.3,1.3.8,1.2a3.483,3.483,0,0,0,2.6-2.5,9.282,9.282,0,0,0,.3,2.4c4.8-.4,8.7.4,13.1-.1.1-.4.2-.9.6-.9.6.6,1.6.1,2.4.2.1.6.4.5.4,1.5.8-.8,1.6.3,2.2-.7,0,.8-.2.6,0,1.2.7-.3,1.7.4,2.2-1.3.7-.4.7.6,1,1.1a1.013,1.013,0,0,1,1.5.2c.3-1.2.7-1,1.3-1.3v.9c2.1-1.1,3.4-.4,5.4.6,1.3-.6,3.7-1.8,4.8.1,0-1.3.8.1,1.2-.1.1-.4-.3-1.5.1-1.5,2.6,1,6.4.1,8.7.8-.1-.9.3-.9.5-1.2a7.018,7.018,0,0,0,.6.9c1-3,2.4-.9,4.2-.2.4-.2.3-1.3.7-1.5a1.638,1.638,0,0,1,2,.8c.1-.5-.5-1-.1-1.2.7.3,1.4-.6,1.8-.1.1.8-.5.3-.4,1.2.6,0,1.2,1,1.5.5a3.731,3.731,0,0,0-.1-1.8c.7-.7,1.8,0,2.6-.4.3.8-.2,1.7.5,1.8,0-.8-.2-1.7.2-1.8.4.4.4,1.5,1,1.4a4.378,4.378,0,0,1,.4-2.1c1.9-.6,3,3.5,4.5,1.6a3.729,3.729,0,0,1,.2,1.2c1.9-.9,3.5.4,5.1-1.2,1.4,2.6,2.2-1.2,3.3-1.7.5.3.4,1.8,1,2.1.3-1,1.3.6,1.9.2.2-.2-.1-1.1.2-1.2.4.4.5-.6,1,.2.2-.5-.1-1.7.2-2.1.4,1.2,1.9,2.3,2.4,1.1-.2-.3-.5-.5-.6-.9a4.235,4.235,0,0,1,.4-1.2c.7-.4,1.4.9,2,.8-.6.5.6,1.7,1,2a2.22,2.22,0,0,1,.1-.9c1.1.7,2.4,2,3.9.7.3-1.3-.6-1.6,0-2.4-.1,1.9.8,1.6,1.2,2.6a3.645,3.645,0,0,1,.5-2.1c.6,1.2.7-.7,1.4-.7-.1-1.4-.8-1.4-1.3-2,.7-1.5,2.2-.6,2.6-1.3-.8-1.7-2.3-.3-3.1-1.3-.1.5.2.8,0,.9-.4-.4-.9-.5-1.2-.8a9.819,9.819,0,0,0,.8-1.8c-.7-2.2-2-2.8-2.6-5.2a.61.61,0,0,0,.7-.3c-.5-3.1-1.1,1.2-2-1.1.9.3-.1-1.1.5-1.2.9-.3,1.2.5,1.7-.7,0,.6.2.9.5.9-.1-2.9,2.4-3.4,1.6-5.7-.3.5-1.2-.4-1.3-1.4.1-.3.1-.7.3-.9.8-.3.8,1.4,1.5,1.4.3-.4-.3-.9.1-1.2.6.6,1.8.9,1.4,2.6.5.3.3-.5.6-.6.1.5.3,1.1.4,1.7a2.8,2.8,0,0,1,2,1.4c-.2.6,0,.4.1,1.2-.2.3-.5-.9-.6,0,.8,1.7,2.4-.5,2.7-2.2-.4-.4-.6.9-.7,0,0-.3-.2-.4-.2-.6,1.3-1.4,2.6,2.3,3.6-.2a3.729,3.729,0,0,1,.2,1.2c.5-.2,1.3.3,1.3-.6-.2-.3-.2-1-.5-1.2.6-1.1,1.1.8,1.6-.1.2-.8-.1-.9.1-1.8,1-2.4,2.6-.2.5.6a6.736,6.736,0,0,0,.1,2.4c.7,0,.6-1.4,1.1-1.8.8.8,1.5.2,2.4,1,.1-.3,0-1.1.4-.9a1.538,1.538,0,0,1,.3,1.7c2.3-.7,4.1.9,6.3.3-.1,2.5,1.1,1.8,1.5,3.2a16.288,16.288,0,0,1-.1,3.2c-.4-.6-.9-.6-1.6-.5-.2,1-.5,1.9-1.4,1.8,0,.7.3.9.2,1.8-.6.3-.6,0-1.2.3-.1,1.1.4.5.4,1.5-.4-.2-.3.4-.7.3-.7-.6-1-2.1-2-2a10.805,10.805,0,0,1-.5,2.1c1,.5-.6,2.8.8,3.5-.8-.4-1.6,1-2.4-.5a6.645,6.645,0,0,0-.6,3.3,2.726,2.726,0,0,0-1.6.4c0-.4.2-.6.1-1.2-.4-.6-1.3-.3-1.8-.8-.2-1.2.2-1.3.2-2.1-.6-.3-1.2.2-2.1-.2a29.784,29.784,0,0,0-1.2-4.1.265.265,0,0,1-.3.3c.3,1.6-.1,1.5,0,3.2-.4,0-.8.1-.7,1.2.1.7.9-.2.9.8-.5,1.8-2.5,1.6-2.2-.8.7.1,1.3-.1,1.1-1.5-.7-.2-.8.7-1.4.7a4.018,4.018,0,0,1-1.3,3,7.459,7.459,0,0,1-.4-2.4c.4,0,.8-.1.7-.9-.1-.9-1-.1-1.1-1.1a2.341,2.341,0,0,0-.3-2.3c-.3.4-.7,1-1.3.9.1,2.1.1,4.1.6,4.4,0,.7,0,1.5-.5,1.5.2-.5.1-1-.3-.9,0,1.1.3,1.3.3,2.4-.9-.5-.6.4-1.5.4.6,1.3,1.8,2.8,2.6,2.5.2-.6,0-.7-.1-1.5.4-.7.5-.4,1.1-.4.3-1,.4-2.2.7-3,.8-.2,1,.9,1.5,1.1-.1,1.1.4,1.2,0,2.4.6,0,.8.9,1.2,1.1.5-1.2,1.7-.8,2.5-.1.7-1.7,2.1-.6,2.8.8h.4c.2-.2-.1-1.4.2-1.5.4.4.2,1.8,1.3,1.4.2-1.4-.6-.4-.5-1.5.7-.3.5,1.4,1.1,1.1.5-2.9,1.7.2,3.3-.8.4-.5,0-1,.2-1.5.5.2,1,.2,1.1,1.4-.3,0-.5-.5-.9-.2,0,.5.1,1,.1,1.5a4.146,4.146,0,0,0,1.1-1.2,3.458,3.458,0,0,0,.7,1.2c.7-1.4,1.1.2,1.9.2.3.1.1-.8.4-.9,1.1.6,4.9.1,6.6,2.3.2-.4,0-1.4.4-1.5.9.5,1.7-.1,3-.4-.1-.4-.7.1-.6-.8.8-1.3.8,1.9,1.7,1.4.2-.5-.2-.8-.1-1.8.5-.2.7-.8,1.1-1.2.7,1.4,1,3.7,1.8,4.6.3-1.4,1.9-.3,2.9.1.1-1.1-.1-2.2.8-1.5-.3-1.4-.4-3.4.5-3.3a2.132,2.132,0,0,1,.2-2.1c-.5.3-1.5-1.2-2.2-.2.6-.3.9,2.1.6,2.9-1.1-.1-1.6-1.5-1.7-3.2-.4-.3-1.2-.1-1.5-.8-.2-1.1.5-2.2-.1-2.6a23.4,23.4,0,0,0-.9,2.4c-.1-.4-.4-.2-.6-.3,0,1.8-1,1.8-1.3,3a2.787,2.787,0,0,1-.1-1.8,27.126,27.126,0,0,0-7.8-.8,5.58,5.58,0,0,1-.4-2.1c-1.4-.3-1.7.6-2.9.5-.1.4.3,1.5-.1,1.5-1.3,1-1.7-1.9-2.9-2.2a3.205,3.205,0,0,0,.4-2.7c1.3-.1,2.2-4.3,3.6-1.9.3-.8,1.3-.2,2-1,0-.5-.2-.6-.2-1.2-.9.1-1.6-.3-1.8-1.7.7-1.7,1.7-1.3,2.5-2.7-.7-.6-1-2.2-2-2,0,1.2-.6,2.5-1.2,1.5a6.5,6.5,0,0,1,.2-2.1c.5-.5.4.2.9.2,0-1-.6-.7-.5-1.7.4-1,.7-.8,1.5-.9.2-1.2.7-1.7.3-3.2.4-.1.5-.8.6-1.5a9.923,9.923,0,0,1-1.3-2.3c.2-.6.9-.6.9-1.5-.4-1.5,0-3.7-.3-5,.6.3.8,1.9,1.2,1.4a10.12,10.12,0,0,1,.2,4.4c.5,0,.8.4,1.1.8-.7.5-.1,3-.6,3.8-.5-.3-1.4.1-1.6,1.2a10.916,10.916,0,0,0,1.3,1.7,1.138,1.138,0,0,1,1.4-.4c.2-.4.2-1.1.4-1.5.8.8,1.4,2.3,2.4,1.1.3,2.7-.8,3.3-1.8,2.4.1.6-.1.6-.1,1.2.6,0,.7,1.5,1.3.5a2.676,2.676,0,0,0,.2,1.1c.9-.1,1.5-.8,2.6-.7.1-.7,0-1.7.5-1.8a2.5,2.5,0,0,1,.4,1.7c.6-.1.8.4,1.1-.1a13.064,13.064,0,0,1,.1-4.4c.4.6.8-.3,1.3-.3a5.2,5.2,0,0,1,1,2.9c-.6-.4-.2.8-.7.6-.3-.2-.3-1.2-.5-1.7h-.7c.2,1.6.7,1.5.1,2.6,2,0,3.7-2.4,5,1.8,0,1.3-.9,1-.7,2.7.4-.4.7,1.4,1,.2-.3.2-.8-.4-.4-.6.7.2.9.3,1.4-.4,0-1.5-.7-1.2-.7-2.6,2.2.4,3.3.4,4.7-1.1,0-.5-.5-1.4-.1-1.8.7,1.7,2.1,3.8,3.4,3.1-.5,0-.7-.8-.8-1.7.7.2.3-.7.5-.9.7.2.8,2.5,1.7,1.4.6.8.1,4,.8,3.5-.2.2-.3-1.3-.1-1.1,0,.6.5,1.5.5.8-.4-1.6,0-3.8-1.3-4.6.5.1.7-2.4,1.3-1.8.1,1.3-.5,1.4-.7,2.1.2,0,.3.5.3,1.1.4.2.3-.4.7-.3-.1,1.3.5.9.7,1.7-.1.4-.5.1-.5.6a7.632,7.632,0,0,1,1.1.8c-.7,2.2-2.6,2.1-2.9,4.8.7,0,0-1,.5-1.2.7.4,1.1-.3,1.5,1.1-.7.5-1.2.5-1.8,1.6-.1-.6-.5-.6-.2-1.2-.7,1-1.2.8-2,.1a9.907,9.907,0,0,1-.2,1.8c.2,0,.3.1.3.6,1.1-.2,1.9-1.3,2.5,1-.7.4-2.1-.2-3,.4.6-.4.4,1,.9.8.6.3.4-.8.8-.6.5,1,2.3,1.8,2.6.2.4.1.2,1.5.8,1.1-.8-2.4.9-2.7,1.5-4.2-.1-.5-.4-.2-.3-.9.4-1.4,1.3-2.1,1.7-3.6-.3.1-.7.1-.8-.5a4.932,4.932,0,0,1,.4-2.7c.2.5.3,1.1.8,1.1,0-1.1-.1-2.7.5-3.2.2.1.4.5.4,1.2.3-.1.5-.5,1-.3-.1-.8-.3-1.3.1-1.8.6,1.6,1.1,0,2-.1,0,2.3,0,5,.6,5.8.1,1.3-.9.9-1.4,1.2.3,1.5-.5.9-.5,1.8,1.3,1.5,1.9-3.9,3.5-1.9,0-.9-.3-1-.3-2,.3-.2.4-.8.8-.6-.4-1.4.3-1.3.5-2.1-1.4-.7-2.7.2-2.8-3.4.9.8,1.7,1.8,2.6,2.5,0-.6-.3-1.9,0-2.1.6,0,1.1.9,1.6-.1,0,.4-.5,1.3.1,1.2.6.1-.2-2.2.8-1.5,0-.5-.2-.6-.2-1.2.4-1,1,0,1.4-.6-.1-1.1-1.2-.7-1.9-1.5ZM274.9,14c.2-.9.3-.3.9-.6v.9c-.5.1-.6-.4-.9-.3ZM10.2,32.7c-.4.2-.7.5-.8-.6C9.6,31.7,10.3,31.7,10.2,32.7Zm18.6,4.7a2.165,2.165,0,0,1,.2-1.2c.3-.1.3.3.5.3C29.5,37.3,29.2,37.5,28.8,37.4Zm3.8.5c0-.5-.2-.6-.2-1.2.5.3.6.1,1.1.6-.1.4-.5.5-.9.6ZM32.5,19c.6.6,1.7.5,2.2,1.1C34.4,20.5,32.9,20.3,32.5,19Zm2.4,1.4c.1-3.1,1.4-.1,2.5-.7C37.3,21.5,35.9,19.8,34.9,20.4Zm3,17.9c-.1-1.1.7-.4,1.1-.6C39,38.9,38.2,39,37.9,38.3Zm1-18.1c.2-1.6,1.7-.6,2.2-.7v1.2C40.2,21,39.8,20,38.9,20.2Zm3.7,25.5a3.253,3.253,0,0,1,.1-1.5c.4-.2.3.6.6.6a.808.808,0,0,1-.7.9Zm1.5-23.9c.2-1.1.3-2.2,1.2-1.9C44.6,20.7,45.1,21.7,44.1,21.8Zm7.3,24.4c.5-.2.6.4,1,.6C52.2,48,51.4,47,51.4,46.2ZM50.3,21.9c-.2-.5-.6-.5-.5-1.5a3.055,3.055,0,0,1,1.9-.1c0-.8-.3-.6,0-1.2.1,0,.2.1.2.3.3.9.9-.6,1.1.5-.6,1.8-2.2-.1-2.7,2Zm8.3,24.6c-.2-.1-.4-.4-.6-.6.1-.7.7-.5.4-1.9.4-.2.3.6.6.6A3.361,3.361,0,0,1,58.6,46.5Zm7.8-1a1.525,1.525,0,0,1-.5-.9c-.6.9-.3,1.7-.7,2.8-.4-.7,0-2.9-.7-3,.3-1.2,1.7-.2,1.9-1.6.3.2.4.9.6,1.2.1,1.1-.5.9-.6,1.5Zm7,1.6c-.8,0-.8-2.6-.7-3.6.3.4.8.4.8,1.5-.9-.1-.4,1.5-.1,2.1Zm.6-8.3c-.5-.9.3-2.6.9-1.2C74.6,37.9,74.5,38.7,74,38.8ZM76.6,49c-.7.1-1-.7-1.4-1.1a14.79,14.79,0,0,1,.1-2.2c-.2-1.1-.5-.1-.9-.3.7-2.5,1.5-1.8,3-1.3-1.3,1.2-1.2,3.1-.8,4.9Zm4.6,3.8c.5,0,.8.5.8,1.5C83.6,54.5,80.7,55.1,81.2,52.8Zm0-7.3c.1,1.2.7,1.3.4,2.4-.5,0-.6-1-1.1-.9-.1,1.3-1,1.1-1.4,1.9-.4-.6-1.2-1.3-1.7-.2-.6-.2,0-.7-.2-1.8.5-.1.5.9,1.1.6.5-.2.2-1.8.6-2.2-.2-.5-.8-.3-1-.9.5-.8,1.8-.3,2.4-.1.2,1.5-.5,1.5-.9,1.9,0,.4.3.5.3.9.3-.9,1-1.3,1-2.8.7.1,1.1-.5,1.2-1.6.5.2.6-.4.9-.3a1.733,1.733,0,0,0,.4,1.8c-.3,1.1-1.6.4-2,1.3Zm3.2,16.3c-.6.2-.5-1.1-.5-2.1C84.4,59.9,84.6,60.8,84.4,61.8Zm2.8,1.1c-1.2-.4-1.1-.7-2.2-.5.1-2.3,1.5-1.8,2.5-1.7C87.4,61.3,87.3,62.2,87.2,62.9ZM86.2,44c.4-.6,1.3-.2,1.5.8C87,44.9,86.2,45.3,86.2,44Zm7-14.9c.2-.5.9-.5.8.6C93.7,29.6,93.1,30.2,93.2,29.1Zm.3,13.4H92.4c.4-.9.3-1.9-.4-2.1C92.8,38.8,94.2,40.3,93.5,42.5Zm-.9,6.7a1.258,1.258,0,0,0-1.6-.5c0-1,.5-.8.8-1.3a1.95,1.95,0,0,1,0-1.5c-.8-1.5-1.7,0-2.7-.5,0-1.4,1.3-.3,1.4-1.6,1.3,1.4,2.8-1,4.1.7-.1,1.3-1,1-.9,2.8-.9-.2-.9,1-1.1,1.9Zm.7,7.9c-.7-1.4.1-2.1.8-1.6C94.1,56.8,93.7,56.9,93.3,57.1ZM94.6,54c-.6-.1-.9-.4-1.4.1-.1-.7.3-.7.1-1.5.9.3.6-1.3,1.5-1A8.242,8.242,0,0,1,94.6,54Zm.6.9c-.1-.5.2-1.8-.2-1.8.3-.5,1.5,0,1.4,1.5a1.922,1.922,0,0,1-1.2.3Zm.5-5.5c-.3-.2-.6-.8-1.1-.5.3-1,1.3-.8,1.5-1.9C97.2,47.7,95.7,48.6,95.7,49.4Zm4.1.7c.2-1.5-.8-.5-1-1.2-.5-.1-.4.8-.6,1.2-.6-.3-.5-2.6-1.3-1.5.4-1.7,1.5-.4,2.3-1v-.9c-.3-.6-1-.2-1-1.5.6.5.6-.1,1.1-.3a8.482,8.482,0,0,1,.1,2.7c.9-.7,1.5,1,2.2.5-.3,1.2-.7,2.2-1.8,2Zm2.2-1.6a1.931,1.931,0,0,1-.5-1.8c.5-.3.6.2.8.6C102.4,48.1,102,47.9,102,48.5Zm1.2-33c.6,0,.6.4,1.1,0q-.15,1.05-.9,1.2a3.73,3.73,0,0,1-.2-1.2Zm1.2,35.3c.3-.6-.1-.6.1-1.2.3-.1.2.9.5.9C104.9,51.4,104.8,50.8,104.4,50.8Zm.7-1.8c0-.5.2-.7.1-1.2.2-.2.8.3.8-.3.5.2.4,1.8.5,2.7C105.9,50.1,105.8,48.8,105.1,49Zm-1.2-9.7c.7.6,1.7.6,1.9,2.3.7-.1,1.1-.6,1.3.8-1.4.9-2.5-1.2-3.2-3.1Zm3.4-10.4c.1-.5.5-.8.8-.4C108,29.3,107.5,29.3,107.3,28.9Zm-.8-13.3c.7-.3,2.3-.9,2.8.2C108.2,16.2,107,17.7,106.5,15.6Zm1.9,25.6c.2-.6.6-.8.7-1.5.5,0,.5.9.5,1.8C109.1,41.5,108.6,41.7,108.4,41.2Zm16.1-.4c.5-.2.5.5.9.3a2.22,2.22,0,0,0-.1.9c-.3,0-.6-.1-.6.3a2,2,0,0,1-.2-1.5Zm-9.9,8.6c-.7.6-1,1.7-2.1,1.3-.4.2,0,1.6-.3,1.8h-.8c.4-1.4.1-2.9.2-4.2.6.1.9-.6,1.4-.7.4-1.3.4-3.4,1.6-3.4a10.177,10.177,0,0,1,.1,3c.4.9,1.3.6,1.5,1.8.5,0,.6-1.4,1.1-.6,0,2.2-2,1.7-2.7,1Zm-1.5-3.9a.856.856,0,0,1-.9.7C112,44.4,113,44.5,113.1,45.5Zm3.3.2c0-.6.6-.3.6-.9.4.1.2,1.6,0,1.8-.4.3-.2-1-.6-.9Zm2.2-.1c0-1.5.4-2.1,1-2.5C119.6,44.5,119.3,45.5,118.6,45.6Zm-1-3.6c-.1-1.6-.9-1.6-1.5-2.3-.1.8-.7.6-.9,0a4.311,4.311,0,0,1-3.4,2.3c-.1.8.8-.3.8.6v.6c-.1,0-.1.1-.2.3-.7-.2-.8-1.8-1.7-1.4V40.6c1,.6,1.2-.8,2.3-.1.7-1.4,1.9-2.6,3-1,1-1.3,2.9-1.3,3.6,1.1-.3-.1-.3-.9-.8-.6-.1,1.3.7.6,1,1.2-.2,1.9-1.3.5-2.2.8Zm5.8,13.1c-.3.1-.3.5-.3,1.2-.6-.1-.9-.9-1.4-1.2a2.674,2.674,0,0,1,2.1-1.3c-.7.3-.2,1.3.5,1.2,0,1.7-.7.5-.9.1Zm2-4.3c-1.4,0-3.5,1-4.3-1.9.4-.5,1.1-.6,1.4-1.3.5,0,.6.8.9,1.2.4-.1.2-1.4.7-1.2a1.947,1.947,0,0,0-2.2-1.4c0-.4,0-.5-.2-.6,0-.6.4-.6.6-.9.5-.1.5,1,.9,1.2.4-.3-.4-1-.2-2.1.8.1.6-1.5,1.4-.7-.4,1.2.2,3.2-.5,5.2.5.4,1.3-.2,1.9.5.2.8-.2,1.2-.4,2Zm4.8-28.7c-.1.3-.8,1.3-.1,1.2-.5,1.2-.7-1.1-1.3-.9,0-.8,1.1-.6,1.4-.3Zm-2.8,22.2a4.613,4.613,0,0,1,.1-1.8c1.1.8,2.5,1.2,1.8-1.9.3-.6,1-.5,1.2-1.3.7,0,.2.7.5,1.2.2-.1.1-.5.1-.9.4.3.4,1.5.5,2.4-.7.4-.9,1.9-1,3.4-.9-1.2-.9.3-1.5,1a1.362,1.362,0,0,1,0-1.5c-.3-.4-.4-1.2-.8-1.5-.5-.2-.3,1-.9.9Zm1,7.2c-.1-1.4.3-1.7.4-2.7a2.391,2.391,0,0,1,1.7.2,2.926,2.926,0,0,1-2.1,2.5Zm1.5,4.8c-.3-1.9.9-1,.7-2.8.9-.4.9,1.1,1.3,1.8C131.2,55.6,130.8,56.3,129.9,56.3Zm6.9-27.5c.4,0-.4,1.6,0,1.5-.4,1.2-1.5.5-1.4-1.2C135.7,28.2,136.4,29.8,136.8,28.8Zm-1.7,13.3a1.628,1.628,0,0,0,.3.6c-.2.7-.5,1.3-.7,1.9-.2,0-.1-.3,0-.3,0-.5-.1-.6-.3-.6.2-.7.2-1.6.7-1.6Zm.3,15.2c-.6-.6-.9-1.7-1.6-2,.7-.1,1.4,1.1,2.3.5C136.2,56.8,135.5,56.4,135.4,57.3Zm1.3-14.9a10.593,10.593,0,0,0-1-1.2c.2-1.1.9,1,1.1,0C137.3,41.4,136.6,42,136.7,42.4ZM337.1,20.7c0-.3-.2-.2-.3-.3-.1-.5.1-.6.1-1.1.8,0,.2,1.2.3,2h-.6A.562.562,0,0,1,337.1,20.7Zm-2.5-3.4c.6.5-.6,0-.4.6.3.9.8-.6,1,.2-.1.6-1.2,1.1-1.2-.5a.6.6,0,0,1,.6-.3Zm-1.2,2.1a1.837,1.837,0,0,1-.8,1.2c0-.4,0-.8-.2-.9.2-.6.6-.6,1-.3Zm-5-.7c0-.5-.1-1-.1-1.5C328.7,17.5,329.1,18.8,328.4,18.7Zm-.5-4.4c.2,2.4-1.2,2-1.9.4C326.4,13.9,327.5,14.9,327.9,14.3Zm-5.1,1.4c-.2.6-.4-.2-.9,0a7.568,7.568,0,0,0-.1-1.5C322.2,14.8,323,14.3,322.8,15.7Zm-6-.3c-.3,0-1.6,1.6-2.3,1,0-1.8-.6-2.2-.5-4.1,1,1,2.3,1,2.8,3.1Zm-4.7-1c.4,0,1.1,1.9,1.7,2.3-.4,1-1,.3-1.7.4C311.9,16,312.6,15.2,312.1,14.4Zm-2.9,1.9c.5.2.2.8.2,1.5-.3-.1-.3-.8-.8-.5,0-.9.6-.4.6-1Zm-2.8,7.2c0,.9-.7.5-1.2.7C305.1,22.3,306,22.6,306.4,23.5Zm-1.7,5.7c.2,0,.1.3.2.6,0,.3.3.3.5.3C305.2,31.4,304.2,29.9,304.7,29.2Zm-.6,2c.4.4.2,2.1,1,1.7.1.9-.2,1.2-.2,1.8-.9.2-1-1.4-1.5-2A1.324,1.324,0,0,1,304.1,31.2Zm-.7-10.5c.2,1.1-.1,1.4-.5,1.5a4.871,4.871,0,0,1-.2-1.5Zm-.8,5c-.4,1.4-2-.1-3.1,1,.2-.6,0-.4-.1-1.2C300.8,25.7,301.7,24.5,302.6,25.7Zm-.6,5.6c.1,1.4-1,1.6-.9-.2C301.5,31.1,301.6,31.6,302,31.3Zm-2.4,7.5c-.6,0-.5-.4-.7.3-.4,0-.4-1.1-.9-.9a5.489,5.489,0,0,0,1.2-2.1A6.577,6.577,0,0,0,299.6,38.8Zm-1.1-16.1c.6.7,0,2.3-.6,2.4C297.6,23.3,298.5,23.9,298.5,22.7Zm-2-5.6c.2.3.5.3.7.6,0,.8-.6,1.2-1,.6C296.3,17.9,296.7,18.1,296.5,17.1Zm-8,3.6c.6-.1,1,.4,1.4.8,1.2-1.4,3.2-2.9,4.8-1.7,0,1.1-.6-.2-.9.6a1.583,1.583,0,0,0,2.7.5,7.568,7.568,0,0,0,.1,1.5c-.2.4-1,.1-1.4.6.5.4.6,1.8,1.1,2.3-.4,2.5-2.6.5-3.6,2.2a2.8,2.8,0,0,0,1.1,1.7c.6-.2,1.3-2.4,1.8-.4.7-.4.8-1.9,1.5-2.4.9.3,1.9,1.3,2.4,1.4-1.7,2.4-3.8,2.4-6.2,3.2.3-.5-.1-.9-.2-1.5-.9.4-1.7-1.1-2.4-.5.1-1.3,1.2-.9,1.4-2.1-.6-.7-1.5-.6-1.9-.8-.2.8-.5,1.3-1,1.5-.1-1.4.2-2.2.8-2.4-.9-.8-.8-2.2-1.6-3.2-.3-.7.3-.4.1-1.3Zm0,6.2c-.5.2-.2-1.2-.8-.9C287.9,25.3,288.7,25.9,288.5,26.9Zm-.8-4.1c0,.3-.2.2-.3.3.2.7.5,2.2-.2,2.1C287.5,24.5,287,22.7,287.7,22.8Zm-1.3,6.9c.3.5,1,.2,1,1.4-.9-.4-1,1.4-1.8.4-.2-1.2.3-1.1.4-1.8-.9.6-1.7,1.5-2.9,1.6-.3-.4-.2-1.5-.3-2.4,1.1,0,1.1-1.8,1.5-3-.1-1-1-.2-1.1-1.1.5-1.4,1.4,0,2.5-.4-.3,1.2-.4,2.6-1.1,3a1.709,1.709,0,0,0,.6,1.2c1-.9,1.2-2.3,2.2-2.5.1,1.8-1.9.5-1,3.6Zm-6.9,7.7c-.3-.6-.9-.8-1-2,.4,0,.9.1.8-.6.6,2.8,1.9,4,2.8,6.1a25.578,25.578,0,0,1-2.7-.5c-.1-.6.1-1,.4-.9-.1-.7-.7-1.2-.3-2.1Zm2.2-5.8c-.2,0-1.6,1.4-1.8-.2.8-.2,1.3-.9,1.4-2.4.5.1.5,1.2,1.2.8.2,1.4-1.8,1-.8,1.8Zm2.5,5.8c.2.9-.5.4-.4,1.2.2.7,1,0,1.1.8-.1,1.3-2.6,1.3-2.7-.5C283.3,39.3,283.1,36.1,284.2,37.4ZM286.6,17c.4-.1.6.1.6.9C286.8,18,286.5,18,286.6,17Zm-.1,5.3c-.3.6-1.1.8-1.2-.5C285.8,21.6,286.1,22,286.5,22.3ZM281.8,16c1,1.7,1.5-.6,2.4.5a4.868,4.868,0,0,0,.1,1.2c-.4,0-.2-.2-.2-.6a3.5,3.5,0,0,0-1.1,2.1c-1.1.2-1.8-1.7-1.2-3.2Zm-2.7,8.4c.4,0,.7,0,.9-.3.1-2.4-1.2-1.6-1.4-3.5a6.065,6.065,0,0,1,1.4,1.7c.2-.4.8-.1,1-.6.4.5-.2,1.7-.8,1.5.1.6.5.5.4,1.4.4,0,.3-.5.6,0,0,1.9.5,2.4,1,2.3l-.9.9c-.1-1.3-.9-.9-1-2.3-.9.6-.9-.3-1.8-.2.1-1.3-.1-1.6-.1-3.2-.3-.6.6,1.4.7,2.3Zm-.8,4.2c.1.3.2.6.5.6.1.9-.4.6-.2,1.5-.4-.4-1.3-1.2-1.3.4-.6.2-1-.2-1.5-.2a11.5,11.5,0,0,1-.1-2.7c.9.3,1.4-.1,1.8,1.4.5,0,.3-1.2.8-1Zm-.9,13.9c0,1.2-.5,1.5-.5,2.7-.6-1.4-1.5.9-2.4-.2C274.5,42.4,276.4,42.9,277.4,42.5Zm-3.7-14.9a4.352,4.352,0,0,1,1.9-1C275.6,28.1,274.3,28,273.7,27.6Zm3.3-3.7c.3.5-.2,1.2.5,1.2-.8,1.3-1.4.4-2.4.4C275.3,23.6,276.2,24.3,277,23.9ZM274.7,19c.1,1.3.2,3.9-1.3,3.6,0-.6-.1-1.2-.1-1.8.8,0,.5-1.9,1.4-1.8Zm-5.5,7c.3-.1.1,1.1.2,1.5h-.6A4.577,4.577,0,0,0,269.2,26Zm.2,2.9c-.4,3.3-1.8.9-2.9,1A1.888,1.888,0,0,1,269.4,28.9Zm-2-9c.2,1.1-.7,1.2-.6,0ZM266,24.4c.4.2.4,1.6,1.1,1.1.1.6-.2.6-.4.6.3.7.6-.4,1.1.2a4.868,4.868,0,0,0,.1,1.2c-.8,0-.9.4-1.8.7.2-1.2-.5-2.8-.1-3.8Zm-.3,13.3A2.119,2.119,0,0,1,264,36c.9-.4,1,.8,1.8.5,0,.5-.2.6-.1,1.2Zm-.8-10.9a10.376,10.376,0,0,0,1.2,3.5C265.2,31.6,264.6,28,264.9,26.8Zm.9-6c0,2-1.6,2.8-1.9.7C264.8,21.8,265,19.8,265.8,20.8Zm-4.7,17.7c.6-.3.6,1.4.1,1.2C260.9,39.1,261.1,39.3,261.1,38.5Zm-4.8-16.7c.2.8-.2,1.8.1,1.8C255.8,24.9,255.5,21.6,256.3,21.8Zm1.6,4.4c.2.1.2.7.2,1.2.5-.4-.2-1.6.3-2.4.6,0,.2,2.2.7,2.3,1.4.3,1.1-2.4,2.3-2.5,0,1.1-.5,1.9.1,2.7-1.1-.1-1.3,2.7-2.5,1.3.8-.8-.8-1.6-1.2-.8.1.4.2.6.5.6,0,.7-.8,0-.9.7.1.7.6.6.9.8,0,.5-.2.6-.1,1.2-1.2.3-2-.4-2.9-.8.7-.2.9-1.1,1.6-1.2.1-1.8-.7-1.5-1.3-1.7.6-.9,1.9-.3,2.3-1.4Zm-2.8-4.3c.3.6.6,1.1.2,1.8A1.944,1.944,0,0,1,255.1,21.9Zm-.2,18.7c0,.7-.3.7-.7.6C254.2,40.6,254.6,40,254.9,40.6Zm-1.6-15.1c.6-.2.2-2.1,1.1-1.8.2,1.5-.8.9-.5,2.7a2.256,2.256,0,0,1,.7,1.7c-.8.6-1.2-1.6-1.7-.8-.2-1,.3-2.2-.3-3.5.6-.1.4,1.5.7,1.7Zm-.8,4.5a.95.95,0,0,1-1,.6c.1-1.4-.8-.4-.5-2C251.5,28.8,251.8,29.8,252.5,30Zm-2.4-14.1c.3-.5,1.1-.3,1.5-.6.1.4.3.5.3.9.1,1.6-1,1.1-1.7,1.2C249.7,16.8,250.6,16.3,250.1,15.9Zm1.5,27.5c-.3,1.1-.9-.1-1.2.9,0-1.1-.8-1.5-.7-3.5C251.1,39.7,251.2,41,251.6,43.4Zm-2.8-28.9a15.826,15.826,0,0,0,.6,2.3c.2,1.8-1,1.1-.8,3-.3.2-.6.2-.7.6-.3-1.5.6-4.4-.1-5.9Zm-1.7.3c.1.9-.1,1.4-.5,1.5,0-.3,0-.5-.2-.6.2-.3.3-.8.7-.9Zm-1.9,19.1c-.5.1-.7-.5-1.2-.2C244.1,32.4,245,32.6,245.2,33.9Zm-4-8.7c1.2,1.4,2.3-.3,3.7,2.2-1.3-.8-2.7.3-3.5-1-.4.2-.4,1.2-.5,1.8-.4,0-.9.2-1.1-.2.2-1.4,1.9-1.4,1.4-2.8Zm1.7,9.1c-.4,0-.4-1.4-.2-1.8.3-.1.4.2.6.3.2,1.1-.3.9-.4,1.5Zm-.6-3.6c0,.9-.5.8-.8.9C241.3,30.8,242,29.9,242.3,30.7Zm-4.5-5.4c.5,0,.8.3,1,1.1-.4.4-1,1.1-1.5.4C237.3,26.2,237.8,26.3,237.8,25.3Zm-.8,6.9c-.5-.2-1.3.1-1.4-1.1.1-.4.5-.3.9-.3C236.3,32.1,237.1,31.1,237,32.2Zm-.1-9.5c0,.6-.5.2-.4.9q-.3-.15-.3-1.2c.3-.1.3.5.7.3Zm-.5,3.2c0,.8-1.2,1.6-1.2.1C235.7,25.5,235.9,25.9,236.4,25.9Zm-1.1-1.7c0,.5.2.6.2,1.2-.4-.1-.9.9-1.1-.2,0-.9.5-.8.9-1Zm-.6,7.5c-.1,1.1-.6.3-.9,0C233.9,30.9,234.5,31.8,234.7,31.7Zm-1.7-16a4.275,4.275,0,0,0,.5-1.8h.6a6.342,6.342,0,0,1,.4,2.3c-.4.2-.3-.6-.6-.6-.1.1-.1.3-.3.3,0,.6.2.5.5.6-.1,1.3-.6,1.9-1.6,1.8a5.881,5.881,0,0,0-1.9-2.6c.6-1,1.6,0,2.4,0Zm-2,10.5c.2-.4.6-.3,1-.3C232.2,26.7,231,27.3,231,26.2Zm-5.6-5.4c.3,1,.4,3.1-.3,3.3a18.48,18.48,0,0,0-.1-3.3h.4Zm-1.4-8c.4.6-.1,1,.1,2.1-.5,0-.8-.3-.9-1.1-.4.3-.9,1.2-1.2.1.3-1.1,1.5-.5,2-1.1Zm-1.3,3.9c-.1-1.2.8-.4,1.2-.6C224,17.3,223.1,16.5,222.7,16.7Zm-1.3,9.9c.5.4.7.1,1.2-.1a6.191,6.191,0,0,1,.2,2.1c-.8,0-.7-.8-1.3.1a14.768,14.768,0,0,1-.1-2.1Zm1.1,4.4c.2-.4.1-1.5.4-1.8,1.1.1,1.5-.2,2.4.2.1-1-.7-1.5-.8-.9-.5-.8.3-1.5-.1-2.4,1.6-.8,2.4-.1,4.2-1.4.6,1.5.7,2.4,1.5,3.2-.6.9-.4,1.6-.5,3-.5.3-.7-.3-.8-.9-.9,1.4-2.2.1-3.3-.4a4.558,4.558,0,0,0-.7,2.4c-.9,0-1.5.7-1.7,1.9-.7,0-1-.9-1.4-1.7-.4.3.1,1,.1,1.5-.4-.1-.8-.4-1.2-.5.1-.9-.3-.9-.2-1.8.6.1.7-.8.8-1.5.5,0,.4,1.7,1.3,1.1Zm-1.8-14.5c0,.8-.3.9-.7.9a2,2,0,0,1-.2-.9C219.9,16.3,220.6,15.9,220.7,16.5Zm-1.2-.2c.1.7-.2.9-.2,1.5C218.4,17.7,218.6,16,219.5,16.3Zm.3,20.2q-.3-.45-.6,0a5.177,5.177,0,0,1,.4,2.1c-1.2-1.3-2-.4-2.9-.2.2-.1.5-1.2.1-1.5.2-1.1.3.6.5.6.5-1.1,2.2-5.4,2.5-1Zm-3.5-5.2V30.1h.4C216.8,30.8,216.7,31.4,216.3,31.3Zm.4-9.6c.7-.5,1.1.7,1.8-.7,0,.7-.5.6-.4,1.5-.3.1-.4-.2-.6-.3,0,1,.5,1,.5,2.1-.3.6-1.1.3-1.4-.2a9.856,9.856,0,0,0,.1-2.4ZM215,28.4c-.1-.9.4-.6.2-1.5a1.364,1.364,0,0,0,1.3,1.1C216.4,29.3,215.4,29,215,28.4Zm.7,5.9a5.491,5.491,0,0,1-1.2-3.5A6.143,6.143,0,0,1,215.7,34.3ZM213.6,16c1.4.8,1.4-.2,2.7-.4a1.627,1.627,0,0,1-1.2,1.2c.2.7.7,1,.5,2.3-.7-.9-1.8-.9-2.2-2.6C213.6,16.5,213.6,16.2,213.6,16Zm.7,7.3c-.5.2-.7-.2-1.1-.2C213.1,21.1,214.5,21.3,214.3,23.3ZM212,16c.3-.2.5,1.3.2,1.5C211.6,17.8,211.8,16.2,212,16Zm.1,9.5c.7-.9,1.8.2,1.9-1.3.7.6.6,1.5.6,3.2-1.4-.3-1.6,1.5-2.5,1.9a1.461,1.461,0,0,0-.7-1.8c.3-.5,1.3-.9.7-2Zm-3.3.8c.4,0,.4-.6.9-.4-.2,1.1.1.7.2,1.8-.4.8-.7-.2-1.4.1C208.9,27.1,209.1,27.3,208.8,26.3Zm.7,5.9a.265.265,0,0,0,.3-.3C210.6,32.4,209.6,33.9,209.5,32.2Zm-.8,7.2c-.5.6-.9-.2-1.2,1a7.143,7.143,0,0,1-.8-1.5C207.6,38.6,208.3,36.9,208.7,39.4ZM207.4,32c-.1.9.2.8.2,1.5-.5-.6-1.6-.3-1.7-1.7C206.5,31,206.8,31.9,207.4,32Zm-5.7-2.8c-.4-.3-1.4.7-1.4-.5C200.6,28.3,201.8,27.9,201.7,29.2Zm-3-7a5.989,5.989,0,0,1-2-.8C196.8,19.5,198.8,19.8,198.7,22.2Zm-2,4.6c.6-.3.5.7.9.5-.8.5-.1,1.7-.2,2.4a4.869,4.869,0,0,0-1.2.1c-.2-.3-.1-1.1-.5-.9C196.3,28.7,196.8,28.1,196.7,26.8Zm-.4,12h-.6C195.5,37.6,196.3,37.6,196.3,38.8Zm-.8-7.2c.5-.3.3.8.6.9-.1.5-.5.4-.7.6-.1-.8.2-.8.1-1.5Zm-1.7-2.3c.5,0,1-.2,1.2.2-.2.8-.6,1.1-1.3,1A4.121,4.121,0,0,0,193.8,29.3Zm-2.7-8.5a1.5,1.5,0,0,1,.5,1.2c-.4,0-.8,0-.8-.9q.15,0,.3-.3Zm.2,12.2c-.3.6-.4,0-.7,0,0-.5.1-.6.1-1.2.2.5.6.4.6,1.2Zm-.2-3.6c-.3.6-.4-.2-.9,0-.1,1.1.3,1.3.8,1.2-.1.4-.5.4-.7.6-.2-.5-.2-1.5-.5-1.8.3-.2,1-1.6,1.3,0Zm-.6,9.9c-.6.2-.7-.6-.8-1.5C190.3,37.5,190.7,38.7,190.5,39.3Zm-2.4-12.1c-.4,1.6.7,2.4.3,3.9C187.6,30.9,187.2,27.2,188.1,27.2Zm-.6,4.5c0,.9-.5.9-.3,2.1-.4-.2-.4.4-.7.4-.1-.9-.1-1.7-.7-1.5.3-1,1-1,1.7-1Zm-4.9-3.4c.5,1-1,1.7,0,3a1.68,1.68,0,0,1-1.7-1.4C181.8,30,181.9,28.6,182.6,28.3Zm-.3,3.6a1.818,1.818,0,0,1,.8,1.5c-1.4-.6-1.7.8-2.6-.2.2-1.8,1.6.3,1.8-1.3ZM180.2,29c-.4,2-2.4.8-2.5,2.5-.6-.5-.7-1.4-.6-2.7a.713.713,0,0,0,.6.3c0-.9-.6-1-.2-1.8C178.2,28.8,179.6,28.4,180.2,29Zm.2,6.6c-.1,1.2-1.4.3-1.8,1C178.8,35.4,179.7,35.7,180.4,35.6Zm-2.7-9.8c-.1.2-.2.5,0,.6-.8.3-2.1,1.1-2.9-.5C175.3,24.9,176.5,25.4,177.7,25.8Zm-2.1,6.1c.1.8-.2,1-.6.9C174.9,32,175.2,31.8,175.6,31.9Zm-.1-12.6h.5c.2,1.2-.3,3.2-1.4,3C174.9,21.4,175.7,21.3,175.5,19.3Zm-1.7-2.9c0,.7-.3.9.2,1.2-.1.6-.8.2-.9,0C173.1,16.8,173.3,16.4,173.8,16.4Zm-2.1,5.5c.4-1,1.1.3.7,1.2C172,23,171.6,22.9,171.7,21.9Zm-1.9,10.8a1.737,1.737,0,0,1,.3,1.2c-.8,1.8-1.4.5-2.6-1.1.8-.9,1.4,1.1,2.3-.1Zm-.9-7.7a8.6,8.6,0,0,1,.2,2.4h-.8c-.1-.8-.3-1.2-.4-2.1C168.5,25.5,168.5,24.8,168.9,25Zm-.9,3.9c.5-.3.4.8.6.9,0,1.1-1.1.1-.6,1.5a9.062,9.062,0,0,1-1.6-1.1C166.8,29.4,167.7,29.7,168,28.9Zm-3,2.9c-.1,1.1-.2,2-1,1.8C164.1,32.5,164.4,31.9,165,31.8ZM160.6,29a7.894,7.894,0,0,1,.2,2.4c-.6,0-1.2-1.3-1-2.1A.67.67,0,0,1,160.6,29Zm-.7-14.7c.1,1.1-.7,1.1-.9.7A.856.856,0,0,1,159.9,14.3Zm-3.7,14.6c.1,1.2-.6.9-1,.9C155.2,29.1,155.6,28.8,156.2,28.9Zm1.5,5.9a10.868,10.868,0,0,0,.1,1.8c-1-.4-1.7-1.4-2.4.1-.7.1-.7-1.4-1.3-1.7,1-.5,2.7.3,3.6-.2Zm-4,9.2c0-1.5.9-1.2,1.3-1.9.1.8.6.8.7,1.8a9.5,9.5,0,0,1-1.7,1c.1-.7-.3-.4-.3-.9Zm-.9-24.6c.4-.2.2,1.1.5,1.2.6-.2.6-1.4.8-2.1.3.2.4.8.5,1.4-.6,0-.6.8-.9,1.2a1.877,1.877,0,0,1,.4,2.1,2.833,2.833,0,0,1-1.7-1.1C152.8,21.6,152.4,20.7,152.8,19.4Zm.8,6.6c-.3-.8.4.5.2,1.5-.4.2-.2-.6-.5-.6C153.4,26.6,153.7,26.5,153.6,26Zm-1.4,3c.8.2,1.2-.3,1.8-.4.2,1.6-.4,1.6-.3,3-.5-.3-1.1-.2-1.4-.8-.3-.9-.1-.6-.1-1.8Zm-.9,10.9c.5-.5.4,1.8.2,1.8C150.8,41.8,151.3,40.4,151.3,39.9ZM150,37.3a6.141,6.141,0,0,1-.7-1.8h.6a12.133,12.133,0,0,0,.1,1.8Zm-.8-18.4c.3.2.6.7.5,1.8-.7.5-.5-.9-1.1-.6-.1-1,.8-.2.6-1.2Zm-3.6,21.8c.4.1-.2.6,0,1.2-.8-.4-1.7.7-2.1-1.1.5-.8,1.5,1.1,2.1-.1Zm-4.7-19.3c-.1,1.3-.5.5-1.1.6C140,21.5,140.6,21.8,140.9,21.4Zm1.6,25.8c.6,1-.2,1.4-.3,2.7-1.1.7-1.6-.1-2.8-.2,0-.6.2-.7.1-1.2.7-.5.5.9,1.1.5.1-1.1.3-1.7.4-2.7a10.627,10.627,0,0,0-1.1-.9,9.656,9.656,0,0,1,.3-1.8c.7-.4.6,1,1.1.9.4,0,.4-.9.7-1-.7-.6-.3-1.4-1-2.1.1-.3.4-.3.3-.9.6-.3.5.7,1,.6-.4,2.1.5,3.1,1.2,2.9C144,45.6,143.4,47.4,142.5,47.2Zm1.5,9.4c-.3,0-.1-1.3-.2-1.8a.756.756,0,0,0,.8.3C144.6,55.8,144.1,55.8,144,56.6Zm6.1.3c-.4-.1-.8-.4-1.2-.5.4-1.3,0-1.5-.1-3,1-.1.8,2.3,1.5,3C150.1,56.3,150.1,56.6,150.1,56.9Zm-.3-7.6c-.2.9-.6-.7-.5-1.5h-.9c-.5.8-.4,1.2-.1,2.4-.4.9-1.7-.8-2,.7-.5-.5-1.3-.5-1.7-1.1.3-.6,0-.4,0-1.2,1.1.7,1.4-.4,2.1-1-.3-.4-.5-.8-.8-1.2-.2.8-.7.6-1.1.3a11.745,11.745,0,0,0-.1-2.7,1.1,1.1,0,0,1,1,.6c.4-.5,0-1,.3-1.5,1-.6,1.4-.7,2.4-1.3-.2,1.4.5,1.1.8,1.5-.6.3-.8,1.2-1.4,1.6v1.5c-.9-.2-1,1.3-.7,2.4,1-1.5,2-1.7,2.3-4.6.7,1.5,1.7,1.1,2-1,.8,1.1-.2,2.2,0,3.9-1-.4-1.9,1-1.6,2.2Zm2.9,6.8c.3-1.9,1.4-.5,1.8-1.9.4.1.3,1.6,1,1.1-.2,2.4-2,.9-2.8.8Zm7.7,4.2q.15-.9.9-.9C161.3,60.3,160.8,60.3,160.4,60.3Zm.2-12.4a6.965,6.965,0,0,0-1.3-3c-.4.1-.3.8-.3,1.5-.5.4-1.2.4-1.7,1,.2,1.4,1.5.5,1.6,2,.4-.4.6-.8,1.1-.3-.6,2.7-3.1,1.7-3.1,4.7-.8-3.3-2.7-2.5-4-3.4-.8.4-1,1.8-2.1,1.6-.4-2.9.7-3.7.9-5.2.5.1.6,1.2.8,1.8.6-1.4,1.7-.8,2.6-.4.3-.6-.2-.8-.1-1.8.4,0,.5-.5.6-.9.5-.2.4.9,1,.6,0-1.4.9-1.3.7-3.1.6-.4,1-.2,1.7-.1a3.269,3.269,0,0,0,.6-2.1c1.7,1.9,2.2-1.8,3.3-2.6.3.7.2,2.3.6,3-.1,1.1-.9.7-1,1.9.4-.6,1.6.2,1.7-1,.8.4.1,1.4.4,2.1a1.778,1.778,0,0,1,1.5-1.6c-.1-.8-.7-.5-.8-1.2,1.1-3.1,1.5,2.5,2.7,2.3a3.717,3.717,0,0,0-.1,2.1c-.1.5-1.1,1.2-1.2.1-.1,1.2-1.6,1.9-2.7,2.2a5.2,5.2,0,0,0-1.1-2.1,3.807,3.807,0,0,1-2.3,1.9Zm2.2,1.1c-.3-.3-.6-.2-.5-1.2h.6C163,48.4,162.8,48.6,162.8,49ZM170,59.8c-.6-1.4-1.5,1-2.5-.2-.3-1.5.9-1.7.5-2.4,0-1,.7.8.8-.4a1.737,1.737,0,0,1,.3,1.2c.6-.9.8-.3,1.5-.1C171,59.4,170.2,59,170,59.8Zm2.3-1.9a2.094,2.094,0,0,1-.1-2.4A3.91,3.91,0,0,1,172.3,57.9Zm5.4-11.4c-.2.3-.2,1-.4,1.2.1,1.3.8,1.4.7,3-.3-.5-.2,0-.6,0,.4-2-.7-2.1-1.3-3-.2.2.2,1.5-.4.6.3,2.4-1.6,2.9-2.3,4.3-.5-.6-.8-1.4-1.6-1.4,0,1.4,1,.8,1.4,1.4-.1.9-.6,1.2-.7,2.1-.7.3-.9-.4-1.4-.5.1-2.6-1.3-3.8-1.9-2.6-.1.7.3.7.2,1.5a2.524,2.524,0,0,0-.7,1.8c-1-.9-.8,2.3-2.1,1.9-.1-.8-.5-.9-.5-1.8.7-1,2,.3,2.2-1.9-.1-1.2-.9-1.5-.6-3-.7,1.3-2,1.4-2.3,3.4a1.95,1.95,0,0,1,0-1.5,1.47,1.47,0,0,0-2.2-.8c0-.3,0-.5-.2-.6.2-3,2.4-1,3.2-2.3.8,1.3,1.5-1.2,2.3-.7.1-1.2-.7-.5-.7-1.8.2-.5.4-1.1,1-.9-.2,1,.5.2.3,1.2.3.1.3-.3.5-.3.1-1.1-.4-1.1-.4-2.1.7-.8.9.7,1.5-.1-.1,1.4-.4,2.5-1.1,2.7.2,1.9-.2,2.4.9,3,.4.2-.2-1.4.3-1.2.5-.1.5.9.5,1.8,1.5-.3,1.2-3.2.9-4.6.1-1.1.6-.3.9,0,.8-.2.1-1.8.4-2.4,0-.3-.7-1-.8-.3-.2-.2-.2-.9-.4-1.5.5,0,.6-.8.9-1.2.5.1.5,1.2,1,1.5.8-.2,2.4-.9,2.9.5a10.735,10.735,0,0,0-.4,2.1c.7.2.7,1.3.8,2.1.2-.3.5-.3.7-.6-.5-1,.1-2.2.8-1.8a8.172,8.172,0,0,0,.1,2.7c-.7-.3-.9,1.4-1.4.1Zm1.2,6c-.2-.4-.3-.9-.5-1.2.1-1,.7-1,1.2-.7-.1.2-.2.8,0,.9A1.156,1.156,0,0,1,178.9,52.5Zm.6-9.7c.1-.9-.4-.6-.3-1.5.9.4,1.8-.3,2.5.2.9-.5,0-2.5,1-2.8C182.8,43.3,181,41.5,179.5,42.8Zm1.2,1.5c0-1.1.6-1,1.2-.9l-.3,1.2C181.2,44.8,181.2,44,180.7,44.3Zm2.7,16.4c0-.5.2-.7.1-1.2.3-.3.6.9.6,0,.5.5-.4.9-.7,1.2Zm9.8-17.6c-.7-.1-.7-1.7-1.4-1.7-.4.5-.9,1-1.3,1.6a4.9,4.9,0,0,1,.6,2.7c-.9-.2-2-.5-2.1,1.3.1.8.9.1.8,1.2,1.4-.1,2.8-6.8,3.5-1.4-.4-.1-.3.6-.8.3,1.3,1.8-.1,4,.2,6,0,.5-.5-.2-.6.6-.3.2.1-1.4-.5-.9a11.187,11.187,0,0,0,.2,3,.812.812,0,0,1-.8.4,1.6,1.6,0,0,0-.1-1.5c-.2,0-.6-.1-.6.3a8.683,8.683,0,0,1-.4-2.1c-.5-.2-.6.5-1.1.3.2-2-.8-1.3-.7-3-.6,0-.6,1.2-1.3,1a6.191,6.191,0,0,0-.2,2.1c-.9-.9-2.4-.7-2.7-2.9-.8.3-1.9,1.2-2.6.7,0-1.1.7-1,1-1.5-.4-1.9.2-2.5.5-4,.4,0,.7-.1.9.3,0,.6-.3.8-.4,1.2,1.1,1.1,1.2-1.9,1.6-3.1.5-.2.9.8.9-.6.4-.1.5.6.9.6.6.3.3-1.5.7-.6v-.9c-.3-.8-1.1-.1-1.2.6-.6-1-1.7-.9-2.8-.8,0-1.1-.2-1.5-.5-1.8,1.2-1.1,2.3.7,3.7.7.8-1.4,1.6.1,2,1.4.5-2.7,2.6-.6,3.3-2.9.6.3.9,1.2,1.6,1.4.2,1.2-.3,1.1-.3,2Zm2.1,12.2c-.2-1-1-.7-1.4-1.1a4.693,4.693,0,0,0-.3-2.4c.8,0,.9,1.8,1.7,1.7A10.65,10.65,0,0,0,195.3,55.3Zm-.3-8.7a12.092,12.092,0,0,0,.5-1.8,5.271,5.271,0,0,1,.5,1.5C195.7,46.5,195.3,47,195,46.6Zm-.3-5.4c.5-1.4,1.3-.6,2.3-.7C196.6,42.5,195.4,42.7,194.7,41.2Zm5.6-11.6a1.737,1.737,0,0,1,.3,1.2c-.5,1.2-1.1-.8-1.2,1.3-.9.2-1.5-.2-2.3-.2.3-2.9,2.2-.7,3.2-2.3Zm42.2,27c-.2-2.1,1.1-1.6,1.7-2.5-.1,1,.3,1.1.2,2.1C243.6,57,243.4,57.1,242.5,56.6Zm2.3-2.7a3.765,3.765,0,0,1-.7-1.8c.4-.6,1.4,0,1.4,1.4-.2.2-.8-.3-.7.4Zm1.9-1.3c.3-.7.4.5.8.5C247.4,53.8,246.6,53.3,246.7,52.6Zm5-3.6a6.673,6.673,0,0,1-2.8.1,6.5,6.5,0,0,0,.2,2.1c-1,.3-2.1,1-3.2-1-.1-.8.3-.6.2-1.2-.8-.2-1.1.7-1.5-.2.4-1.4,1.2-2.6,2-1.6,0-1.3-.6-1.2-.8-2-.9-.2-1,1.6-1.8,1-.3.5,0,1.8-.3,2.1-.9-.2-1.4.4-1.8,1.3,0,1.1.6.7.8,1.2.2.8-.2.8-.1,1.5-.9-.8-.8.5-.9,1.5-1.1-.6-2.5,1.2-3-.8.6.2.8-.3,1.3-.4a2.29,2.29,0,0,0-2.3-1.1c-.2.1-.4.9-.4.9-.7-.2-1-2.2-1.7-1.4-.3-1.3,0-1.8-.3-3-1.2-.3-1.1,2.7-2.2,1.6,0,1.7.6,3.2,0,4.2.1.9.6,1,1,1.5-.1-1.3.4-.3,1-.9,0-1.1-1.1,0-1-1.5.2-1.2,1-1.9,1.8-1.3a20.928,20.928,0,0,1-.4,4.5c-.2-.3-1.2-1.4-1,.3h-.9c-.7-1.6-.9-4.4-2-5-.3.1,0,1.5-.1,2.1-.6.7-1.3,0-2-.2a3.253,3.253,0,0,1,.1-1.5q-.3.15-.3-.3c-.7,0-.5,1.7-1.5,1.3-.1-1.6-.2-2.2-.3-3.3h.6c0-.5-.2-.5-.2-.9-.7,1.3-1.6.1-2.6.1a19.056,19.056,0,0,1,.7,3c-.9.2.1,2.1-.3,3-.4-.1-.1-1.4-.6-1.2-.5.3-.6,1-.4,1.8-1-.1-1.6-1-1.6-3.2a1.345,1.345,0,0,1,.9.9c.3,0,.1-1,.4-.9-.1-.4-.3-.4-.3-.9-.8-.4-.7,1.2-1.1,0a7.931,7.931,0,0,1-2.2,3.1c.1-1.1-.4-.8-.4-1.8-.3.1-.3.8-.6.9,0,1.2.7.9.7,2.1-1.3,1.5-1.2-4.3-.7-5.1-1-1.3-3.1.5-3.6-3.7.7-.3,1.6-1.8,1-2.7-1.4-.1-1.4,2.3-2.5,2.5a5.892,5.892,0,0,1,.2-2.1c-1.1-1.6-2.3,2.7-3.8.5a5.387,5.387,0,0,0-.5,2.1c.4.9.6.2,1.2.5-.7-1.2.2-1.2,1-1.2-.1,1.1.3,1.3.8,1.1.3,2-.7,1.8-.6,3.3-.6.2-.8-.4-1.1-.8-.5,0-.5.8-1,.6a2.153,2.153,0,0,0,1.1,2c-.5,2.1-1.5,1.9-2.4.7a6.183,6.183,0,0,0-.4-3c.7.5,1.4-3.3.2-3.3-.6,1.1-.1,3.6-.7,3.9,0,.3.3.3.4.3-.4,1.5-.8,3.1-2.2,2.8,0-.5-.2-.6-.2-1.2-.6-.3-.6.7-1,.7-.2-.4-.3-.9-.5-1.2.1-.5.5-.5.7-.6-.1-3.2-.7-8.1-3-5.6a23.327,23.327,0,0,0,.3,3c-.7-.2-.7.8-.8,1.5.2.4.7.2.5,1.5-.8,0-.8-.2-1.3.4,0-.9-.4-.8-.6-1.2.2-1.3.4-2.6,1.3-2.7a7.456,7.456,0,0,1-.3-2.4h-.6c-.1,1.4-.6,2-.5,3.6-1,.6-1.5.5-2.1,1.9,0-.3-.2-.2-.3-.3.2-1.1.2-1.2.9-.9-.1-.6-.4-.6-.6-.9.4-.8.4-.9.2-2.4-.4-.2-.4-1-1-.9,0-.9-.4-1.2-.1-1.8-.4-.7-.3.5-.7.3-.1-1,.2-1.6.7-1.5,0,1.7.9,1.2.9,3,.5,0,.4-1.1.4-2.1.4.1.6-.1.6-.9.8,0,1.1.5,1.4-.7,1.1.6,2.4,3.5,3.3.8.8,1.4,1.7,2.7,3.1,2.8,0-1.2-.9-.2-.9-1.1-.1-1.4.9.6.4-1.2,1.8,1,2.1-1.9,2.6-3.1,1.6.4,1.4,1.6,3.1,1.4.2,0,.5-.6.7-.6.5,0,.8.7,1.5-.1,0-1.2-.6-1.2-.4-2.7.5,1.2.7-.2,1.1.2.1,1.5-.3,2.6,0,3.6.5.2.4-.9.4-1.8.7.1,1-.6,1.8-.4.2.4.1,1.5.5,1.5,0-1.8,1.8-.6,1.7-2.5.5-.2.4.9.9.5a9.722,9.722,0,0,1-.1,1.8c1.1.7.6-2.7,1.4-1.6.3,0-.2-.7-.1-1.5-.5-.5-.6-1.6-1.3-1.7-.3-1.6.5-1.3.3-2.7.9,1,1.2,3.2,2,4.4,1.2-.8,1.9.6,2.5-1.6-.4-1-1.3-.7-1.7-1.7.5-1.7,1.7.3,2.7-.7-.5,1.2-.5,1.8-.3,3.9,1.2-1,2.2-3.3,3.8-2.8.1-.9-.2-.8-.2-1.5,1.2,1.4,1.7.9,2.9.7,0,1.7-.7,1.9-.3,4.2-.2.6-1.1.1-1,1.2.3.5.4-.2.8.6.1-.8.7-.8.7-1.8,1.1.3,1.6-1.5,2.5-.7.6-.1,0-2.2.3-2.7.7.2.6.6,1.4.2,0,1.6.5,1.7.6,2.7-.7.6-1.3,1.4-1.1,3.9,1.1-2.4,3.2,0,3.8-3.5.5,0,.7,1,.7,2h-.6c.5,1,.3,1.6.6,3,1,.2.9-1.4.6-2.7,2.4-.4,2.9-4.4,5.9-3.2.1.7-.2.9-.2,1.5-.4,0-.9-.1-1,.3.6,1.8-.4,3.2,1,3.2-.1,1.3-.6.8-.9,1.2.2.6.8,1.6,1.4,1.4.3.6,0,.4.1,1.2.5,0,1-.6,1.2.5.7-.8,1.5-.6,2.1.2.1.6.1,1,.2,1.5Zm.7-10.1c-.4,1.1-.9.8-1.8.7a6.141,6.141,0,0,1,.7-1.8c0-.9-.2-1.2-.5-1.4.4-.9,1.3-1,2.2-1-.4.9-1.2,1.5-.6,3.5Zm.3,2.7a6.1,6.1,0,0,1,.3-2.7c.7-.1,1.4-.1,1.4,1.4-.3.1-.5-.2-.5-.9-.1.1-.1.3-.3.3-.3.2.1,1.8-.2,2.1-.4.3-.4-.4-.7-.2Zm.1,3.2c.1-.6.3-1.1.8-.9a4.868,4.868,0,0,0,.1,1.2c-.3,0-.7,0-.9-.3Zm3.7,5.2c-.5.2-.3-1.2-.8-.9-.5.6,0,2.8-.8,2.7.2,1.4-.2,1.6.1,3.3-.3,0-.4.5-.9.3a8.242,8.242,0,0,1,.2-2.4c-.1-.8-.7-.5-.7-1.5,1.3.4.4-3.1.7-4.2,1.1.3,2.1-.3,2.7.5a7.85,7.85,0,0,1-.5,2.2Zm2,2.6c.2-1,.8.3.7-1.2C260,51.6,259.2,53,258.5,52.6Zm2.3-3.4c-.9.1-.2-1.4-1.1-1.1.4-1.1.7-.1,1.4-.1,0,.6-.4.4-.3,1.2Zm2.8,4.6c-.2-.9.5-.4.2-1.5,0-.3-.2-.2-.3-.3.4-.7,1.5-.2,1.8.5C264.9,53.2,264.2,53.1,263.6,53.8Zm2.1.3c.4-1.9-.6-2.1-.5-3.3,1.2.8,2.2,2.1,2.3,5.2C266.4,56.5,266.8,53.5,265.7,54.1Zm1.3-2.5c0-1.5.7-1.7,1.3-.9C268.3,52.1,267.5,52.4,267,51.6Zm4.5,2.5a.438.438,0,0,0,.1.3c-.3.8-.4-1.5-.8-1.5.1-.5.5-.3.3-1.2.4.6.3-.2,0-.3.2-.7.3-.5.7-.3-.6,1.2.5,2.3-.3,3Zm1.3,2.9c.4-.1.8-.1.8.9C273.3,57.6,272.8,57.9,272.8,57Zm4.7-5.3c-.9-.8-1.5,1.2-2.6,1-.8-1-1-3.4-2-4.1-2,.8-3.6.5-5.5.5-.2,0-.1.5-.1.9-.7-1.5-2.7.2-2.7-2.9h.6c-.6-3.1-2.5-1.3-3.7-3.1-.2,0-.1.5-.1.9-1.1-1.3-3,.9-4-1-.7,0-1,1.1-1.9.4.1-1.4,1.4-.5,1.6-1.9.9.9,1.8.5,1.9-1.3.9.5.9.3,1.8-.1,0,.9.5,1.1.2,1.8.9,1.1,2.2.4,3.4-.5a3.843,3.843,0,0,1,.2-2.4c-.2-.6-.7-.4-.9-.8.1-.6.8-1,.9,0,.2-.1.1-.6.1-.9,2.4,1.6,2.1-3.6,3.8-3.1,0,2.5-1.1,1.5-1.5,3.3a2,2,0,0,1,.2.9c1.1,0,1.4.9,2.2-.1-.1-.8-.7-.3-.7-1.5.2-.5.8-.3,1.3-.4v.9c.3.1.4-.2.6-.3-.7-.6-.3-.6.3-.3.3-2.4,1.2-4.1,2.6-2.5.1.8-.3.6-.4.9.3.5.8.9,1.1,1.4a2.219,2.219,0,0,0-.1.9c1.2.7.7,3.5-.6,2.4.1-1.5-1.4-1.9-1.5-.8.3.9.6-.3,1,0,.2,1.4-.6,1.2-1.1,1.2.1,1,1,1.7,1.4.8a22.574,22.574,0,0,1,.4,2.9,2.459,2.459,0,0,0-2,1c.7.5,1.1-.3,1.1,1.4,1.9-.9,3.2,1.3,4.7-.5-.8-1.9.7-1.7.4-4.2.9-.3,2.4-.9,3.6.4a2.676,2.676,0,0,1-1.1,1.8c.1.8.7.5,1.1.5-.7,1.7-1.3-1.6-2.3-.8-.6.4.3.9-.1,1.5-.3,0-.5-.5-.9-.3,0,1.3.8,1,1,2-.7,2.7-1.2,1.9-1.7,4.1Zm2.8,3.7c0-.7.6-.2.9-.3C281.2,55.9,280.6,55.8,280.3,55.4Zm6-2.9c.1-.8.5-1.1.5-2.1-.5-.7-1.7-.4-1.6,1,.1.7.4.6.8.6-.4,1.8,2,1.4,1.6,3.2,0,.9-.6.8-.8,1.5-.6-.4-1.1-1.1-1.8-.5-.2-1,0-1.4.5-1.2.2-1.9-.8-.9-.9-2.4-.4.4-.8.5-.9-.5-.8.5-1.8.1-2.6,1.6-.3-.5-.6-1.2-1.1-1.4-.1-.9.3-1.2-.1-1.8-.5.1-.7,2.2-1.3.6.1-.4.6-.3.4-1.5.6.6.8.1.9-.9,1.1-.2,2.2.8,3-.4.7,1.7,1.5.6,2.5.2.9,4,4.1-2.3,5.6,1.5-.6.3-.6,0-1.3.1,0,.5.2.6.2,1.2-.2.1-.3-.2-.5-.3-.2,3.4-1.6,1.1-3.1,1.5Zm4.6-.6c-.6-.3-.8.7-1.2.1C289.7,50.7,290.9,50.9,290.9,51.9Zm1.8,4.1c-.3-.4-.8-.4-.8-1.4-.9.8-1.9-.1-3,.7-.2-1,.2-.9.3-1.5,1.7.3,3.4-1.4,4.5,1.3C293.1,54.9,292.7,54.6,292.7,56Zm-1.2-6.8c0-1,.6-1,1.3-.9-1-2.6-2.9.5-4.3-1,.1-.7.4-.8.5-1.5.1-.8-.3-.6-.3-1.2a2.969,2.969,0,0,0-.5,1.8c-1.1-2.4-2.9.7-4.2-1a1.574,1.574,0,0,0-.1-1.2c0-.8.3.4.6,0-.3-.8-.5-1.7-.7-1.1-.6-1.3,1.4-.3,1.1-1.9.5.7.9.3,1.6-.1,0-1.2-.9-.6-.7-2.3.6-.1,1.1-.6,1.6-.1.1-.1.1-.3.3-.3,0-.8,0-1.8-.4-1.8.1-.5.4-.7.8-.6a1.981,1.981,0,0,1-.5-1.7c.7-.5,1.5-.9,1.9.2-.2.9-1.1.6-1.1,1.8,0,1.9,1.5.3,1.4,2.3q.3-.15.3-.9c1.2,1.1,2.3-1.6,3.9-1.4.4,1,1.3.9,1.9,1.7.5-.7,2.4.5,1.2.5a7.1,7.1,0,0,1-2.3,1.9c1.3,1.3.2,2.8.5,4.7a7.488,7.488,0,0,0-3.1.4c.5,1.8,2.1.6,3.1.1-.1,1,.4,1.3.1,1.8-.4-.4-.6-.1-1,.3,0,.8.6.2.5,1.1a1.376,1.376,0,0,0-.2,1.2c-1.1.8-1.9.4-3.2-.8Zm3.2,6.1c-.1-1.5,1-1.2,1.4-.9A4.826,4.826,0,0,1,294.7,55.3Zm.7-7.1c.7,0,1.1.6,1.4,1.4C296.1,49.8,295.1,49.6,295.4,48.2Zm3.3,2.2c-.2.4-1.1-.6-1.1-1.7.5-.7.8-.5,1.3.2.2.8-.7,1.1-.2,1.5Zm1.7-.4c0-.8-.3-1-.7-.8.4-1.1.7.1,1.5-.1.2,1-.6.5-.8.9Zm.4,3c-.1-.6.1-.8.1-1.2.3.5.7.6.8,1.4C301.3,53.4,301.3,52.7,300.8,53Zm1.3,3.7c0-.7-.1-1.4-.1-2.1.5.2.9.7.8,2-.2.7-.3,0-.7.1Zm4.5-8.2c.5.2.6,1.2.8,2.1C307,50.2,306.3,49.3,306.6,48.5ZM316.7,54c-.1,0-.1.1-.1.3-.5-1.5-.6.4-1.2.3.4-.7.4-1.1.2-2.4.7-.3.8,1,1.3,1.4,0,.3-.1.3-.2.4Zm3.4-.2c-.8-.7-1.4.4-2.8.4C317.4,52.4,319.9,52.1,320.1,53.8ZM315.7,46c0-.5,0-2.2.6-2.4.2,1.7.6,2.8,1.3,2.6a10.805,10.805,0,0,0-.5,2.1c-.5-.1-.8-.7-1.1-1.1-.2.1-.2.5-.4.6.2,1,.5,1.8.7,2.6-1.1.3-1.9,1.6-2.7-.2.1.7-.4.7-.7,0a2.646,2.646,0,0,0-.4,1.8c-.7,0-.6-2-1.3-2,.3-1-.5-2.4.5-2.4-.1-1.2-.5-1-.1-2.1-.9-.4-.1,1.4-.7.6,0,.5.2.6.2,1.2-.7.1-.6,1.4-1.3,1.5.5,1.6-.4,1.6-.8,2.4a3.909,3.909,0,0,1-.5-3.2c-.6-2.5-1.6-1-3-1-.2.3,0,1.6-.7,1.2.5,1.8-.7,2.2-.9,3.6-.6,0-1.2.1-1.8.1-.3-1,.1-1.1.2-2.1-.2-.4-.5-.4-.8-.5.6-.4.9-1.2,1.4-1.8,0-.7-.3-.6-.2-1.5.1-.3.9-.7,1,0,.5-.4.1-2.6.8-2.7-.4-1.4-1.6-.4-2,.4-1.2-.4-3.7-.5-4.3.5a5.082,5.082,0,0,0-2.2-1.1,4.8,4.8,0,0,1,1.8-2.5c.2.6.3,1.3.7,1.4.2-.1.1-.7.1-1.2,1.5.1,1.6.8,2.7-.4.8,2.5,1.9-.8,3.4.7.4-.2-.5-.9-.1-1.5-1.2-.5-1.8-.9-2.8.4-.5-.2-.8-.6-1-1.7,1,1.1,1-1.2.9-2.1,1.2-.7,1.5,1,2.8.2a6.606,6.606,0,0,1,.5,1.5c.8-.3,1.3.4,2.1.2,0-1.1-.4-1.4-.4-2.3.5-.8,1.5-.5,1.9.5.2-.8-.1-1.2.4-1.8-.1-.8-.6.6-.9-.3,0-.5,1-.3.4-.9.9,0,1-.6,1.9-.1-.3-1.1-1.3-2.1-1.1-3.5-.6-.6-1.1-1.3-2-1.4-.1.7-.5,1.1-1.1.9.2,1.2,1.3.2,1.5,1.1.2.1.5-.9.1-.9.3-.5,1.1,1,1.3,2-.3.2-.5.5-.8.6v-.9c-1.8.8-3.3-2.3-3.6-4.2.9.6,2.1.6,2.3-1.6.4.2.8.5.7-.6a1.907,1.907,0,0,1,1.3.2c.5-.8.8-2,1.5-2.4,0,.3.2.2.3.3,0,.6.1,1.2.1,1.8.5,1.3.8-.6,1.8-.1a6.69,6.69,0,0,0-.2,3.2c-.5-1-1-2-2.1-1.7.1.9.3,1.8.7,2-.5.5-.7,1.5-1.3,1.8.1,1.8,1.1,1.8,1.2,3.8a16.947,16.947,0,0,1-.5,2.4c.5.9,1.2,0,2.2.5-.1,1,.3,1.1.2,2-.4-.1-.4,1.1-.9.3.1,2.2,1.4,1.9,1.4,4.4-.6.3-.6-.7-.9-.9-.1,1.1-1.1.8-1.2,1.8.1.7.7.9.4,1.8.6-1.9,1.8-1.2,3-1.3C315,46,315.6,45.4,315.7,46Zm.3-14.1c-.2-.3-.1-1.1-.5-.9-.1-.8.3-.6.2-1.2.4.3.5,1,1,1.1C316.5,31.3,316.4,31.8,316,31.9Zm11.7.9c-.8-.5-.8-1.1-2.2-.8a17.267,17.267,0,0,0-2.5-4.9c0,.7-.2,1.2-.2,2.7-.2.1-.3-.3-.4-.3-.1,2.1-2,3.7-2.5.7.7,0,.9-.8,1.4-1.2-.1-1.4-.9-1.1-1.3-1.7a4.757,4.757,0,0,1,.5-1.8c-.2-2-.7-.2-1-1.1-.7-.1-.4,1.4-.6,2.1-.8,0-1.2-.7-1.8-1.1-.6.1-.4,1.7-1.1.9.7-1.8-1.2-2.9-1.4-2-.2-.1-.3-.5-.5-.6.7-.5,2.1-1,2.7,1,.5-.7.6.2,1.2.3.3-.1-.1-1.6.2-1.8.7.7,1.5-.5,2.5-.1a4.879,4.879,0,0,0,1.3,2.6c.4-2,2.4-3.8,2.5.5-.5-.1-.5.5-1,.3,1.1,1.3,1.6,4.9,3.4,3.7C326.8,31.8,327.8,31.1,327.7,32.8Zm-1.7-4c.1-.7.9-.3.7.6C326.4,29.4,326.3,28.9,326,28.8Zm3.6-.8c-.2-1.2.4-1.5.7-.9C330.1,27.5,330,28,329.6,28Zm1,2.3c0-.5.3-.7.2-1.5a1.538,1.538,0,0,1,.5,1.4A1.483,1.483,0,0,1,330.6,30.3Zm5.7-.2c-.2,1.1-.7.5-.6,1.8-.7-.8-1.4-2.7-2.4-1.4-.1-.5.1-.5.1-.9-.2.1-.3-.1-.3-.3-.5.3,0,.5-.1,1.5-.5-.9-1-2-1.6-2.9.6.1.6-.7.8-1.2-.3-.7-1.2-.2-1.1-1.7-.6-.2-.5.7-.7,1.2a1.173,1.173,0,0,0-1.9.7c-.7-1.3-1.5-.8-2-2.6-1.1,1.2-.8-1.7-1.7-1.7a3.427,3.427,0,0,1,.6-1.8c0-.9-.5-.7-.2-1.4s.8,0,1.2.2a12.239,12.239,0,0,0,.6-3c.9.4,1,1.6.4,2.6.1.3.3.4.5.6a7.589,7.589,0,0,1-.6,1.8c-.4-1.2-.8-.3-1.5-.2-.2,1.6.6,1,.6,2.3.6.2.7-.4,1.1-.3.3.6,0,.6-.1,1.2.3,1.3.7.4,1.2.8.5-.1-.4-1.1.1-1.2a2.321,2.321,0,0,1-.9-3.2c.4.6.7,1.6,1.1,2.3.5,0,.5-.8,1-.6.1.4.2,1.1.5,1.1a2.6,2.6,0,0,1,3.4-.4c.4-.1,0-1.6.5-1.5.4.9-.3,1.2,0,2.6-.4.2-.4-.5-.9-.3a12.03,12.03,0,0,1,1.2,3.5c1.7-.9,2.6-.3,3.9-.5,0,1.2.2,2.1.4,4.4A1.986,1.986,0,0,0,336.3,30.1Zm2.6,4.3c-.3-.5-.3.2-.7,0,.1-1-.3-1.1-.3-2,.2-.3.4-.4.7-.3C338.6,33,338.9,33.3,338.9,34.4Zm-.8-9.1a3.685,3.685,0,0,0-.1-1.5c0-.6.9-.3,1,0C338.7,24.2,338.6,25.2,338.1,25.3Zm1.4-4.1c0,.8-.9,1.5-1.2.3.5-1.9,1.9-1.8,2.8-.4,0,.9-1.5.9-1.6.1Zm.5,10.5c.2-.4.1-1.3.5-1.2C340.7,31.4,340.5,31.8,340,31.7Zm.4-1.5c.2-1,.6-1.4.8-2.4.8-.2,1,1,1,2.6C341.4,30.7,341.1,30,340.4,30.2Zm2.6,2.2c.1-.6.6-.8.9-.3C343.8,33,343.3,32.5,343,32.4Zm-4.5,21.7c.3.3.7.2.6,1.1C338.7,55.4,338.4,55,338.5,54.1Zm.4-4.5c.6-.2.6,1,1.1,1.1C339.9,52.3,338.6,50.4,338.9,49.6Zm18.9,5.6c.2.1.3.5.5.6a4.8,4.8,0,0,0,0,2.4c-.5-.1-.5-1.6-.7-2.3C357.8,55.9,357.8,55.6,357.8,55.2Zm-8,.1h.6c.3,1.3-.2,1.4-.3,2.1a2.524,2.524,0,0,1-.3-2.1Zm-5.1-25.6a15.14,15.14,0,0,1,.3-3.2C345.1,26.1,345.7,29.4,344.7,29.7ZM362.8,21c-.4,0-.6-.4-.6-1.1C362.7,19.1,363.2,20.1,362.8,21Zm-6.2,0c-.1.9.4.6.4,1.4-.5-.3-.8.3-1.3-.2.1-.7.3-1.4.9-1.2Zm.5,6.1c-.1,1.2-.6.2-.7-.3C356.5,26,357,26.8,357.1,27.1ZM354.8,17c0,1-.5.4-.8.3C354.2,16.7,354.4,16.8,354.8,17Zm1.1,6.9a5.864,5.864,0,0,1-.2,2c-.6-.1-.8.6-1.4.3.1-1.1-.4-.8-.4-1.7.6-.1,1.5-1,2-.6Zm-5.8-.3c.6-.8,1.1-1.1,1.8-.7-.1,1.2-.7,1.3-.7,2.7-.6,0-.6-1.7-1.1-2Zm3.5,8.9c0-.9-.4-1.4-.1-2-.9-.6-2-.7-2.7-1.9.8-.8,1.1-1.3,2.1-1.3.4,1,.5,3,1.5,2.9,0,1.3.3,1.9,1,1.7C354.9,32.9,354.4,31.4,353.6,32.5Zm2.3,3.7c.1-.6.4-1.2.7-.6C356.5,36.2,356.2,36.8,355.9,36.2Zm3.7-3.1c.1-1.1-.3-1.6-.1-2.1a7.569,7.569,0,0,0-1.5.1c-.4.2-.2,1.4-.5,1.8-.4.3-.5-.5-.9-.2-.1-2.9-.8-2.6-1.5-3.7.6-1-.1-1.4.3-2.3.4,1,.7,2.1,1.7,1.7,1.1-4.3,2.3.9,3.5,2.7.6.1.7-.5,1.3-.3C361.7,32.9,360.5,32.4,359.6,33.1Zm.6-7.9c.4-.6.7.9,1.2,1.1C361.2,26.9,360.3,26.1,360.2,25.2Zm2.2-1.3a7.308,7.308,0,0,1,.4,2.3c-.4-.1-.3.5-.7.3A10.547,10.547,0,0,1,362,23c-.6-1.1-1.4.9-2.1-.8,0-.5-.3-1.7.1-1.7,1.1-.6,2,1.1,3,1.3.1,1.2-.7.9-.6,2.1Zm4.1-2.7c0-.5-.1-1-.1-1.5C366.9,19.6,367.1,21.3,366.5,21.2Zm1.9,6a.845.845,0,0,0,.2.6c-.4.8-.8.2-1.6.6-.6,2.5-1.7,6.5-3.3,2.8-.8-2.8,1.6-3.2,1.8-6.5.4.2.3-.4.7-.3.3.5-.1.7.1,1.7,1.6,1.1,2.9-2.5,3.7,1-.8-.2-1,1.4-1.6.1Zm5.8,23.4q-.6,0-.6-1.2c.2-.2.6.8.7,0C374.8,49.7,374,49.9,374.2,50.6Zm.7-23.4c-.5.2-.7-.6-1.1-.8a1.339,1.339,0,0,1,.9-1.2C375.1,25.9,374.5,26.3,374.9,27.2Zm-.1-7a2.572,2.572,0,0,0,.1,1.5c-.6.2-.6-.9-1.3-.5,0-1.1.6-1,1.2-1Zm-.1,2.9c-.6.5-1-1.1-1.4.3-.2-.4-.2-1.1-.5-1.1.2-1,1.9-.9,1.9.8Zm-4,1.9a3.529,3.529,0,0,1-.3-2.3C371.2,22.8,370.9,24.3,370.7,25Zm.3-2.3c.3.1.5.6.8.8.3-.1,0-1.3.4-1.2.8.3.5,1.4.4,2.6h-.7c-.1-1.4-.5-.3-.9-2.2Zm.9,7.5c.5-.1.7.3.8,1.1C372.2,31.5,371.9,31.3,371.9,30.2Zm.6-2c-.1-1.1.2-1.8.7-1.8C373.6,27.2,373.1,28.3,372.5,28.2Zm3.1,5.1c-.5-.2-.8-.8-1-1.7-.4,0-.9.2-1.2-.2.1-.8.8-.5.5-2.1.6,1.1,1,.5,1.9.8-.5.2.3,2.6-.2,3.2Zm.1-5.3c-.2.9-.2-1.5-.7-1.1.2-1.1,1.3.2,1.8-.7.2,1.5-1.5.7-1.1,1.8Zm3.9.7c-.5-1.3,1.1-1,.5-3.2a7.973,7.973,0,0,1,1.6.8c-.1.9-.5,1.2-.6,2.1-.4.2-1.3-.4-1.5.3Zm.6,3.5c-.2-1.3.8-.4.5-1.8.5-.3,1.1-.6,1.2.8C381.3,31.3,380.9,33,380.2,32.2Zm2.9-7.7a.874.874,0,0,0-.9-.5c0-.7.7-.2,1-.3,0,.6.3,1.9,0,2C382.6,25.9,382.9,24.6,383.1,24.5ZM233.7,6.5c.1-.9.6-.1.6-.6-.5-.3.4-.1.1-.9-.6.4-.7,0-1.5.1,0,1,.6.7.8,1.4Zm120.7-2c.7-.4.9.5,1.3.8-.4-1.1-.2-2.5.6-2.4.4,1.1-.2.9-.2,2.1.4.5,1.1.1,1.2,0-.9-.5-.4-2.8-1.1-3.5A4.522,4.522,0,0,0,354,3.4c.3,0,.2.9.4,1.1Zm13.4-.8c.3-.1-.2-1.7.5-1.2.1,1.1.2,3.2-.1,3.5.7-.3,1.1-1.7,1.7-.6.2-.7-.6-.9-.2-1.2.5.2.4-.5.7-.6.5.8,1.4.6,1.7-.6-1.4-1.5-3,.5-4.5-1,.1.7-.5,1.7.2,1.7ZM235.3,8.2c-.2,1.5,1.3,1.5,1.4.5-.3-.5-1.1-.1-.5-.9C235.7,8.4,235.6,7.8,235.3,8.2ZM377,5.6c-.3-1.3.9-1,.5-1.8-.7.7-1.8-.3-2.9-.2C375.1,5.5,376.1,4.8,377,5.6ZM25.8,18.6c0,.8-1-.2-.9.6.6.6.2,1.8,1.1,1.2-.7-.4.1-1.6-.2-1.8ZM320,8.8a5.526,5.526,0,0,0,.9,2.9c.5-.6-.7-1.7-.2-2,1.1-.3,1.7.1,2.6-.4a4.643,4.643,0,0,1,.1,2.6.961.961,0,0,1,.9-.6c-.6-3.4-3.1-2.2-4.3-2.5Zm51.1,4.9c.2-.1.3-.4.6-.3-.2.7.5.8.4.3C371.9,13,370.8,13,371.1,13.7ZM350.2,35.6c-.5,1-2,1.4-1.6,3.3.8-.4,1.5-1.1,2-.7C349.9,37.8,350.6,36.2,350.2,35.6ZM231.8,42.2c0,.9-1,1.4-.5,2.1-.1-.6.5-.2.7-.3.2.7.6,6.4.4,2.9.6.4,1.2-.3,1.6-1C233.7,43.9,232.2,44.2,231.8,42.2Zm134.3,2.1c-.1.9.2,1,.2,1.7.5-.7.8.3.5,1.1.5-.4.6-1.6,1.4-1.5,0-.4-.1-1,.2-.9A3.233,3.233,0,0,0,368,43c.5-.5,1.3.4,1.2-1.5-.6.1-1.8.5-2.4-1.4.2.8.4,1.8-.4,1.5a18.462,18.462,0,0,0,.4,2.3c-.1.4-.4.4-.7.4Zm18.2,10.8c-.6-.1-.5.4-1,0,.3,1.7-.7,3.2-1.2,1.8a3.464,3.464,0,0,0-.5-3.2,10.785,10.785,0,0,0,.2-3.2.823.823,0,0,0-1.2.1c-.2,1.2.5,2.4-.3,2.4-.1,1.2.6.5.8,1.1-.2,0-.5,0-.4.6a3.763,3.763,0,0,1,.9,2.9c-.5-2.1-1.5.5-2.1.7,0-.6-.4-.3-.4-1.1.5-.2.5-1.2.8-1.8-.3-.1-.4.4-.4,0,.4-5.9-2.3-2.2-2.8-.8.2.3.6.3.6.9-.2.5-.4.8-.8.9a2.314,2.314,0,0,1-.7-1.4c.2,0,.5,0,.4-.6a6.251,6.251,0,0,0-1.8,2.1c-1.4-.1-2.6-.7-4.5-1,.1,1.4.6,1.7.8,2.9-.5-.2-.2.8-.7.6-.7-.3-.9-1.8-1.4-2.6.3-.5.2-1.8.5-2.4-1.1-.2-1.2,1.1-.7,2.4-.5.3-.6-.4-1-.2,0,.6.2.6.2,1.1-.4.3-.7.6-1.1.9-.8-.9-1.2-2.5-1.9-3.4.1.9.4,1.5.5,2.3-.9.6-.9-.8-1.5-.8.2,1.5.8,2,.9,3.5.5.4,0-1,.4-.9.8.7,1.1,2.5,2.1,2.8,0-.5-.3-.7,0-.9.3-.1.4.3.3.9a2.122,2.122,0,0,1,3.2.7c1-1.3,1.8,1.1,2.9.1-.1-.7-.3-.9.1-1.2.6.2,0,1.6.5,1.5.4-.1,1.6-.6,2.3.2-.1-.6.1-.9.4-.9.8.4,1.6,2.2,2.4.7,1.4,1.5,5.5,2.1,5.7-.9-.1.8-.5.4-1.3.6-1.6-2.5.3-4.6,1.4-6.5-.8.5-.1-.4-.6-.9ZM373,58.6c.2-1.4.8-1.3,1.3-.3C373.9,58.7,373.4,58.9,373,58.6ZM357.9,62c.1-.6-.7-2-1-2.6C356.5,61,357.7,61.5,357.9,62ZM74.6,5.7c.3,1.5-.7.5-.8,1.2,3,1.3,5.4-.3,8.3.9,0-1.3,1.3-1.4,1.6-.7,0-.7-.1-1.5.3-1.5,1.1,3.2,6.2,2.4,8.5,1.2v.9c3-.7,6.3,1.3,8.8-.7a2.388,2.388,0,0,0,.2.9c2.5-1.2,4.8.6,7.1-.6.9,1.2,3-.5,4.7,1,1.5-1.7,3.3.7,4.6-.8.1.7,0,1.8.5,1.8.7.3.2-1.8.9-1.5.5,2.1,1.3,1.3,2.3,1.4.1,0,.2.6.2.6,1,.2,2.2-1.1,2.6-1s.1.9.5.9c1.7,0,3.4-.4,4.4-2,1,.7,2.4,0,2.4-1.9-.8-.7-1.3-.5-1.8.4-.2-.9-.9-.6-1-1.8-1.3,2-2.6-.7-3.8.7-.6-.4-.8-1.4-1.6-1.4-.4,1.1-1.3,1.2-2,1.9-.1-1.8-1.7-.7-2.7-1.4-.1,1.8-1.1.3-1.6.1-.4,1.7-1.5.6-2-.2-.9-.3-.4,2-1.2,1.8-.3.1-.1-1-.2-1.5-1.4,1.6-3.4.2-4.8,1.1-1.1-1.6-4-.7-5.1-1,0,1.2.7.9.7,2.1-.5,0-.9-.4-1.6-.2a4.245,4.245,0,0,1,.6-1.5c-1.4.5-4.6-1.3-6.1,1.1-5.1-3.5-10.4.1-16.4-1.2-.4.1-.5.3-.9.9,0-.6-.2-.9-.5-.9-2,.6-5.5-1.3-7.8.6,1.2.7,1.7-.5,2.7.3Zm118,3.7c-.4-1,.2-1.9.7-1.2-.1-.9.1-1.2.4-1.5.2.9,1,.5.8,2.3,1,.2,1.3-.6,1.8-1.3.2.7.7.6,1.2.6,0-.8.4-.9.4-1.8-.7-.1-.8-1.2-1.4-1.4-.4.1-.4,1-.7,1.2-.2-.9-1.1-.2-1.4-.8-.1-1,.7-.5.4-1.8-1.6-.7-1.5,2.9-2.5,2.5-.1.8.3.6.3,1.2-.9.8-1.3-.7-1.6-1.4a2.137,2.137,0,0,0-1,1.8C191.6,7,191.5,9.5,192.6,9.4ZM330.8,43c-.4.8.4.7.4,1.7-.2.4-.4,1-.7,1.5,1.4,1.1,2.6.6,4.4.4a6.642,6.642,0,0,1,.3-1.5c-.7,0-1.5.2-1.5-1.4-.4-.2-.4.5-.8.3,0,.5.5,1.4.1,1.8,0-1.1-.9-1-.6-2.1-.7.4-.8-1.1-1.6-.7Z" fill="#0c7cec" fill-rule="evenodd"/>
  </g>
</svg>
