<svg xmlns="http://www.w3.org/2000/svg" width="43.196" height="61.245" viewBox="0 0 43.196 61.245">
  <path id="Path_57432" data-name="Path 57432" d="M190.9,105H151.3a1.8,1.8,0,0,0-1.8,1.8v57.643a1.8,1.8,0,0,0,1.8,1.8H168.31a6.4,6.4,0,0,0,6.387-6.393v-9.819a1.8,1.8,0,0,1,1.8-1.8h10.8a5.408,5.408,0,0,0,5.4-5.4V106.8A1.8,1.8,0,0,0,190.9,105Zm-24.99,11.22a1.8,1.8,0,0,1,2.545,0L171,118.767l2.647-2.649a1.8,1.8,0,1,1,2.545,2.547l-2.647,2.649,2.545,2.547a1.8,1.8,0,1,1-2.545,2.547L171,123.861l-2.443,2.445a1.8,1.8,0,0,1-2.545-2.547l2.443-2.445-2.545-2.547A1.8,1.8,0,0,1,165.906,116.22Zm3.392,32.012H158.5a1.8,1.8,0,0,1,0-3.6h10.8a1.8,1.8,0,0,1,0,3.6Zm14.4-7.205H158.5a1.8,1.8,0,0,1,0-3.6h25.2a1.8,1.8,0,0,1,0,3.6Zm0-7.205H158.5a1.8,1.8,0,0,1,0-3.6h25.2a1.8,1.8,0,0,1,0,3.6Zm-5.4,18.013v8.018a9.9,9.9,0,0,1-2.132,6.1,19.84,19.84,0,0,0,16.146-15.65,8.941,8.941,0,0,1-5.015,1.533h-9Z" transform="translate(-149.5 -105)" fill="#4a4a4a"/>
</svg>
