<svg xmlns="http://www.w3.org/2000/svg" xmlns:xlink="http://www.w3.org/1999/xlink" width="60" height="60" viewBox="0 0 60 60">
  <defs>
    <clipPath id="clip-path">
      <rect id="Rectangle_58" data-name="Rectangle 58" width="60" height="60" transform="translate(895 6459)" fill="#fff" stroke="#707070" stroke-width="1"/>
    </clipPath>
  </defs>
  <g id="Mask_Group_6" data-name="Mask Group 6" transform="translate(-895 -6459)" clip-path="url(#clip-path)">
    <g id="support_agent_black_24dp" transform="translate(895 6459)">
      <g id="Group_29" data-name="Group 29">
        <rect id="Rectangle_60" data-name="Rectangle 60" width="60" height="60" fill="none"/>
      </g>
      <g id="Group_31" data-name="Group 31">
        <g id="Group_30" data-name="Group 30">
          <path id="Path_2441" data-name="Path 2441" d="M52.5,30.55C52.5,16.825,41.85,7.5,30,7.5,18.275,7.5,7.5,16.625,7.5,30.7A4.919,4.919,0,0,0,5,35v5a5.015,5.015,0,0,0,5,5h2.5V29.75a17.5,17.5,0,1,1,35,0V47.5h-20v5h20a5.015,5.015,0,0,0,5-5V44.45a4.622,4.622,0,0,0,2.5-4.1V34.6A4.6,4.6,0,0,0,52.5,30.55Z" fill="#fff"/>
          <circle id="Ellipse_1" data-name="Ellipse 1" cx="2.5" cy="2.5" r="2.5" transform="translate(20 30)" fill="#fff"/>
          <circle id="Ellipse_2" data-name="Ellipse 2" cx="2.5" cy="2.5" r="2.5" transform="translate(35 30)" fill="#fff"/>
          <path id="Path_2442" data-name="Path 2442" d="M45,27.575a15.1,15.1,0,0,0-29.95,3.55A20.187,20.187,0,0,0,27.2,16.4,20.093,20.093,0,0,0,45,27.575Z" fill="#fff"/>
        </g>
      </g>
    </g>
  </g>
</svg>
